<svg width="731" height="272" viewBox="0 0 731 272" fill="none" xmlns="http://www.w3.org/2000/svg">
<g filter="url(#filter0_d_371_822)">
<rect x="30" y="44.7148" width="141" height="162" rx="24" fill="white" shape-rendering="crispEdges"/>
<rect x="30.25" y="44.9648" width="140.5" height="161.5" rx="23.75" stroke="#5BC4BF" stroke-width="0.5" shape-rendering="crispEdges"/>
<path d="M61.4393 87.777H64.5392V89.8656H64.6711C64.9349 89.1547 65.3563 88.6051 65.9352 88.2167C66.5141 87.821 67.203 87.6231 68.0018 87.6231C68.5368 87.6231 69.0241 87.7147 69.4638 87.8979C69.9108 88.0738 70.2846 88.3303 70.585 88.6674C70.8855 89.0045 71.1053 89.4039 71.2446 89.8656H71.3545C71.5304 89.4112 71.7905 89.0155 72.135 88.6784C72.4794 88.3413 72.8935 88.0811 73.3771 87.8979C73.8608 87.7147 74.3884 87.6231 74.96 87.6231C75.7075 87.6231 76.3634 87.7843 76.9277 88.1068C77.4993 88.4219 77.9427 88.8872 78.2578 89.5028C78.5729 90.1111 78.7305 90.8439 78.7305 91.7013V99.7148H75.4657V92.3169C75.4657 91.6647 75.2935 91.17 74.9491 90.8329C74.6046 90.4885 74.1539 90.3163 73.597 90.3163C73.1939 90.3163 72.8458 90.4042 72.5527 90.5801C72.2669 90.7486 72.0434 90.9905 71.8821 91.3056C71.7283 91.6134 71.6513 91.9798 71.6513 92.4048V99.7148H68.4965V92.229C68.4965 91.8479 68.4195 91.5108 68.2656 91.2176C68.1191 90.9245 67.9065 90.701 67.6281 90.5471C67.3496 90.3932 67.0271 90.3163 66.6607 90.3163C66.2943 90.3163 65.9609 90.4079 65.6604 90.5911C65.3673 90.767 65.1328 91.0234 64.9569 91.3606C64.781 91.6977 64.6931 92.0897 64.6931 92.5367V99.7148H61.4393V87.777ZM82.0234 104.2C81.3858 104.2 80.8362 104.181 80.3745 104.145V101.606L80.9241 101.639C81.144 101.646 81.4005 101.65 81.6936 101.65C81.9574 101.65 82.1773 101.628 82.3532 101.584C82.529 101.54 82.6939 101.437 82.8478 101.276C83.0017 101.115 83.1373 100.873 83.2545 100.55L83.4524 100.056L79.1543 87.777H82.584L85.0903 96.571H85.2222L87.7395 87.777H91.1911L86.5303 101.023C86.1712 102.034 85.6326 102.815 84.9144 103.364C84.1962 103.921 83.2326 104.2 82.0234 104.2ZM100.816 88.3486C100.772 87.9236 100.636 87.5608 100.409 87.2604C100.189 86.9599 99.8813 86.7327 99.4856 86.5788C99.0899 86.4249 98.6172 86.348 98.0676 86.348C97.5326 86.348 97.0673 86.4249 96.6715 86.5788C96.2831 86.7327 95.9863 86.9489 95.7811 87.2274C95.5759 87.4985 95.4734 87.81 95.4734 88.1617C95.466 88.6967 95.6859 89.1144 96.1329 89.4149C96.5873 89.7153 97.2138 89.9645 98.0126 90.1624L99.4416 90.5031C100.951 90.8402 102.12 91.3862 102.948 92.141C103.784 92.8885 104.205 93.8998 104.212 95.1749C104.212 96.135 103.967 96.974 103.476 97.6922C102.985 98.4104 102.278 98.9637 101.354 99.3521C100.431 99.7405 99.3281 99.9347 98.0456 99.9347C96.7631 99.9347 95.6456 99.7368 94.6929 99.3411C93.7475 98.9454 93.0147 98.3628 92.4944 97.5933C91.9741 96.8165 91.6956 95.8675 91.659 94.7462H94.8688C94.9127 95.2665 95.0703 95.7062 95.3414 96.0653C95.6126 96.4244 95.979 96.6956 96.4407 96.8788C96.9024 97.062 97.4264 97.1536 98.0126 97.1536C98.5842 97.1536 99.0862 97.0693 99.5186 96.9008C99.951 96.7322 100.284 96.4977 100.519 96.1972C100.753 95.8895 100.871 95.5414 100.871 95.153C100.871 94.8012 100.768 94.5044 100.563 94.2626C100.358 94.0134 100.057 93.8045 99.6615 93.636C99.2731 93.4601 98.7711 93.2952 98.1555 93.1413L96.4077 92.7236C95.0153 92.3792 93.9454 91.8552 93.1979 91.1517C92.4577 90.4408 92.0877 89.5175 92.0877 88.3816C92.0877 87.4362 92.3442 86.6008 92.8571 85.8753C93.3774 85.1498 94.092 84.5855 95.0007 84.1825C95.9167 83.7794 96.95 83.5779 98.1006 83.5779C99.2584 83.5779 100.281 83.7794 101.167 84.1825C102.054 84.5782 102.743 85.1388 103.234 85.8643C103.725 86.5825 103.978 87.4106 103.993 88.3486H100.816ZM118.861 83.7977V94.1417C118.861 95.2849 118.586 96.2925 118.036 97.1646C117.494 98.0367 116.724 98.7182 115.728 99.2092C114.731 99.6929 113.58 99.9347 112.276 99.9347C110.964 99.9347 109.814 99.6929 108.824 99.2092C107.835 98.7182 107.066 98.0367 106.516 97.1646C105.974 96.2925 105.703 95.2849 105.703 94.1417V83.7977H109V93.8668C109 94.4678 109.136 95.0101 109.407 95.4937C109.678 95.9701 110.063 96.3475 110.561 96.626C111.06 96.8971 111.631 97.0327 112.276 97.0327C112.928 97.0327 113.504 96.8971 114.002 96.626C114.5 96.3475 114.881 95.9701 115.145 95.4937C115.416 95.0101 115.552 94.4678 115.552 93.8668V83.7977H118.861ZM134.146 99.7148H131.288L124.297 89.6018H124.176V99.7148H120.878V83.7977H123.78L130.717 93.8998H130.86V83.7977H134.146V99.7148ZM139.484 99.7148H136.186V83.7977H139.484V99.7148ZM70.4892 119.974H61.8051V117.732H70.4892V119.974ZM67.1914 130.252H64.4323V123.459H67.1914V130.252ZM72.171 119.326C72.1637 120.271 72.1527 121.077 72.1381 121.744C72.1234 122.404 72.0758 123.191 71.9951 124.107C71.9145 125.016 71.7936 125.983 71.6324 127.009L68.8733 126.779C69.0931 125.342 69.2324 124.074 69.291 122.975C69.3496 121.869 69.3789 120.652 69.3789 119.326V117.732H72.171V119.326ZM76.7659 135.737H73.9408V115.709H76.7659V135.737ZM79.481 126.108H75.9305V123.767H79.481V126.108ZM60.7498 129.417C63.2781 129.395 65.5096 129.347 67.4443 129.274C69.3863 129.193 71.2367 129.043 72.9955 128.823L73.1604 130.901C71.3136 131.209 69.3753 131.414 67.3453 131.516C65.3227 131.619 63.2158 131.663 61.0246 131.648L60.7498 129.417ZM94.5029 122.876H90.6556V120.601H94.5029V122.876ZM96.5695 127.614H93.7774V115.709H96.5695V127.614ZM89.7322 128.054C91.1612 128.054 92.3924 128.208 93.4257 128.515C94.459 128.816 95.2504 129.256 95.8 129.834C96.357 130.413 96.6355 131.106 96.6355 131.912C96.6355 132.711 96.357 133.396 95.8 133.968C95.2504 134.547 94.459 134.99 93.4257 135.298C92.3924 135.606 91.1612 135.763 89.7322 135.77C88.3178 135.763 87.094 135.606 86.0607 135.298C85.0347 134.99 84.2433 134.547 83.6863 133.968C83.1367 133.396 82.8619 132.711 82.8619 131.912C82.8619 131.106 83.1367 130.413 83.6863 129.834C84.2433 129.256 85.0347 128.816 86.0607 128.515C87.094 128.208 88.3178 128.054 89.7322 128.054ZM89.7322 130.186C88.8528 130.186 88.109 130.249 87.5007 130.373C86.8925 130.498 86.4308 130.688 86.1157 130.945C85.8005 131.201 85.643 131.524 85.643 131.912C85.643 132.278 85.8005 132.594 86.1157 132.857C86.4308 133.114 86.8925 133.308 87.5007 133.44C88.109 133.565 88.8528 133.627 89.7322 133.627C90.6336 133.627 91.3884 133.565 91.9966 133.44C92.6049 133.308 93.0629 133.114 93.3707 132.857C93.6785 132.594 93.8324 132.278 93.8324 131.912C93.8324 131.524 93.6785 131.201 93.3707 130.945C93.0629 130.688 92.6049 130.498 91.9966 130.373C91.3884 130.249 90.6336 130.186 89.7322 130.186ZM86.6873 119.051C86.6873 120.348 86.4784 121.564 86.0607 122.7C85.643 123.836 85.0091 124.837 84.159 125.701C83.3162 126.559 82.2793 127.2 81.0481 127.625L79.5861 125.394C80.6561 125.034 81.5501 124.525 82.2683 123.866C82.9938 123.199 83.5288 122.451 83.8732 121.623C84.225 120.788 84.4008 119.93 84.4008 119.051V117.732H86.6873V119.051ZM87.2589 119.029C87.2589 119.842 87.4238 120.63 87.7535 121.392C88.0906 122.154 88.6036 122.843 89.2925 123.459C89.9814 124.074 90.8388 124.554 91.8647 124.899L90.4797 127.097C89.2705 126.702 88.2519 126.101 87.4238 125.295C86.603 124.481 85.9911 123.536 85.588 122.459C85.185 121.381 84.9834 120.238 84.9834 119.029V117.732H87.2589V119.029ZM91.2492 119.194H80.3886V116.929H91.2492V119.194ZM114.895 119.732H103.012V117.523H114.895V119.732ZM108.97 120.37C109.93 120.37 110.78 120.524 111.521 120.832C112.268 121.139 112.851 121.572 113.268 122.129C113.686 122.686 113.895 123.327 113.895 124.052C113.895 124.785 113.686 125.43 113.268 125.987C112.851 126.544 112.268 126.976 111.521 127.284C110.78 127.592 109.93 127.746 108.97 127.746C108.01 127.746 107.153 127.592 106.398 127.284C105.643 126.976 105.053 126.544 104.628 125.987C104.211 125.423 104.002 124.778 104.002 124.052C104.002 123.327 104.211 122.686 104.628 122.129C105.053 121.572 105.643 121.139 106.398 120.832C107.153 120.524 108.01 120.37 108.97 120.37ZM108.97 122.47C108.523 122.47 108.128 122.532 107.783 122.656C107.446 122.774 107.186 122.953 107.003 123.195C106.82 123.43 106.728 123.715 106.728 124.052C106.728 124.39 106.82 124.675 107.003 124.91C107.186 125.137 107.446 125.309 107.783 125.427C108.12 125.544 108.516 125.602 108.97 125.602C109.417 125.602 109.809 125.544 110.147 125.427C110.491 125.309 110.758 125.137 110.949 124.91C111.14 124.675 111.235 124.39 111.235 124.052C111.235 123.715 111.14 123.43 110.949 123.195C110.758 122.953 110.491 122.774 110.147 122.656C109.809 122.532 109.417 122.47 108.97 122.47ZM118.897 128.285H116.094V115.709H118.897V128.285ZM121.601 123.206H118.105V120.92H121.601V123.206ZM118.897 135.737H116.094V131.351H105.431V129.12H118.897V135.737ZM110.366 118.765H107.563V115.621H110.366V118.765ZM126.718 129.428H134.963V127.724H137.744V135.518H123.926V127.724H126.718V129.428ZM134.963 133.308V131.549H126.718V133.308H134.963ZM140.063 126.713H121.816V124.47H140.063V126.713ZM131.918 116.6C131.918 117.75 131.588 118.816 130.929 119.798C130.269 120.78 129.32 121.601 128.081 122.261C126.85 122.92 125.399 123.36 123.728 123.58L122.706 121.381C124.143 121.205 125.374 120.876 126.4 120.392C127.426 119.901 128.195 119.326 128.708 118.666C129.228 118.007 129.489 117.318 129.489 116.6V115.918H131.918V116.6ZM132.38 116.6C132.38 117.303 132.64 117.988 133.16 118.655C133.68 119.315 134.453 119.894 135.479 120.392C136.505 120.89 137.729 121.22 139.151 121.381L138.162 123.58C136.483 123.36 135.025 122.92 133.787 122.261C132.548 121.594 131.599 120.773 130.94 119.798C130.287 118.816 129.961 117.75 129.961 116.6V115.918H132.38V116.6ZM65.6305 161.647C65.6378 159.639 65.931 157.767 66.5099 156.03C67.0962 154.293 67.9353 152.655 69.0272 151.116H72.1271C71.6067 151.871 71.1084 152.831 70.6321 153.996C70.1557 155.154 69.7673 156.404 69.4669 157.745C69.1737 159.086 69.0272 160.387 69.0272 161.647C69.0272 162.907 69.1737 164.212 69.4669 165.56C69.7673 166.901 70.1557 168.151 70.6321 169.309C71.1084 170.467 71.6067 171.43 72.1271 172.2H69.0272C67.9426 170.646 67.1072 169.001 66.5209 167.264C65.9346 165.52 65.6378 163.648 65.6305 161.647ZM87.5887 156.272H82.8839V153.996H87.5887V156.272ZM79.4982 153.139C79.4982 154.531 79.293 155.817 78.8826 156.997C78.4722 158.17 77.853 159.196 77.0249 160.075C76.2041 160.947 75.1818 161.607 73.958 162.054L72.441 159.833C73.5183 159.474 74.4123 158.954 75.1232 158.272C75.8413 157.591 76.3727 156.814 76.7171 155.942C77.0615 155.07 77.2337 154.135 77.2337 153.139V150.962H79.4982V153.139ZM80.0588 153.161C80.0588 154.062 80.2237 154.92 80.5535 155.733C80.8832 156.539 81.3889 157.265 82.0704 157.91C82.7593 158.547 83.6167 159.042 84.6427 159.394L83.1147 161.57C81.9568 161.13 80.9822 160.496 80.1907 159.668C79.4066 158.833 78.8166 157.862 78.4209 156.755C78.0252 155.649 77.8273 154.451 77.8273 153.161V150.962H80.0588V153.161ZM89.4354 164.527H86.6433V149.753H89.4354V164.527ZM89.8641 169.397H76.1125V167.132H89.8641V169.397ZM78.9486 168.363H76.1125V162.977H78.9486V168.363ZM93.4098 158.888C95.0441 158.881 96.3705 158.848 97.3891 158.789C98.4151 158.73 99.4374 158.609 100.456 158.426L100.731 160.691C99.6243 160.874 98.5397 161.002 97.4771 161.075C96.4218 161.141 95.066 161.174 93.4098 161.174H92.0578V158.888H93.4098ZM99.9614 153.315H94.7399V160.13H92.0578V151.061H99.9614V153.315ZM99.7745 157.096H93.9375V154.975H99.7745V157.096ZM108.547 161.944H105.875V149.753H108.547V161.944ZM106.634 156.876H103.391V154.634H106.634V156.876ZM104.139 161.812H101.544V150.094H104.139V161.812ZM108.547 169.737H105.765V165.022H94.7179V162.779H108.547V169.737ZM117.116 153.051C117.116 154.326 116.907 155.528 116.489 156.656C116.072 157.785 115.438 158.771 114.588 159.613C113.745 160.449 112.708 161.068 111.477 161.471L110.026 159.262C111.081 158.91 111.968 158.412 112.686 157.767C113.411 157.122 113.95 156.393 114.302 155.579C114.653 154.758 114.829 153.916 114.829 153.051V151.699H117.116V153.051ZM117.687 153.018C117.687 153.839 117.852 154.63 118.182 155.392C118.519 156.154 119.032 156.843 119.721 157.459C120.41 158.067 121.267 158.543 122.293 158.888L120.908 161.064C119.699 160.676 118.68 160.082 117.852 159.284C117.032 158.477 116.42 157.536 116.017 156.459C115.614 155.381 115.412 154.234 115.412 153.018V151.699H117.687V153.018ZM125.008 156.832H121.106V154.535H125.008V156.832ZM121.678 153.084H110.817V150.841H121.678V153.084ZM126.998 169.737H124.206V164.78H113.257V162.526H126.998V169.737ZM126.998 161.647H124.206V149.709H126.998V161.647ZM134.468 156.03C135.054 157.767 135.351 159.639 135.359 161.647C135.351 163.648 135.054 165.52 134.468 167.264C133.882 169.001 133.046 170.646 131.962 172.2H128.862C129.382 171.43 129.881 170.467 130.357 169.309C130.833 168.151 131.218 166.901 131.511 165.56C131.812 164.212 131.962 162.907 131.962 161.647C131.962 160.387 131.812 159.086 131.511 157.745C131.218 156.404 130.833 155.154 130.357 153.996C129.881 152.831 129.382 151.871 128.862 151.116H131.962C133.054 152.655 133.889 154.293 134.468 156.03Z" fill="#5BC4BF"/>
</g>
<g filter="url(#filter1_d_371_822)">
<rect x="211" y="46.2148" width="147" height="159" rx="24" fill="#5BC4BF" shape-rendering="crispEdges"/>
<rect x="211.25" y="46.4648" width="146.5" height="158.5" rx="23.75" stroke="#5BC4BF" stroke-width="0.5" shape-rendering="crispEdges"/>
<path d="M258.335 130.631H255.532V116.253H258.335V130.631ZM258.885 135.897H244.935V133.632H258.885V135.897ZM247.771 134.556H244.935V129.191H247.771V134.556ZM247.376 117.517C248.394 117.517 249.321 117.733 250.157 118.166C251 118.591 251.659 119.192 252.135 119.969C252.612 120.738 252.85 121.599 252.85 122.552C252.85 123.534 252.612 124.41 252.135 125.179C251.659 125.948 251 126.553 250.157 126.993C249.321 127.425 248.394 127.641 247.376 127.641C246.357 127.641 245.43 127.425 244.595 126.993C243.766 126.553 243.111 125.948 242.627 125.179C242.143 124.41 241.901 123.534 241.901 122.552C241.901 121.599 242.143 120.738 242.627 119.969C243.111 119.192 243.766 118.591 244.595 118.166C245.43 117.733 246.357 117.517 247.376 117.517ZM247.376 119.958C246.855 119.95 246.386 120.053 245.969 120.265C245.558 120.471 245.232 120.771 244.99 121.167C244.756 121.562 244.639 122.024 244.639 122.552C244.639 123.094 244.756 123.567 244.99 123.97C245.232 124.366 245.558 124.67 245.969 124.882C246.386 125.087 246.855 125.19 247.376 125.19C247.889 125.19 248.347 125.087 248.75 124.882C249.16 124.67 249.483 124.366 249.717 123.97C249.952 123.567 250.069 123.094 250.069 122.552C250.069 122.024 249.952 121.562 249.717 121.167C249.483 120.771 249.16 120.471 248.75 120.265C248.347 120.053 247.889 119.95 247.376 119.958ZM278.633 127.707H260.386V125.454H278.633V127.707ZM269.477 128.818C270.92 128.818 272.166 128.964 273.214 129.257C274.262 129.55 275.061 129.975 275.611 130.532C276.167 131.089 276.446 131.756 276.446 132.533C276.446 133.317 276.167 133.988 275.611 134.545C275.061 135.102 274.262 135.523 273.214 135.809C272.174 136.095 270.928 136.237 269.477 136.237C268.026 136.237 266.773 136.095 265.717 135.809C264.669 135.523 263.863 135.102 263.299 134.545C262.742 133.988 262.463 133.317 262.463 132.533C262.463 131.756 262.746 131.089 263.31 130.532C263.874 129.975 264.68 129.55 265.728 129.257C266.784 128.964 268.033 128.818 269.477 128.818ZM269.477 130.994C268.546 130.994 267.773 131.049 267.157 131.159C266.542 131.269 266.08 131.441 265.772 131.676C265.472 131.903 265.322 132.189 265.322 132.533C265.322 132.87 265.475 133.152 265.783 133.379C266.091 133.607 266.549 133.779 267.157 133.896C267.766 134.006 268.539 134.061 269.477 134.061C270.4 134.061 271.166 134.006 271.774 133.896C272.39 133.779 272.851 133.607 273.159 133.379C273.467 133.152 273.621 132.87 273.621 132.533C273.621 132.189 273.467 131.903 273.159 131.676C272.851 131.441 272.39 131.269 271.774 131.159C271.166 131.049 270.4 130.994 269.477 130.994ZM270.048 118.77C270.048 119.789 269.744 120.72 269.136 121.562C268.528 122.398 267.626 123.094 266.432 123.651C265.237 124.201 263.797 124.552 262.112 124.706L261.188 122.519C262.566 122.387 263.735 122.13 264.695 121.749C265.662 121.361 266.384 120.907 266.86 120.386C267.337 119.866 267.575 119.327 267.575 118.77V118.232H270.048V118.77ZM271.411 118.77C271.411 119.327 271.646 119.866 272.115 120.386C272.591 120.907 273.313 121.361 274.28 121.749C275.248 122.13 276.439 122.387 277.853 122.519L276.864 124.706C275.193 124.552 273.76 124.201 272.566 123.651C271.371 123.094 270.459 122.398 269.828 121.562C269.206 120.72 268.894 119.789 268.894 118.77V118.232H271.411V118.77ZM276.985 119.397H262.035V117.154H276.985V119.397ZM283.812 118.298H296.849V121.024H291.969V134.215H288.704V121.024H283.812V118.298ZM301.846 134.446C300.644 134.446 299.596 134.197 298.702 133.698C297.816 133.2 297.13 132.489 296.647 131.566C296.17 130.642 295.932 129.558 295.932 128.312C295.932 127.081 296.17 126 296.647 125.069C297.13 124.131 297.808 123.406 298.68 122.893C299.552 122.38 300.564 122.123 301.714 122.123C302.791 122.123 303.751 122.35 304.594 122.805C305.437 123.252 306.1 123.93 306.584 124.838C307.068 125.747 307.309 126.857 307.309 128.169V129.081H297.262V127.048H304.242C304.242 126.564 304.136 126.135 303.924 125.762C303.711 125.381 303.418 125.084 303.044 124.871C302.671 124.659 302.245 124.552 301.769 124.552C301.263 124.552 300.813 124.67 300.417 124.904C300.021 125.131 299.71 125.446 299.483 125.85C299.263 126.253 299.149 126.692 299.142 127.169V129.081C299.142 129.675 299.256 130.195 299.483 130.642C299.71 131.089 300.029 131.43 300.439 131.665C300.857 131.899 301.34 132.016 301.89 132.016C302.256 132.016 302.59 131.965 302.89 131.862C303.191 131.753 303.444 131.613 303.649 131.445C303.861 131.269 304.023 131.064 304.133 130.829H307.232C307.079 131.555 306.76 132.192 306.276 132.742C305.8 133.284 305.18 133.706 304.418 134.006C303.664 134.299 302.806 134.446 301.846 134.446ZM315.494 125.828C315.421 125.388 315.212 125.047 314.867 124.805C314.523 124.563 314.08 124.443 313.537 124.443C313.185 124.443 312.87 124.494 312.592 124.596C312.313 124.692 312.09 124.835 311.921 125.025C311.76 125.208 311.68 125.417 311.68 125.652C311.672 125.93 311.789 126.172 312.031 126.377C312.28 126.582 312.676 126.74 313.218 126.85L315.373 127.29C316.531 127.524 317.392 127.909 317.956 128.444C318.528 128.971 318.814 129.664 318.814 130.521C318.814 131.298 318.59 131.983 318.143 132.577C317.703 133.163 317.084 133.621 316.285 133.951C315.494 134.281 314.571 134.446 313.515 134.446C312.453 134.446 311.533 134.295 310.756 133.995C309.987 133.687 309.378 133.255 308.931 132.698C308.484 132.134 308.217 131.463 308.129 130.686H311.394C311.489 131.141 311.716 131.489 312.075 131.731C312.442 131.965 312.925 132.082 313.526 132.082C313.915 132.082 314.255 132.035 314.549 131.939C314.849 131.844 315.08 131.705 315.241 131.522C315.41 131.331 315.494 131.111 315.494 130.862C315.494 130.54 315.362 130.28 315.098 130.082C314.842 129.884 314.435 129.73 313.878 129.62L311.899 129.224C310.756 128.997 309.891 128.598 309.305 128.026C308.726 127.454 308.44 126.729 308.448 125.85C308.448 125.087 308.653 124.428 309.063 123.871C309.474 123.307 310.056 122.874 310.811 122.574C311.573 122.273 312.467 122.123 313.493 122.123C314.49 122.123 315.358 122.273 316.099 122.574C316.839 122.874 317.418 123.303 317.835 123.86C318.253 124.417 318.488 125.073 318.539 125.828H315.494ZM326.427 124.717H319.281V122.277H326.427V124.717ZM324.184 119.419V130.543C324.184 130.851 324.228 131.093 324.316 131.269C324.411 131.437 324.54 131.558 324.701 131.632C324.869 131.698 325.075 131.734 325.316 131.742C325.624 131.749 326.049 131.731 326.591 131.687V134.259C326.101 134.339 325.533 134.38 324.888 134.38C324.082 134.38 323.382 134.259 322.788 134.017C322.195 133.768 321.733 133.39 321.403 132.885C321.073 132.379 320.912 131.749 320.919 130.994V119.419H324.184Z" fill="white"/>
</g>
<path d="M653.197 168L653.197 58.5692" stroke="#5BC4BF" stroke-width="0.5"/>
<path d="M652.331 54.5C652.716 53.8333 653.678 53.8333 654.063 54.5L655.795 57.5C656.18 58.1667 655.699 59 654.929 59L651.465 59C650.695 59 650.214 58.1667 650.599 57.5L652.331 54.5Z" fill="#5BC4BF"/>
<path d="M358 120.685L416.414 120.685" stroke="#5BC4BF" stroke-width="0.5"/>
<path d="M558.521 24.0273L445.414 24.0273L445.414 217.342L558.521 217.342" stroke="#5BC4BF" stroke-width="0.5"/>
<rect x="386.914" y="85.1851" width="117" height="71" rx="17.5" fill="white"/>
<rect x="386.914" y="85.1851" width="117" height="71" rx="17.5" stroke="#5BC4BF"/>
<path d="M419.609 107.06C419.521 106.581 419.336 106.172 419.055 105.833C418.779 105.49 418.432 105.229 418.016 105.052C417.604 104.875 417.159 104.787 416.68 104.787C416.029 104.787 415.445 104.953 414.93 105.287C414.414 105.615 414.008 106.099 413.711 106.74C413.419 107.375 413.273 108.138 413.273 109.029C413.273 109.93 413.419 110.698 413.711 111.333C414.008 111.969 414.414 112.451 414.93 112.779C415.445 113.107 416.026 113.271 416.672 113.271C417.151 113.271 417.594 113.182 418 113.005C418.406 112.828 418.753 112.573 419.039 112.24C419.326 111.901 419.516 111.5 419.609 111.037L421.336 111.044C421.216 111.779 420.943 112.435 420.516 113.013C420.094 113.591 419.552 114.042 418.891 114.365C418.229 114.682 417.487 114.841 416.664 114.841C415.68 114.841 414.802 114.607 414.031 114.138C413.266 113.669 412.664 112.995 412.227 112.115C411.794 111.235 411.578 110.206 411.578 109.029C411.578 107.841 411.797 106.81 412.234 105.935C412.672 105.06 413.273 104.388 414.039 103.919C414.81 103.451 415.685 103.216 416.664 103.216C417.461 103.216 418.19 103.37 418.852 103.677C419.518 103.979 420.068 104.419 420.5 104.998C420.932 105.576 421.211 106.263 421.336 107.06H419.609ZM426.648 114.857C425.857 114.857 425.159 114.675 424.555 114.31C423.956 113.945 423.492 113.432 423.164 112.771C422.836 112.11 422.672 111.347 422.672 110.482C422.672 109.607 422.836 108.839 423.164 108.177C423.492 107.516 423.956 107.003 424.555 106.638C425.159 106.274 425.857 106.091 426.648 106.091C427.435 106.091 428.128 106.274 428.727 106.638C429.326 107.003 429.786 107.516 430.109 108.177C430.432 108.839 430.594 109.607 430.594 110.482C430.594 111.347 430.432 112.11 430.109 112.771C429.786 113.432 429.326 113.945 428.727 114.31C428.128 114.675 427.435 114.857 426.648 114.857ZM426.648 113.466C427.148 113.466 427.568 113.333 427.906 113.068C428.245 112.797 428.497 112.438 428.664 111.99C428.831 111.537 428.914 111.031 428.914 110.474C428.914 109.917 428.831 109.412 428.664 108.958C428.497 108.505 428.245 108.146 427.906 107.88C427.568 107.61 427.148 107.474 426.648 107.474C426.148 107.474 425.727 107.61 425.383 107.88C425.039 108.146 424.781 108.505 424.609 108.958C424.438 109.412 424.352 109.917 424.352 110.474C424.352 111.031 424.438 111.537 424.609 111.99C424.781 112.438 425.039 112.797 425.383 113.068C425.727 113.333 426.148 113.466 426.648 113.466ZM437.383 110.841C437.247 110.841 436.823 110.867 436.109 110.919L435.266 110.982C434.703 111.024 434.266 111.154 433.953 111.373C433.646 111.591 433.492 111.904 433.492 112.31C433.492 112.576 433.56 112.8 433.695 112.982C433.831 113.159 434.021 113.297 434.266 113.396C434.51 113.49 434.789 113.537 435.102 113.537C435.544 113.537 435.927 113.451 436.25 113.279C436.578 113.102 436.831 112.867 437.008 112.576C437.185 112.279 437.273 111.961 437.273 111.623L437.266 108.951C437.266 108.628 437.201 108.354 437.07 108.13C436.945 107.901 436.753 107.729 436.492 107.615C436.232 107.495 435.914 107.435 435.539 107.435C435.065 107.435 434.677 107.534 434.375 107.732C434.078 107.925 433.885 108.185 433.797 108.513H432.125C432.182 108.039 432.359 107.62 432.656 107.255C432.953 106.891 433.354 106.607 433.859 106.404C434.365 106.195 434.943 106.091 435.594 106.091C436.141 106.091 436.659 106.175 437.148 106.341C437.643 106.503 438.062 106.805 438.406 107.248C438.75 107.685 438.922 108.287 438.922 109.052V114.685H437.305V113.521H437.242C437.128 113.755 436.961 113.974 436.742 114.177C436.523 114.38 436.242 114.547 435.898 114.677C435.56 114.807 435.169 114.873 434.727 114.873C434.18 114.873 433.69 114.771 433.258 114.568C432.826 114.365 432.484 114.068 432.234 113.677C431.984 113.287 431.859 112.826 431.859 112.294C431.859 111.409 432.156 110.779 432.75 110.404C433.349 110.029 434.109 109.813 435.031 109.755C435.156 109.74 435.651 109.708 436.516 109.662L437.367 109.63L437.383 110.841ZM444.539 114.857C443.732 114.857 443.026 114.669 442.422 114.294C441.823 113.919 441.362 113.401 441.039 112.74C440.721 112.078 440.562 111.326 440.562 110.482C440.562 109.623 440.727 108.862 441.055 108.201C441.383 107.534 441.844 107.016 442.438 106.646C443.031 106.276 443.721 106.091 444.508 106.091C445.154 106.091 445.732 106.208 446.242 106.443C446.753 106.677 447.161 107.011 447.469 107.443C447.776 107.875 447.961 108.375 448.023 108.943H446.398C446.341 108.672 446.229 108.427 446.062 108.208C445.901 107.985 445.693 107.807 445.438 107.677C445.182 107.547 444.885 107.482 444.547 107.482C444.089 107.482 443.685 107.602 443.336 107.841C442.992 108.081 442.724 108.422 442.531 108.865C442.339 109.307 442.242 109.831 442.242 110.435C442.242 111.044 442.336 111.576 442.523 112.029C442.716 112.477 442.984 112.823 443.328 113.068C443.672 113.313 444.078 113.435 444.547 113.435C444.859 113.435 445.143 113.38 445.398 113.271C445.659 113.156 445.875 112.99 446.047 112.771C446.219 112.552 446.336 112.292 446.398 111.99H448.023C447.961 112.542 447.779 113.034 447.477 113.466C447.18 113.899 446.779 114.24 446.273 114.49C445.768 114.735 445.19 114.857 444.539 114.857ZM451.273 114.685H449.609V103.373H451.25V107.583H451.359C451.562 107.11 451.87 106.742 452.281 106.482C452.698 106.222 453.227 106.091 453.867 106.091C454.461 106.091 454.974 106.214 455.406 106.458C455.844 106.698 456.18 107.057 456.414 107.537C456.654 108.016 456.773 108.599 456.773 109.287V114.685H455.109V109.482C455.109 109.076 455.036 108.727 454.891 108.435C454.745 108.138 454.536 107.914 454.266 107.763C453.995 107.612 453.672 107.537 453.297 107.537C452.901 107.537 452.552 107.62 452.25 107.787C451.953 107.948 451.716 108.19 451.539 108.513C451.362 108.831 451.273 109.211 451.273 109.654V114.685ZM458.812 106.201H460.477V114.685H458.812V106.201ZM459.641 104.888C459.453 104.888 459.279 104.847 459.117 104.763C458.956 104.675 458.828 104.555 458.734 104.404C458.641 104.248 458.594 104.081 458.594 103.904C458.594 103.722 458.641 103.557 458.734 103.412C458.828 103.261 458.956 103.141 459.117 103.052C459.279 102.964 459.453 102.919 459.641 102.919C459.839 102.919 460.018 102.964 460.18 103.052C460.341 103.141 460.466 103.261 460.555 103.412C460.648 103.557 460.695 103.722 460.695 103.904C460.695 104.081 460.648 104.248 460.555 104.404C460.466 104.555 460.341 104.675 460.18 104.763C460.018 104.847 459.839 104.888 459.641 104.888ZM464.18 114.685H462.516V106.201H464.109V107.583H464.219C464.427 107.11 464.74 106.742 465.156 106.482C465.578 106.222 466.102 106.091 466.727 106.091C467.31 106.091 467.815 106.214 468.242 106.458C468.674 106.698 469.008 107.057 469.242 107.537C469.482 108.016 469.602 108.599 469.602 109.287V114.685H467.938V109.482C467.938 109.076 467.867 108.727 467.727 108.435C467.586 108.143 467.383 107.922 467.117 107.771C466.852 107.615 466.529 107.537 466.148 107.537C465.763 107.537 465.422 107.62 465.125 107.787C464.828 107.948 464.596 108.19 464.43 108.513C464.263 108.831 464.18 109.211 464.18 109.654V114.685ZM475.195 118.044C474.492 118.044 473.87 117.943 473.328 117.74C472.786 117.542 472.357 117.253 472.039 116.873C471.727 116.492 471.547 116.039 471.5 115.513H473.195C473.279 115.909 473.495 116.206 473.844 116.404C474.198 116.602 474.656 116.701 475.219 116.701C475.906 116.701 476.438 116.547 476.812 116.24C477.188 115.932 477.375 115.456 477.375 114.81V113.146H477.273C477.133 113.401 476.974 113.628 476.797 113.826C476.62 114.018 476.365 114.19 476.031 114.341C475.698 114.487 475.292 114.56 474.812 114.56C474.141 114.56 473.534 114.396 472.992 114.068C472.456 113.74 472.031 113.258 471.719 112.623C471.411 111.987 471.258 111.229 471.258 110.349C471.258 109.469 471.411 108.708 471.719 108.068C472.026 107.422 472.448 106.932 472.984 106.599C473.526 106.261 474.141 106.091 474.828 106.091C475.307 106.091 475.711 106.169 476.039 106.326C476.367 106.482 476.609 106.651 476.766 106.833C476.922 107.016 477.096 107.261 477.289 107.568H477.391V106.201H479.031V114.873C479.031 115.57 478.867 116.156 478.539 116.63C478.211 117.11 477.76 117.464 477.188 117.693C476.615 117.927 475.951 118.044 475.195 118.044ZM475.18 113.177C475.648 113.177 476.049 113.065 476.383 112.841C476.716 112.617 476.969 112.3 477.141 111.888C477.312 111.472 477.398 110.972 477.398 110.388C477.398 109.81 477.312 109.305 477.141 108.873C476.969 108.435 476.716 108.099 476.383 107.865C476.055 107.63 475.654 107.513 475.18 107.513C474.706 107.513 474.302 107.638 473.969 107.888C473.635 108.133 473.383 108.474 473.211 108.912C473.039 109.344 472.953 109.836 472.953 110.388C472.953 110.945 473.039 111.435 473.211 111.857C473.383 112.274 473.635 112.599 473.969 112.833C474.302 113.063 474.706 113.177 475.18 113.177ZM421.953 127.373H425.984C426.849 127.373 427.573 127.521 428.156 127.818C428.745 128.11 429.185 128.524 429.477 129.06C429.768 129.597 429.914 130.219 429.914 130.927C429.914 131.625 429.768 132.237 429.477 132.763C429.185 133.284 428.742 133.69 428.148 133.982C427.56 134.274 426.836 134.419 425.977 134.419H422.922V132.927H425.812C426.365 132.927 426.815 132.849 427.164 132.693C427.513 132.537 427.768 132.31 427.93 132.013C428.096 131.716 428.18 131.354 428.18 130.927C428.18 130.485 428.096 130.11 427.93 129.802C427.768 129.49 427.51 129.253 427.156 129.091C426.802 128.93 426.352 128.849 425.805 128.849H423.672V138.685H421.953V127.373ZM430.336 138.685H428.375L425.641 133.583H427.547L430.336 138.685ZM435.227 138.857C434.409 138.857 433.693 138.677 433.078 138.318C432.469 137.958 432 137.451 431.672 136.794C431.344 136.138 431.18 135.375 431.18 134.505C431.18 133.636 431.344 132.867 431.672 132.201C432 131.529 432.461 131.011 433.055 130.646C433.648 130.276 434.333 130.091 435.109 130.091C435.797 130.091 436.424 130.24 436.992 130.537C437.56 130.828 438.016 131.294 438.359 131.935C438.703 132.57 438.875 133.375 438.875 134.349V134.935H432.117V133.693H437.242C437.242 133.261 437.154 132.878 436.977 132.544C436.805 132.206 436.557 131.94 436.234 131.748C435.911 131.555 435.542 131.458 435.125 131.458C434.672 131.458 434.273 131.568 433.93 131.787C433.586 132.005 433.318 132.3 433.125 132.669C432.932 133.039 432.836 133.435 432.836 133.857V134.826C432.836 135.383 432.935 135.862 433.133 136.263C433.336 136.664 433.617 136.969 433.977 137.177C434.341 137.386 434.76 137.49 435.234 137.49C435.536 137.49 435.81 137.448 436.055 137.365C436.299 137.276 436.508 137.167 436.68 137.037C436.852 136.901 436.984 136.742 437.078 136.56H438.773C438.648 137.018 438.424 137.419 438.102 137.763C437.779 138.107 437.37 138.375 436.875 138.568C436.385 138.761 435.836 138.857 435.227 138.857ZM440.523 130.201H442.141V131.568H442.281C442.443 131.292 442.607 131.055 442.773 130.857C442.94 130.659 443.185 130.482 443.508 130.326C443.836 130.169 444.242 130.091 444.727 130.091C445.409 130.091 446.018 130.266 446.555 130.615C447.096 130.958 447.518 131.461 447.82 132.123C448.122 132.779 448.273 133.557 448.273 134.458C448.273 135.349 448.122 136.128 447.82 136.794C447.523 137.456 447.104 137.964 446.562 138.318C446.026 138.667 445.417 138.841 444.734 138.841C444.266 138.841 443.865 138.763 443.531 138.607C443.203 138.445 442.951 138.266 442.773 138.068C442.596 137.87 442.432 137.638 442.281 137.373H442.188V141.873H440.523V130.201ZM442.148 134.435C442.148 135.029 442.234 135.552 442.406 136.005C442.578 136.453 442.831 136.802 443.164 137.052C443.497 137.302 443.898 137.427 444.367 137.427C444.841 137.427 445.247 137.3 445.586 137.044C445.924 136.784 446.177 136.43 446.344 135.982C446.51 135.529 446.594 135.013 446.594 134.435C446.594 133.867 446.51 133.362 446.344 132.919C446.177 132.477 445.927 132.133 445.594 131.888C445.26 131.638 444.852 131.513 444.367 131.513C443.893 131.513 443.49 131.633 443.156 131.873C442.828 132.112 442.578 132.451 442.406 132.888C442.234 133.326 442.148 133.841 442.148 134.435ZM453.531 138.857C452.74 138.857 452.042 138.675 451.438 138.31C450.839 137.945 450.375 137.432 450.047 136.771C449.719 136.11 449.555 135.347 449.555 134.482C449.555 133.607 449.719 132.839 450.047 132.177C450.375 131.516 450.839 131.003 451.438 130.638C452.042 130.274 452.74 130.091 453.531 130.091C454.318 130.091 455.01 130.274 455.609 130.638C456.208 131.003 456.669 131.516 456.992 132.177C457.315 132.839 457.477 133.607 457.477 134.482C457.477 135.347 457.315 136.11 456.992 136.771C456.669 137.432 456.208 137.945 455.609 138.31C455.01 138.675 454.318 138.857 453.531 138.857ZM453.531 137.466C454.031 137.466 454.451 137.333 454.789 137.068C455.128 136.797 455.38 136.438 455.547 135.99C455.714 135.537 455.797 135.031 455.797 134.474C455.797 133.917 455.714 133.412 455.547 132.958C455.38 132.505 455.128 132.146 454.789 131.88C454.451 131.61 454.031 131.474 453.531 131.474C453.031 131.474 452.609 131.61 452.266 131.88C451.922 132.146 451.664 132.505 451.492 132.958C451.32 133.412 451.234 133.917 451.234 134.474C451.234 135.031 451.32 135.537 451.492 135.99C451.664 136.438 451.922 136.797 452.266 137.068C452.609 137.333 453.031 137.466 453.531 137.466ZM459.148 130.201H460.758V131.56H460.852C461.003 131.091 461.273 130.727 461.664 130.466C462.055 130.201 462.495 130.068 462.984 130.068C463.245 130.068 463.484 130.083 463.703 130.115V131.708C463.635 131.682 463.513 131.659 463.336 131.638C463.159 131.612 462.99 131.599 462.828 131.599C462.453 131.599 462.112 131.682 461.805 131.849C461.497 132.011 461.255 132.237 461.078 132.529C460.901 132.82 460.812 133.149 460.812 133.513V138.685H459.148V130.201ZM469.414 131.529H464.773V130.201H469.414V131.529ZM467.695 128.169V136.193C467.695 136.495 467.74 136.727 467.828 136.888C467.917 137.05 468.034 137.162 468.18 137.224C468.326 137.287 468.5 137.318 468.703 137.318C468.953 137.318 469.232 137.307 469.539 137.287V138.724C469.242 138.771 468.898 138.794 468.508 138.794C468.055 138.794 467.638 138.711 467.258 138.544C466.883 138.373 466.581 138.117 466.352 137.779C466.128 137.435 466.016 137.018 466.016 136.529V128.169H467.695Z" fill="#5BC4BF"/>
<rect x="482.914" y="0.527344" width="59" height="47" rx="17.5" fill="white"/>
<rect x="482.914" y="0.527344" width="59" height="47" rx="17.5" stroke="#5BC4BF"/>
<path d="M495.414 18.7148H499.836C500.68 18.7148 501.406 18.8763 502.016 19.1992C502.63 19.5169 503.096 19.9648 503.414 20.543C503.732 21.1211 503.891 21.7852 503.891 22.5352C503.891 23.2904 503.727 23.9544 503.398 24.5273C503.076 25.0951 502.604 25.5404 501.984 25.8633C501.37 26.181 500.635 26.3398 499.781 26.3398H496.938V24.4492H499.414C499.867 24.4492 500.247 24.3711 500.555 24.2148C500.867 24.0534 501.099 23.8294 501.25 23.543C501.401 23.2565 501.477 22.9206 501.477 22.5352C501.477 22.1497 501.401 21.8164 501.25 21.5352C501.099 21.2487 500.867 21.0299 500.555 20.8789C500.247 20.7227 499.865 20.6445 499.406 20.6445H497.758V30.0273H495.414V18.7148ZM510.086 26.3633C509.878 26.3685 509.51 26.3893 508.984 26.4258L508.234 26.4883C507.823 26.5195 507.5 26.6315 507.266 26.8242C507.031 27.0117 506.914 27.2669 506.914 27.5898C506.914 27.7982 506.966 27.9753 507.07 28.1211C507.18 28.2669 507.331 28.3789 507.523 28.457C507.721 28.5352 507.943 28.5742 508.188 28.5742C508.536 28.5742 508.846 28.5065 509.117 28.3711C509.388 28.2305 509.599 28.0404 509.75 27.8008C509.901 27.556 509.977 27.2878 509.977 26.9961L509.961 24.2539C509.961 24.0143 509.909 23.8112 509.805 23.6445C509.706 23.4727 509.552 23.3451 509.344 23.2617C509.141 23.1732 508.898 23.1289 508.617 23.1289C508.227 23.1289 507.909 23.2122 507.664 23.3789C507.419 23.5404 507.266 23.7695 507.203 24.0664H505C505.052 23.5664 505.227 23.1185 505.523 22.7227C505.826 22.3216 506.242 22.0065 506.773 21.7773C507.31 21.5482 507.943 21.4336 508.672 21.4336C509.328 21.4336 509.927 21.5352 510.469 21.7383C511.01 21.9414 511.445 22.2591 511.773 22.6914C512.107 23.1185 512.273 23.6576 512.273 24.3086V30.0273H510.078V28.8555H510.016C509.875 29.1211 509.69 29.3529 509.461 29.5508C509.232 29.7487 508.956 29.9049 508.633 30.0195C508.315 30.1289 507.945 30.1836 507.523 30.1836C506.977 30.1836 506.492 30.0872 506.07 29.8945C505.648 29.7018 505.315 29.4154 505.07 29.0352C504.826 28.6549 504.703 28.1966 504.703 27.6602C504.703 26.7747 504.995 26.1315 505.578 25.7305C506.167 25.3294 506.927 25.1003 507.859 25.043C508.016 25.0273 508.497 25.0013 509.305 24.9648L510.07 24.9336L510.086 26.3633ZM518.875 24.0664C518.823 23.7539 518.674 23.5117 518.43 23.3398C518.185 23.168 517.87 23.082 517.484 23.082C517.234 23.082 517.01 23.1185 516.812 23.1914C516.615 23.2591 516.456 23.3607 516.336 23.4961C516.221 23.6263 516.164 23.7747 516.164 23.9414C516.159 24.1393 516.242 24.3112 516.414 24.457C516.591 24.6029 516.872 24.7148 517.258 24.793L518.789 25.1055C519.612 25.2721 520.224 25.5456 520.625 25.9258C521.031 26.3008 521.234 26.793 521.234 27.4023C521.234 27.9544 521.076 28.4414 520.758 28.8633C520.445 29.2799 520.005 29.6055 519.438 29.8398C518.875 30.0742 518.219 30.1914 517.469 30.1914C516.714 30.1914 516.06 30.0846 515.508 29.8711C514.961 29.6523 514.529 29.3451 514.211 28.9492C513.893 28.5482 513.703 28.0716 513.641 27.5195H515.961C516.029 27.8424 516.19 28.0898 516.445 28.2617C516.706 28.4284 517.049 28.5117 517.477 28.5117C517.753 28.5117 517.995 28.4779 518.203 28.4102C518.417 28.3424 518.581 28.2435 518.695 28.1133C518.815 27.9779 518.875 27.8216 518.875 27.6445C518.875 27.4154 518.781 27.2305 518.594 27.0898C518.411 26.9492 518.122 26.8398 517.727 26.7617L516.32 26.4805C515.508 26.319 514.893 26.0352 514.477 25.6289C514.065 25.2227 513.862 24.707 513.867 24.082C513.867 23.5404 514.013 23.0716 514.305 22.6758C514.596 22.2747 515.01 21.9674 515.547 21.7539C516.089 21.5404 516.724 21.4336 517.453 21.4336C518.161 21.4336 518.779 21.5404 519.305 21.7539C519.831 21.9674 520.242 22.2721 520.539 22.668C520.836 23.0638 521.003 23.5299 521.039 24.0664H518.875ZM527.5 24.0664C527.448 23.7539 527.299 23.5117 527.055 23.3398C526.81 23.168 526.495 23.082 526.109 23.082C525.859 23.082 525.635 23.1185 525.438 23.1914C525.24 23.2591 525.081 23.3607 524.961 23.4961C524.846 23.6263 524.789 23.7747 524.789 23.9414C524.784 24.1393 524.867 24.3112 525.039 24.457C525.216 24.6029 525.497 24.7148 525.883 24.793L527.414 25.1055C528.237 25.2721 528.849 25.5456 529.25 25.9258C529.656 26.3008 529.859 26.793 529.859 27.4023C529.859 27.9544 529.701 28.4414 529.383 28.8633C529.07 29.2799 528.63 29.6055 528.062 29.8398C527.5 30.0742 526.844 30.1914 526.094 30.1914C525.339 30.1914 524.685 30.0846 524.133 29.8711C523.586 29.6523 523.154 29.3451 522.836 28.9492C522.518 28.5482 522.328 28.0716 522.266 27.5195H524.586C524.654 27.8424 524.815 28.0898 525.07 28.2617C525.331 28.4284 525.674 28.5117 526.102 28.5117C526.378 28.5117 526.62 28.4779 526.828 28.4102C527.042 28.3424 527.206 28.2435 527.32 28.1133C527.44 27.9779 527.5 27.8216 527.5 27.6445C527.5 27.4154 527.406 27.2305 527.219 27.0898C527.036 26.9492 526.747 26.8398 526.352 26.7617L524.945 26.4805C524.133 26.319 523.518 26.0352 523.102 25.6289C522.69 25.2227 522.487 24.707 522.492 24.082C522.492 23.5404 522.638 23.0716 522.93 22.6758C523.221 22.2747 523.635 21.9674 524.172 21.7539C524.714 21.5404 525.349 21.4336 526.078 21.4336C526.786 21.4336 527.404 21.5404 527.93 21.7539C528.456 21.9674 528.867 22.2721 529.164 22.668C529.461 23.0638 529.628 23.5299 529.664 24.0664H527.5Z" fill="#5BC4BF"/>
<rect x="569.914" y="0.5" width="160" height="47" rx="17.5" fill="#5BC4BF"/>
<rect x="569.914" y="0.5" width="160" height="47" rx="17.5" stroke="#5BC4BF"/>
<path d="M609.328 27.4531H607.336V17.2344H609.328V27.4531ZM609.719 31.1953H599.805V29.5859H609.719V31.1953ZM601.82 30.2422H599.805V26.4297H601.82V30.2422ZM601.539 18.1328C602.263 18.1328 602.922 18.2865 603.516 18.5938C604.115 18.8958 604.583 19.3229 604.922 19.875C605.26 20.4219 605.43 21.0339 605.43 21.7109C605.43 22.4089 605.26 23.0312 604.922 23.5781C604.583 24.125 604.115 24.5547 603.516 24.8672C602.922 25.1745 602.263 25.3281 601.539 25.3281C600.815 25.3281 600.156 25.1745 599.562 24.8672C598.974 24.5547 598.508 24.125 598.164 23.5781C597.82 23.0312 597.648 22.4089 597.648 21.7109C597.648 21.0339 597.82 20.4219 598.164 19.875C598.508 19.3229 598.974 18.8958 599.562 18.5938C600.156 18.2865 600.815 18.1328 601.539 18.1328ZM601.539 19.8672C601.169 19.862 600.836 19.9349 600.539 20.0859C600.247 20.2318 600.016 20.4453 599.844 20.7266C599.677 21.0078 599.594 21.3359 599.594 21.7109C599.594 22.0964 599.677 22.4323 599.844 22.7188C600.016 23 600.247 23.2161 600.539 23.3672C600.836 23.513 601.169 23.5859 601.539 23.5859C601.904 23.5859 602.229 23.513 602.516 23.3672C602.807 23.2161 603.036 23 603.203 22.7188C603.37 22.4323 603.453 22.0964 603.453 21.7109C603.453 21.3359 603.37 21.0078 603.203 20.7266C603.036 20.4453 602.807 20.2318 602.516 20.0859C602.229 19.9349 601.904 19.862 601.539 19.8672ZM624.234 25.375H611.266V23.7734H624.234V25.375ZM617.727 26.1641C618.753 26.1641 619.638 26.2682 620.383 26.4766C621.128 26.6849 621.695 26.987 622.086 27.3828C622.482 27.7786 622.68 28.2526 622.68 28.8047C622.68 29.362 622.482 29.8385 622.086 30.2344C621.695 30.6302 621.128 30.9297 620.383 31.1328C619.643 31.3359 618.758 31.4375 617.727 31.4375C616.695 31.4375 615.805 31.3359 615.055 31.1328C614.31 30.9297 613.737 30.6302 613.336 30.2344C612.94 29.8385 612.742 29.362 612.742 28.8047C612.742 28.2526 612.943 27.7786 613.344 27.3828C613.745 26.987 614.318 26.6849 615.062 26.4766C615.812 26.2682 616.701 26.1641 617.727 26.1641ZM617.727 27.7109C617.065 27.7109 616.516 27.75 616.078 27.8281C615.641 27.9062 615.312 28.0286 615.094 28.1953C614.88 28.3568 614.773 28.5599 614.773 28.8047C614.773 29.0443 614.883 29.2448 615.102 29.4062C615.32 29.5677 615.646 29.6901 616.078 29.7734C616.51 29.8516 617.06 29.8906 617.727 29.8906C618.383 29.8906 618.927 29.8516 619.359 29.7734C619.797 29.6901 620.125 29.5677 620.344 29.4062C620.562 29.2448 620.672 29.0443 620.672 28.8047C620.672 28.5599 620.562 28.3568 620.344 28.1953C620.125 28.0286 619.797 27.9062 619.359 27.8281C618.927 27.75 618.383 27.7109 617.727 27.7109ZM618.133 19.0234C618.133 19.7474 617.917 20.4089 617.484 21.0078C617.052 21.6016 616.411 22.0964 615.562 22.4922C614.714 22.8828 613.69 23.1328 612.492 23.2422L611.836 21.6875C612.815 21.5938 613.646 21.4115 614.328 21.1406C615.016 20.8646 615.529 20.5417 615.867 20.1719C616.206 19.8021 616.375 19.4193 616.375 19.0234V18.6406H618.133V19.0234ZM619.102 19.0234C619.102 19.4193 619.268 19.8021 619.602 20.1719C619.94 20.5417 620.453 20.8646 621.141 21.1406C621.828 21.4115 622.674 21.5938 623.68 21.6875L622.977 23.2422C621.789 23.1328 620.771 22.8828 619.922 22.4922C619.073 22.0964 618.424 21.6016 617.977 21.0078C617.534 20.4089 617.312 19.7474 617.312 19.0234V18.6406H619.102V19.0234ZM623.062 19.4688H612.438V17.875H623.062V19.4688ZM629.609 25.6875C629.615 24.2604 629.823 22.9297 630.234 21.6953C630.651 20.4609 631.247 19.2969 632.023 18.2031H634.227C633.857 18.7396 633.503 19.4219 633.164 20.25C632.826 21.0729 632.549 21.9609 632.336 22.9141C632.128 23.8672 632.023 24.7917 632.023 25.6875C632.023 26.5833 632.128 27.5104 632.336 28.4688C632.549 29.4219 632.826 30.3099 633.164 31.1328C633.503 31.9557 633.857 32.6406 634.227 33.1875H632.023C631.253 32.0833 630.659 30.9141 630.242 29.6797C629.826 28.4401 629.615 27.1094 629.609 25.6875ZM635.562 18.6875H640.062C640.87 18.6875 641.555 18.8099 642.117 19.0547C642.68 19.2943 643.102 19.6328 643.383 20.0703C643.669 20.5026 643.812 21.0104 643.812 21.5938C643.812 22.0208 643.724 22.401 643.547 22.7344C643.375 23.0677 643.135 23.3438 642.828 23.5625C642.526 23.776 642.174 23.9271 641.773 24.0156V24.125C642.206 24.1458 642.612 24.2708 642.992 24.5C643.372 24.7292 643.677 25.0495 643.906 25.4609C644.135 25.8672 644.25 26.3411 644.25 26.8828C644.25 27.487 644.102 28.0234 643.805 28.4922C643.508 28.9609 643.065 29.3307 642.477 29.6016C641.893 29.8672 641.188 30 640.359 30H635.562V18.6875ZM639.883 28.0703C640.326 28.0703 640.69 28.013 640.977 27.8984C641.268 27.7786 641.482 27.6146 641.617 27.4062C641.753 27.1927 641.82 26.9401 641.82 26.6484C641.82 26.3359 641.745 26.0547 641.594 25.8047C641.443 25.5547 641.224 25.3646 640.938 25.2344C640.656 25.099 640.326 25.0312 639.945 25.0312H637.906V28.0703H639.883ZM639.711 23.4297C640.039 23.4297 640.333 23.3698 640.594 23.25C640.859 23.1302 641.065 22.9609 641.211 22.7422C641.362 22.5234 641.438 22.2656 641.438 21.9688C641.438 21.6875 641.372 21.4453 641.242 21.2422C641.112 21.0339 640.919 20.875 640.664 20.7656C640.414 20.651 640.112 20.5938 639.758 20.5938H637.906V23.4297H639.711ZM650.672 26.3359C650.464 26.3411 650.096 26.362 649.57 26.3984L648.82 26.4609C648.409 26.4922 648.086 26.6042 647.852 26.7969C647.617 26.9844 647.5 27.2396 647.5 27.5625C647.5 27.7708 647.552 27.9479 647.656 28.0938C647.766 28.2396 647.917 28.3516 648.109 28.4297C648.307 28.5078 648.529 28.5469 648.773 28.5469C649.122 28.5469 649.432 28.4792 649.703 28.3438C649.974 28.2031 650.185 28.013 650.336 27.7734C650.487 27.5286 650.562 27.2604 650.562 26.9688L650.547 24.2266C650.547 23.987 650.495 23.7839 650.391 23.6172C650.292 23.4453 650.138 23.3177 649.93 23.2344C649.727 23.1458 649.484 23.1016 649.203 23.1016C648.812 23.1016 648.495 23.1849 648.25 23.3516C648.005 23.513 647.852 23.7422 647.789 24.0391H645.586C645.638 23.5391 645.812 23.0911 646.109 22.6953C646.411 22.2943 646.828 21.9792 647.359 21.75C647.896 21.5208 648.529 21.4062 649.258 21.4062C649.914 21.4062 650.513 21.5078 651.055 21.7109C651.596 21.9141 652.031 22.2318 652.359 22.6641C652.693 23.0911 652.859 23.6302 652.859 24.2812V30H650.664V28.8281H650.602C650.461 29.0938 650.276 29.3255 650.047 29.5234C649.818 29.7214 649.542 29.8776 649.219 29.9922C648.901 30.1016 648.531 30.1562 648.109 30.1562C647.562 30.1562 647.078 30.0599 646.656 29.8672C646.234 29.6745 645.901 29.388 645.656 29.0078C645.411 28.6276 645.289 28.1693 645.289 27.6328C645.289 26.7474 645.581 26.1042 646.164 25.7031C646.753 25.3021 647.513 25.0729 648.445 25.0156C648.602 25 649.083 24.974 649.891 24.9375L650.656 24.9062L650.672 26.3359ZM657.742 30.1328C657.091 30.1328 656.503 29.9635 655.977 29.625C655.456 29.2865 655.044 28.7891 654.742 28.1328C654.445 27.4714 654.297 26.6823 654.297 25.7656C654.297 24.8281 654.451 24.0312 654.758 23.375C655.065 22.7188 655.477 22.2266 655.992 21.8984C656.513 21.5703 657.096 21.4062 657.742 21.4062C658.19 21.4062 658.576 21.4818 658.898 21.6328C659.221 21.7786 659.477 21.9609 659.664 22.1797C659.852 22.3984 660.013 22.651 660.148 22.9375H660.219V18.6875H662.531V30H660.258V28.6484H660.148C660.008 28.9297 659.841 29.1745 659.648 29.3828C659.461 29.5911 659.206 29.7682 658.883 29.9141C658.56 30.0599 658.18 30.1328 657.742 30.1328ZM658.461 28.2891C658.841 28.2891 659.167 28.1849 659.438 27.9766C659.714 27.7682 659.922 27.4714 660.062 27.0859C660.208 26.7005 660.281 26.2552 660.281 25.75C660.281 25.2396 660.211 24.7969 660.07 24.4219C659.93 24.0469 659.721 23.7604 659.445 23.5625C659.174 23.3594 658.846 23.2578 658.461 23.2578C658.076 23.2578 657.747 23.362 657.477 23.5703C657.206 23.7734 657 24.0625 656.859 24.4375C656.724 24.8125 656.656 25.25 656.656 25.75C656.656 26.25 656.724 26.6927 656.859 27.0781C657 27.4583 657.206 27.7552 657.477 27.9688C657.747 28.1823 658.076 28.2891 658.461 28.2891ZM668.203 33.3594C667.443 33.3594 666.773 33.25 666.195 33.0312C665.622 32.8125 665.172 32.5026 664.844 32.1016C664.521 31.7005 664.336 31.2318 664.289 30.6953H666.562C666.635 31.0286 666.818 31.276 667.109 31.4375C667.401 31.599 667.784 31.6797 668.258 31.6797C668.826 31.6797 669.266 31.5495 669.578 31.2891C669.896 31.0339 670.055 30.625 670.055 30.0625V28.5H669.953C669.828 28.7656 669.664 29 669.461 29.2031C669.263 29.401 669 29.5651 668.672 29.6953C668.344 29.8203 667.961 29.8828 667.523 29.8828C666.872 29.8828 666.286 29.7266 665.766 29.4141C665.245 29.1016 664.833 28.6328 664.531 28.0078C664.229 27.3828 664.078 26.6146 664.078 25.7031C664.078 24.776 664.232 23.9896 664.539 23.3438C664.846 22.6979 665.258 22.2135 665.773 21.8906C666.294 21.5677 666.878 21.4062 667.523 21.4062C667.971 21.4062 668.357 21.4818 668.68 21.6328C669.003 21.7786 669.255 21.9557 669.438 22.1641C669.62 22.3724 669.789 22.6302 669.945 22.9375H670.039V21.5156H672.336V30.0938C672.336 30.7917 672.161 31.3854 671.812 31.875C671.464 32.3698 670.979 32.7396 670.359 32.9844C669.74 33.2344 669.021 33.3594 668.203 33.3594ZM668.242 28.1328C668.622 28.1328 668.948 28.0365 669.219 27.8438C669.495 27.651 669.703 27.375 669.844 27.0156C669.99 26.6562 670.062 26.2266 670.062 25.7266C670.062 25.2214 669.99 24.7839 669.844 24.4141C669.703 24.0391 669.497 23.7526 669.227 23.5547C668.956 23.3568 668.628 23.2578 668.242 23.2578C667.857 23.2578 667.529 23.362 667.258 23.5703C666.987 23.7734 666.781 24.0625 666.641 24.4375C666.505 24.8073 666.438 25.237 666.438 25.7266C666.438 26.2161 666.505 26.6406 666.641 27C666.781 27.3594 666.987 27.638 667.258 27.8359C667.529 28.0339 667.857 28.1328 668.242 28.1328ZM677.984 30.1641C677.13 30.1641 676.385 29.987 675.75 29.6328C675.12 29.2786 674.633 28.7734 674.289 28.1172C673.951 27.4609 673.781 26.6901 673.781 25.8047C673.781 24.9297 673.951 24.1615 674.289 23.5C674.633 22.8333 675.115 22.3177 675.734 21.9531C676.354 21.5885 677.073 21.4062 677.891 21.4062C678.656 21.4062 679.339 21.5677 679.938 21.8906C680.536 22.2083 681.008 22.6901 681.352 23.3359C681.695 23.9818 681.867 24.7708 681.867 25.7031V26.3516H674.727V24.9062H679.688C679.688 24.5625 679.612 24.2578 679.461 23.9922C679.31 23.7214 679.102 23.5104 678.836 23.3594C678.57 23.2083 678.268 23.1328 677.93 23.1328C677.57 23.1328 677.25 23.2161 676.969 23.3828C676.688 23.5443 676.466 23.7682 676.305 24.0547C676.148 24.3411 676.068 24.6536 676.062 24.9922V26.3516C676.062 26.7734 676.143 27.1432 676.305 27.4609C676.466 27.7786 676.693 28.0208 676.984 28.1875C677.281 28.3542 677.625 28.4375 678.016 28.4375C678.276 28.4375 678.513 28.401 678.727 28.3281C678.94 28.25 679.12 28.151 679.266 28.0312C679.417 27.9062 679.531 27.7604 679.609 27.5938H681.812C681.703 28.1094 681.477 28.5625 681.133 28.9531C680.794 29.3385 680.354 29.638 679.812 29.8516C679.276 30.0599 678.667 30.1641 677.984 30.1641ZM690.367 21.5781H692.312V29.375H690.367V21.5781ZM687.438 24.5078H695.25V26.4531H687.438V24.5078ZM700.938 21.6953C701.354 22.9297 701.565 24.2604 701.57 25.6875C701.565 27.1094 701.354 28.4401 700.938 29.6797C700.521 30.9141 699.927 32.0833 699.156 33.1875H696.953C697.323 32.6406 697.677 31.9557 698.016 31.1328C698.354 30.3099 698.628 29.4219 698.836 28.4688C699.049 27.5104 699.156 26.5833 699.156 25.6875C699.156 24.7917 699.049 23.8672 698.836 22.9141C698.628 21.9609 698.354 21.0729 698.016 20.25C697.677 19.4219 697.323 18.7396 696.953 18.2031H699.156C699.932 19.2969 700.526 20.4609 700.938 21.6953Z" fill="white"/>
<rect x="584.634" y="165.93" width="136" height="47" rx="17.5" fill="white"/>
<rect x="584.634" y="165.93" width="136" height="47" rx="17.5" stroke="#5BC4BF"/>
<path d="M608.61 192.945H607.134V182.766H608.61V192.945ZM609.032 196.477H599.462V195.25H609.032V196.477ZM600.946 195.695H599.462V191.914H600.946V195.695ZM601.017 183.711C601.715 183.711 602.347 183.859 602.915 184.156C603.488 184.448 603.936 184.859 604.259 185.391C604.582 185.917 604.743 186.513 604.743 187.18C604.743 187.857 604.582 188.458 604.259 188.984C603.936 189.51 603.488 189.922 602.915 190.219C602.347 190.516 601.715 190.664 601.017 190.664C600.319 190.664 599.686 190.516 599.118 190.219C598.556 189.922 598.11 189.51 597.782 188.984C597.454 188.458 597.29 187.857 597.29 187.18C597.29 186.513 597.454 185.917 597.782 185.391C598.11 184.859 598.556 184.448 599.118 184.156C599.686 183.859 600.319 183.711 601.017 183.711ZM601.017 185.008C600.59 185.008 600.201 185.099 599.853 185.281C599.504 185.464 599.23 185.719 599.032 186.047C598.84 186.375 598.743 186.753 598.743 187.18C598.743 187.607 598.84 187.987 599.032 188.32C599.23 188.654 599.504 188.911 599.853 189.094C600.201 189.276 600.59 189.367 601.017 189.367C601.444 189.367 601.829 189.276 602.173 189.094C602.517 188.911 602.787 188.654 602.985 188.32C603.183 187.987 603.282 187.607 603.282 187.18C603.282 186.753 603.183 186.375 602.985 186.047C602.787 185.719 602.517 185.464 602.173 185.281C601.829 185.099 601.444 185.008 601.017 185.008ZM623.595 190.555H610.829V189.344H623.595V190.555ZM617.204 191.633C618.204 191.633 619.069 191.734 619.798 191.938C620.527 192.135 621.082 192.427 621.462 192.812C621.847 193.193 622.04 193.651 622.04 194.188C622.04 194.729 621.847 195.19 621.462 195.57C621.082 195.951 620.53 196.24 619.806 196.438C619.082 196.635 618.215 196.734 617.204 196.734C616.194 196.734 615.324 196.635 614.595 196.438C613.866 196.24 613.308 195.951 612.923 195.57C612.537 195.19 612.345 194.729 612.345 194.188C612.345 193.651 612.54 193.193 612.931 192.812C613.321 192.427 613.881 192.135 614.61 191.938C615.34 191.734 616.204 191.633 617.204 191.633ZM617.204 192.789C616.491 192.789 615.881 192.844 615.376 192.953C614.876 193.057 614.496 193.216 614.235 193.43C613.98 193.638 613.853 193.891 613.853 194.188C613.853 194.474 613.983 194.721 614.243 194.93C614.504 195.138 614.884 195.297 615.384 195.406C615.884 195.51 616.491 195.562 617.204 195.562C617.918 195.562 618.522 195.51 619.017 195.406C619.517 195.297 619.897 195.138 620.157 194.93C620.418 194.721 620.548 194.474 620.548 194.188C620.548 193.891 620.418 193.638 620.157 193.43C619.897 193.216 619.517 193.057 619.017 192.953C618.522 192.844 617.918 192.789 617.204 192.789ZM617.54 184.469C617.54 185.188 617.3 185.841 616.821 186.43C616.342 187.013 615.683 187.495 614.845 187.875C614.006 188.25 613.061 188.497 612.009 188.617L611.501 187.438C612.381 187.344 613.181 187.154 613.899 186.867C614.623 186.576 615.191 186.221 615.603 185.805C616.014 185.388 616.22 184.943 616.22 184.469V184.062H617.54V184.469ZM618.196 184.469C618.196 184.943 618.399 185.388 618.806 185.805C619.217 186.221 619.785 186.576 620.509 186.867C621.233 187.154 622.043 187.344 622.938 187.438L622.399 188.617C621.358 188.497 620.418 188.25 619.579 187.875C618.741 187.495 618.079 187.013 617.595 186.43C617.11 185.841 616.868 185.188 616.868 184.469V184.062H618.196V184.469ZM622.454 184.656H611.993V183.453H622.454V184.656ZM628.634 184.117H637.407V185.594H633.892V195.43H632.165V185.594H628.634V184.117ZM641.446 195.602C640.629 195.602 639.912 195.422 639.298 195.062C638.688 194.703 638.22 194.195 637.892 193.539C637.563 192.883 637.399 192.12 637.399 191.25C637.399 190.38 637.563 189.612 637.892 188.945C638.22 188.273 638.681 187.755 639.274 187.391C639.868 187.021 640.553 186.836 641.329 186.836C642.017 186.836 642.644 186.984 643.212 187.281C643.78 187.573 644.235 188.039 644.579 188.68C644.923 189.315 645.095 190.12 645.095 191.094V191.68H638.337V190.438H643.462C643.462 190.005 643.373 189.622 643.196 189.289C643.024 188.951 642.777 188.685 642.454 188.492C642.131 188.299 641.761 188.203 641.345 188.203C640.892 188.203 640.493 188.312 640.149 188.531C639.806 188.75 639.537 189.044 639.345 189.414C639.152 189.784 639.056 190.18 639.056 190.602V191.57C639.056 192.128 639.155 192.607 639.353 193.008C639.556 193.409 639.837 193.714 640.196 193.922C640.561 194.13 640.98 194.234 641.454 194.234C641.756 194.234 642.03 194.193 642.274 194.109C642.519 194.021 642.728 193.911 642.899 193.781C643.071 193.646 643.204 193.487 643.298 193.305H644.993C644.868 193.763 644.644 194.164 644.321 194.508C643.998 194.852 643.59 195.12 643.095 195.312C642.605 195.505 642.056 195.602 641.446 195.602ZM651.501 189.258C651.423 188.904 651.246 188.63 650.97 188.438C650.699 188.245 650.34 188.148 649.892 188.148C649.579 188.148 649.298 188.198 649.048 188.297C648.803 188.391 648.608 188.526 648.462 188.703C648.321 188.875 648.251 189.07 648.251 189.289C648.251 189.539 648.36 189.755 648.579 189.938C648.798 190.12 649.134 190.26 649.587 190.359L650.938 190.672C651.72 190.849 652.303 191.128 652.688 191.508C653.074 191.883 653.267 192.37 653.267 192.969C653.267 193.479 653.126 193.935 652.845 194.336C652.569 194.732 652.17 195.042 651.649 195.266C651.129 195.49 650.509 195.602 649.79 195.602C649.118 195.602 648.537 195.505 648.048 195.312C647.558 195.115 647.168 194.831 646.876 194.461C646.59 194.086 646.41 193.638 646.337 193.117H648.048C648.126 193.492 648.308 193.776 648.595 193.969C648.886 194.161 649.28 194.258 649.774 194.258C650.129 194.258 650.438 194.214 650.704 194.125C650.975 194.031 651.183 193.896 651.329 193.719C651.48 193.542 651.556 193.336 651.556 193.102C651.556 192.826 651.449 192.596 651.235 192.414C651.027 192.232 650.696 192.094 650.243 192L648.923 191.703C648.157 191.531 647.576 191.247 647.181 190.852C646.785 190.456 646.59 189.966 646.595 189.383C646.595 188.883 646.73 188.44 647.001 188.055C647.277 187.669 647.662 187.37 648.157 187.156C648.652 186.943 649.228 186.836 649.884 186.836C650.498 186.836 651.04 186.938 651.509 187.141C651.978 187.339 652.347 187.62 652.618 187.984C652.889 188.349 653.048 188.773 653.095 189.258H651.501ZM658.868 188.273H654.228V186.945H658.868V188.273ZM657.149 184.914V192.938C657.149 193.24 657.194 193.471 657.282 193.633C657.371 193.794 657.488 193.906 657.634 193.969C657.78 194.031 657.954 194.062 658.157 194.062C658.407 194.062 658.686 194.052 658.993 194.031V195.469C658.696 195.516 658.353 195.539 657.962 195.539C657.509 195.539 657.092 195.456 656.712 195.289C656.337 195.117 656.035 194.862 655.806 194.523C655.582 194.18 655.47 193.763 655.47 193.273V184.914H657.149ZM676.001 196.75H674.571V182.75H676.001V196.75ZM675.095 189.57H672.493V188.328H675.095V189.57ZM672.907 196.062H671.501V183.016H672.907V196.062ZM667.853 186.453C667.853 187.604 667.738 188.661 667.509 189.625C667.28 190.589 666.925 191.44 666.446 192.18C665.967 192.914 665.363 193.497 664.634 193.93L663.72 192.797C664.386 192.422 664.944 191.917 665.392 191.281C665.84 190.646 666.173 189.919 666.392 189.102C666.61 188.284 666.72 187.401 666.72 186.453V184.922H667.853V186.453ZM668.157 186.453C668.157 187.318 668.267 188.128 668.485 188.883C668.704 189.638 669.035 190.312 669.478 190.906C669.925 191.495 670.48 191.961 671.142 192.305L670.267 193.445C669.543 193.049 668.938 192.505 668.454 191.812C667.97 191.115 667.608 190.312 667.368 189.406C667.129 188.495 667.009 187.51 667.009 186.453V184.922H668.157V186.453ZM670.603 185.562H664.095V184.344H670.603V185.562ZM694.407 190.672H681.642V189.484H694.407V190.672ZM688.017 191.727C689.027 191.721 689.892 191.815 690.61 192.008C691.334 192.195 691.889 192.479 692.274 192.859C692.66 193.234 692.853 193.693 692.853 194.234C692.853 194.771 692.66 195.227 692.274 195.602C691.889 195.982 691.334 196.268 690.61 196.461C689.892 196.659 689.027 196.758 688.017 196.758C687.006 196.758 686.136 196.659 685.407 196.461C684.678 196.268 684.121 195.982 683.735 195.602C683.35 195.227 683.157 194.771 683.157 194.234C683.157 193.693 683.35 193.234 683.735 192.859C684.121 192.479 684.678 192.195 685.407 192.008C686.136 191.815 687.006 191.721 688.017 191.727ZM688.017 192.852C687.303 192.852 686.696 192.904 686.196 193.008C685.696 193.107 685.316 193.26 685.056 193.469C684.795 193.677 684.665 193.932 684.665 194.234C684.665 194.531 684.795 194.781 685.056 194.984C685.316 195.182 685.696 195.333 686.196 195.438C686.696 195.542 687.303 195.594 688.017 195.594C688.725 195.594 689.329 195.542 689.829 195.438C690.329 195.333 690.709 195.18 690.97 194.977C691.23 194.768 691.36 194.521 691.36 194.234C691.36 193.932 691.23 193.677 690.97 193.469C690.709 193.26 690.329 193.107 689.829 193.008C689.329 192.904 688.725 192.852 688.017 192.852ZM688.024 183.094C689.035 183.094 689.915 183.201 690.665 183.414C691.42 183.628 692.001 183.938 692.407 184.344C692.813 184.75 693.017 185.229 693.017 185.781C693.017 186.333 692.813 186.812 692.407 187.219C692.001 187.62 691.42 187.927 690.665 188.141C689.915 188.354 689.035 188.461 688.024 188.461C687.009 188.461 686.123 188.354 685.368 188.141C684.618 187.927 684.037 187.62 683.626 187.219C683.215 186.812 683.009 186.333 683.009 185.781C683.009 185.229 683.215 184.75 683.626 184.344C684.037 183.938 684.618 183.628 685.368 183.414C686.123 183.201 687.009 183.094 688.024 183.094ZM688.024 184.281C687.306 184.271 686.686 184.326 686.165 184.445C685.644 184.56 685.243 184.732 684.962 184.961C684.686 185.19 684.548 185.464 684.548 185.781C684.548 186.099 684.686 186.372 684.962 186.602C685.243 186.831 685.642 187.005 686.157 187.125C686.678 187.24 687.3 187.297 688.024 187.297C688.738 187.297 689.355 187.24 689.876 187.125C690.397 187.005 690.795 186.831 691.071 186.602C691.353 186.372 691.493 186.099 691.493 185.781C691.493 185.464 691.355 185.19 691.079 184.961C690.803 184.732 690.402 184.56 689.876 184.445C689.355 184.326 688.738 184.271 688.024 184.281ZM700.345 186.312C700.345 187.417 700.175 188.474 699.837 189.484C699.498 190.49 699.024 191.378 698.415 192.148C697.806 192.914 697.095 193.495 696.282 193.891L695.353 192.648C696.082 192.32 696.73 191.831 697.298 191.18C697.871 190.523 698.316 189.771 698.634 188.922C698.957 188.068 699.118 187.198 699.118 186.312V183.914H700.345V186.312ZM700.61 186.312C700.61 187.161 700.767 187.992 701.079 188.805C701.397 189.617 701.837 190.341 702.399 190.977C702.967 191.612 703.605 192.089 704.313 192.406L703.423 193.586C702.636 193.211 701.933 192.654 701.313 191.914C700.699 191.174 700.222 190.32 699.884 189.352C699.545 188.383 699.376 187.37 699.376 186.312V183.914H700.61V186.312ZM707.071 196.789H705.579V182.75H707.071V196.789Z" fill="#5BC4BF"/>
<rect x="584.634" y="223.93" width="136" height="47" rx="17.5" fill="white"/>
<rect x="584.634" y="223.93" width="136" height="47" rx="17.5" stroke="#5BC4BF"/>
<path d="M599.478 243.453H593.188V242.258H599.478V243.453ZM596.751 251.008H595.29V246.258H596.751V251.008ZM600.353 243.117C600.347 243.779 600.34 244.333 600.329 244.781C600.319 245.224 600.285 245.781 600.228 246.453C600.17 247.12 600.079 247.839 599.954 248.609L598.478 248.484C598.649 247.406 598.756 246.461 598.798 245.648C598.845 244.836 598.868 243.992 598.868 243.117V242.258H600.353V243.117ZM603.454 254.75H601.97V240.75H603.454V254.75ZM605.595 247.797H603.04V246.531H605.595V247.797ZM592.423 250.539C594.147 250.523 595.717 250.49 597.134 250.438C598.556 250.38 599.899 250.276 601.165 250.125L601.243 251.234C599.931 251.438 598.545 251.576 597.087 251.648C595.629 251.721 594.129 251.753 592.587 251.742L592.423 250.539ZM616.993 245.539H613.97V244.32H616.993V245.539ZM618.056 249.086H616.571V240.75H618.056V249.086ZM613.36 249.484C614.345 249.484 615.191 249.589 615.899 249.797C616.613 250.005 617.157 250.307 617.532 250.703C617.912 251.094 618.103 251.565 618.103 252.117C618.103 252.669 617.912 253.141 617.532 253.531C617.157 253.927 616.613 254.229 615.899 254.438C615.191 254.646 614.345 254.753 613.36 254.758C612.386 254.753 611.545 254.646 610.837 254.438C610.129 254.229 609.584 253.927 609.204 253.531C608.824 253.141 608.634 252.669 608.634 252.117C608.634 251.565 608.824 251.094 609.204 250.703C609.584 250.307 610.129 250.005 610.837 249.797C611.545 249.589 612.386 249.484 613.36 249.484ZM613.36 250.625C612.688 250.625 612.105 250.685 611.61 250.805C611.121 250.919 610.746 251.089 610.485 251.312C610.23 251.536 610.103 251.805 610.103 252.117C610.103 252.419 610.23 252.682 610.485 252.906C610.746 253.13 611.121 253.302 611.61 253.422C612.105 253.536 612.688 253.594 613.36 253.594C614.048 253.594 614.634 253.536 615.118 253.422C615.608 253.302 615.98 253.13 616.235 252.906C616.496 252.682 616.626 252.419 616.626 252.117C616.626 251.805 616.496 251.536 616.235 251.312C615.98 251.089 615.608 250.919 615.118 250.805C614.634 250.685 614.048 250.625 613.36 250.625ZM611.11 243.25C611.11 244.109 610.949 244.922 610.626 245.688C610.308 246.453 609.853 247.125 609.259 247.703C608.665 248.276 607.97 248.711 607.173 249.008L606.399 247.82C607.108 247.57 607.725 247.208 608.251 246.734C608.782 246.26 609.188 245.721 609.47 245.117C609.751 244.508 609.892 243.885 609.892 243.25V242.164H611.11V243.25ZM611.392 243.234C611.392 243.823 611.527 244.396 611.798 244.953C612.069 245.505 612.459 246 612.97 246.438C613.48 246.87 614.079 247.206 614.767 247.445L614.009 248.625C613.222 248.349 612.543 247.94 611.97 247.398C611.397 246.857 610.957 246.227 610.649 245.508C610.342 244.784 610.188 244.026 610.188 243.234V242.164H611.392V243.234ZM614.407 242.938H606.845V241.711H614.407V242.938ZM631.04 241.984C631.04 242.849 630.785 243.646 630.274 244.375C629.764 245.104 629.071 245.711 628.196 246.195C627.326 246.674 626.368 246.997 625.321 247.164L624.728 245.969C625.634 245.849 626.47 245.591 627.235 245.195C628.001 244.799 628.608 244.32 629.056 243.758C629.509 243.195 629.735 242.604 629.735 241.984V241.227H631.04V241.984ZM631.274 241.984C631.274 242.599 631.501 243.19 631.954 243.758C632.412 244.32 633.027 244.799 633.798 245.195C634.574 245.591 635.41 245.849 636.306 245.969L635.72 247.164C634.668 246.997 633.707 246.672 632.837 246.188C631.967 245.703 631.274 245.096 630.759 244.367C630.243 243.638 629.985 242.844 629.985 241.984V241.227H631.274V241.984ZM631.204 254.75H629.743V249.477H631.204V254.75ZM636.884 249.781H624.118V248.547H636.884V249.781ZM642.892 252.359H641.438V248.938H642.892V252.359ZM647.399 252.336H645.946V248.914H647.399V252.336ZM650.759 253.078H637.946V251.852H650.759V253.078ZM649.188 246.117H640.985V248.805H639.509V244.914H647.728V242.961H639.485V241.75H649.188V246.117ZM649.517 249.359H639.509V248.148H649.517V249.359ZM656.524 249.117C656.535 247.669 656.735 246.328 657.126 245.094C657.517 243.854 658.084 242.701 658.829 241.633H660.36C660.001 242.159 659.66 242.836 659.337 243.664C659.014 244.492 658.754 245.385 658.556 246.344C658.358 247.297 658.259 248.221 658.259 249.117C658.259 250.013 658.358 250.943 658.556 251.906C658.754 252.865 659.014 253.755 659.337 254.578C659.66 255.406 660.001 256.086 660.36 256.617H658.829C658.09 255.534 657.522 254.372 657.126 253.133C656.735 251.893 656.535 250.555 656.524 249.117ZM662.04 242.117H666.181C666.967 242.117 667.626 242.245 668.157 242.5C668.694 242.755 669.095 243.107 669.36 243.555C669.626 243.997 669.759 244.508 669.759 245.086C669.759 245.534 669.675 245.922 669.509 246.25C669.342 246.573 669.116 246.836 668.829 247.039C668.543 247.237 668.215 247.383 667.845 247.477V247.586C668.235 247.607 668.61 247.732 668.97 247.961C669.334 248.19 669.631 248.513 669.86 248.93C670.09 249.341 670.204 249.828 670.204 250.391C670.204 250.979 670.066 251.503 669.79 251.961C669.514 252.414 669.09 252.773 668.517 253.039C667.944 253.299 667.23 253.43 666.376 253.43H662.04V242.117ZM666.204 251.953C666.735 251.953 667.17 251.883 667.509 251.742C667.847 251.596 668.095 251.401 668.251 251.156C668.407 250.911 668.485 250.628 668.485 250.305C668.485 249.94 668.397 249.607 668.22 249.305C668.043 249.003 667.785 248.768 667.446 248.602C667.108 248.43 666.72 248.344 666.282 248.344H663.759V251.953H666.204ZM666.032 247C666.412 247 666.756 246.927 667.063 246.781C667.376 246.63 667.621 246.422 667.798 246.156C667.98 245.891 668.071 245.578 668.071 245.219C668.071 244.896 667.998 244.612 667.853 244.367C667.707 244.122 667.483 243.932 667.181 243.797C666.884 243.656 666.517 243.586 666.079 243.586H663.759V247H666.032ZM677.024 249.586C676.889 249.586 676.465 249.612 675.751 249.664L674.907 249.727C674.345 249.768 673.907 249.898 673.595 250.117C673.287 250.336 673.134 250.648 673.134 251.055C673.134 251.32 673.201 251.544 673.337 251.727C673.472 251.904 673.662 252.042 673.907 252.141C674.152 252.234 674.431 252.281 674.743 252.281C675.186 252.281 675.569 252.195 675.892 252.023C676.22 251.846 676.472 251.612 676.649 251.32C676.826 251.023 676.915 250.706 676.915 250.367L676.907 247.695C676.907 247.372 676.842 247.099 676.712 246.875C676.587 246.646 676.394 246.474 676.134 246.359C675.873 246.24 675.556 246.18 675.181 246.18C674.707 246.18 674.319 246.279 674.017 246.477C673.72 246.669 673.527 246.93 673.438 247.258H671.767C671.824 246.784 672.001 246.365 672.298 246C672.595 245.635 672.996 245.352 673.501 245.148C674.006 244.94 674.584 244.836 675.235 244.836C675.782 244.836 676.3 244.919 676.79 245.086C677.285 245.247 677.704 245.549 678.048 245.992C678.392 246.43 678.563 247.031 678.563 247.797V253.43H676.946V252.266H676.884C676.769 252.5 676.603 252.719 676.384 252.922C676.165 253.125 675.884 253.292 675.54 253.422C675.201 253.552 674.811 253.617 674.368 253.617C673.821 253.617 673.332 253.516 672.899 253.312C672.467 253.109 672.126 252.812 671.876 252.422C671.626 252.031 671.501 251.57 671.501 251.039C671.501 250.154 671.798 249.523 672.392 249.148C672.991 248.773 673.751 248.557 674.673 248.5C674.798 248.484 675.293 248.453 676.157 248.406L677.009 248.375L677.024 249.586ZM683.767 253.586C683.084 253.586 682.472 253.411 681.931 253.062C681.394 252.708 680.972 252.201 680.665 251.539C680.363 250.872 680.212 250.094 680.212 249.203C680.212 248.302 680.366 247.523 680.673 246.867C680.98 246.206 681.402 245.703 681.938 245.359C682.48 245.01 683.095 244.836 683.782 244.836C684.261 244.836 684.665 244.914 684.993 245.07C685.321 245.227 685.569 245.404 685.735 245.602C685.902 245.799 686.063 246.036 686.22 246.312H686.306V242.117H687.978V253.43H686.345V252.117H686.22C686.053 252.388 685.886 252.622 685.72 252.82C685.553 253.013 685.306 253.19 684.978 253.352C684.649 253.508 684.246 253.586 683.767 253.586ZM684.134 252.172C684.603 252.172 685.004 252.047 685.337 251.797C685.67 251.547 685.923 251.198 686.095 250.75C686.267 250.297 686.353 249.773 686.353 249.18C686.353 248.586 686.269 248.07 686.103 247.633C685.936 247.195 685.683 246.857 685.345 246.617C685.011 246.378 684.608 246.258 684.134 246.258C683.66 246.258 683.256 246.383 682.923 246.633C682.59 246.878 682.337 247.221 682.165 247.664C681.993 248.107 681.907 248.612 681.907 249.18C681.907 249.758 681.993 250.273 682.165 250.727C682.337 251.174 682.59 251.529 682.923 251.789C683.256 252.044 683.66 252.172 684.134 252.172ZM693.712 256.789C693.009 256.789 692.386 256.688 691.845 256.484C691.303 256.286 690.873 255.997 690.556 255.617C690.243 255.237 690.063 254.784 690.017 254.258H691.712C691.795 254.654 692.011 254.951 692.36 255.148C692.715 255.346 693.173 255.445 693.735 255.445C694.423 255.445 694.954 255.292 695.329 254.984C695.704 254.677 695.892 254.201 695.892 253.555V251.891H695.79C695.649 252.146 695.491 252.372 695.313 252.57C695.136 252.763 694.881 252.935 694.548 253.086C694.215 253.232 693.808 253.305 693.329 253.305C692.657 253.305 692.05 253.141 691.509 252.812C690.972 252.484 690.548 252.003 690.235 251.367C689.928 250.732 689.774 249.974 689.774 249.094C689.774 248.214 689.928 247.453 690.235 246.812C690.543 246.167 690.965 245.677 691.501 245.344C692.043 245.005 692.657 244.836 693.345 244.836C693.824 244.836 694.228 244.914 694.556 245.07C694.884 245.227 695.126 245.396 695.282 245.578C695.438 245.76 695.613 246.005 695.806 246.312H695.907V244.945H697.548V253.617C697.548 254.315 697.384 254.901 697.056 255.375C696.728 255.854 696.277 256.208 695.704 256.438C695.131 256.672 694.467 256.789 693.712 256.789ZM693.696 251.922C694.165 251.922 694.566 251.81 694.899 251.586C695.233 251.362 695.485 251.044 695.657 250.633C695.829 250.216 695.915 249.716 695.915 249.133C695.915 248.555 695.829 248.049 695.657 247.617C695.485 247.18 695.233 246.844 694.899 246.609C694.571 246.375 694.17 246.258 693.696 246.258C693.222 246.258 692.819 246.383 692.485 246.633C692.152 246.878 691.899 247.219 691.728 247.656C691.556 248.089 691.47 248.581 691.47 249.133C691.47 249.69 691.556 250.18 691.728 250.602C691.899 251.018 692.152 251.344 692.485 251.578C692.819 251.807 693.222 251.922 693.696 251.922ZM703.235 253.602C702.418 253.602 701.701 253.422 701.087 253.062C700.478 252.703 700.009 252.195 699.681 251.539C699.353 250.883 699.188 250.12 699.188 249.25C699.188 248.38 699.353 247.612 699.681 246.945C700.009 246.273 700.47 245.755 701.063 245.391C701.657 245.021 702.342 244.836 703.118 244.836C703.806 244.836 704.433 244.984 705.001 245.281C705.569 245.573 706.024 246.039 706.368 246.68C706.712 247.315 706.884 248.12 706.884 249.094V249.68H700.126V248.438H705.251C705.251 248.005 705.162 247.622 704.985 247.289C704.813 246.951 704.566 246.685 704.243 246.492C703.92 246.299 703.55 246.203 703.134 246.203C702.681 246.203 702.282 246.312 701.938 246.531C701.595 246.75 701.326 247.044 701.134 247.414C700.941 247.784 700.845 248.18 700.845 248.602V249.57C700.845 250.128 700.944 250.607 701.142 251.008C701.345 251.409 701.626 251.714 701.985 251.922C702.35 252.13 702.769 252.234 703.243 252.234C703.545 252.234 703.819 252.193 704.063 252.109C704.308 252.021 704.517 251.911 704.688 251.781C704.86 251.646 704.993 251.487 705.087 251.305H706.782C706.657 251.763 706.433 252.164 706.11 252.508C705.787 252.852 705.379 253.12 704.884 253.312C704.394 253.505 703.845 253.602 703.235 253.602ZM711.267 245.094C711.657 246.328 711.858 247.669 711.868 249.117C711.858 250.555 711.655 251.893 711.259 253.133C710.868 254.372 710.303 255.534 709.563 256.617H708.032C708.392 256.086 708.733 255.406 709.056 254.578C709.379 253.755 709.639 252.865 709.837 251.906C710.035 250.943 710.134 250.013 710.134 249.117C710.134 248.221 710.035 247.297 709.837 246.344C709.639 245.385 709.379 244.492 709.056 243.664C708.733 242.836 708.392 242.159 708.032 241.633H709.563C710.308 242.701 710.876 243.854 711.267 245.094Z" fill="#5BC4BF"/>
<rect x="482.914" y="193.843" width="59" height="47" rx="17.5" fill="white"/>
<rect x="482.914" y="193.843" width="59" height="47" rx="17.5" stroke="#5BC4BF"/>
<path d="M501.086 212.03H508.109V213.507H502.805V216.944H507.602V218.413H502.805V223.343H501.086V212.03ZM514.961 219.499C514.826 219.499 514.401 219.525 513.688 219.577L512.844 219.64C512.281 219.681 511.844 219.812 511.531 220.03C511.224 220.249 511.07 220.562 511.07 220.968C511.07 221.233 511.138 221.457 511.273 221.64C511.409 221.817 511.599 221.955 511.844 222.054C512.089 222.147 512.367 222.194 512.68 222.194C513.122 222.194 513.505 222.108 513.828 221.937C514.156 221.759 514.409 221.525 514.586 221.233C514.763 220.937 514.852 220.619 514.852 220.28L514.844 217.608C514.844 217.285 514.779 217.012 514.648 216.788C514.523 216.559 514.331 216.387 514.07 216.272C513.81 216.153 513.492 216.093 513.117 216.093C512.643 216.093 512.255 216.192 511.953 216.39C511.656 216.582 511.464 216.843 511.375 217.171H509.703C509.76 216.697 509.938 216.278 510.234 215.913C510.531 215.549 510.932 215.265 511.438 215.062C511.943 214.853 512.521 214.749 513.172 214.749C513.719 214.749 514.237 214.832 514.727 214.999C515.221 215.16 515.641 215.463 515.984 215.905C516.328 216.343 516.5 216.944 516.5 217.71V223.343H514.883V222.179H514.82C514.706 222.413 514.539 222.632 514.32 222.835C514.102 223.038 513.82 223.205 513.477 223.335C513.138 223.465 512.747 223.53 512.305 223.53C511.758 223.53 511.268 223.429 510.836 223.226C510.404 223.022 510.062 222.726 509.812 222.335C509.562 221.944 509.438 221.483 509.438 220.952C509.438 220.067 509.734 219.437 510.328 219.062C510.927 218.687 511.688 218.47 512.609 218.413C512.734 218.397 513.229 218.366 514.094 218.319L514.945 218.288L514.961 219.499ZM518.531 214.858H520.195V223.343H518.531V214.858ZM519.359 213.546C519.172 213.546 518.997 213.504 518.836 213.421C518.674 213.332 518.547 213.213 518.453 213.062C518.359 212.905 518.312 212.739 518.312 212.562C518.312 212.379 518.359 212.215 518.453 212.069C518.547 211.918 518.674 211.799 518.836 211.71C518.997 211.621 519.172 211.577 519.359 211.577C519.557 211.577 519.737 211.621 519.898 211.71C520.06 211.799 520.185 211.918 520.273 212.069C520.367 212.215 520.414 212.379 520.414 212.562C520.414 212.739 520.367 212.905 520.273 213.062C520.185 213.213 520.06 213.332 519.898 213.421C519.737 213.504 519.557 213.546 519.359 213.546ZM523.898 223.343H522.234V212.03H523.898V223.343Z" fill="#5BC4BF"/>
<path d="M562.76 23.1613C563.426 23.5462 563.426 24.5085 562.76 24.8934L559.76 26.6254C559.093 27.0103 558.26 26.5292 558.26 25.7594L558.26 22.2953C558.26 21.5255 559.093 21.0444 559.76 21.4293L562.76 23.1613Z" fill="#5BC4BF"/>
<path d="M575.78 188.187H558.552V246.5H575.78" stroke="#5BC4BF" stroke-width="0.5"/>
<path d="M577.76 187.32C578.426 187.705 578.426 188.668 577.76 189.053L574.76 190.785C574.093 191.17 573.26 190.688 573.26 189.919L573.26 186.454C573.26 185.685 574.093 185.204 574.76 185.588L577.76 187.32Z" fill="#5BC4BF"/>
<path d="M577.76 245.722C578.426 246.107 578.426 247.069 577.76 247.454L574.76 249.186C574.093 249.571 573.26 249.09 573.26 248.32L573.26 244.856C573.26 244.086 574.093 243.605 574.76 243.99L577.76 245.722Z" fill="#5BC4BF"/>
<path d="M171.903 125.072L202.766 125.072" stroke="#5BC4BF" stroke-width="0.5"/>
<path d="M206.854 124.205C207.523 124.59 207.523 125.555 206.854 125.939L203.832 127.676C203.165 128.059 202.334 127.577 202.334 126.809L202.334 123.336C202.334 122.567 203.165 122.086 203.832 122.469L206.854 124.205Z" fill="#5BC4BF"/>
<defs>
<filter id="filter0_d_371_822" x="0" y="14.7148" width="201" height="222" filterUnits="userSpaceOnUse" color-interpolation-filters="sRGB">
<feFlood flood-opacity="0" result="BackgroundImageFix"/>
<feColorMatrix in="SourceAlpha" type="matrix" values="0 0 0 0 0 0 0 0 0 0 0 0 0 0 0 0 0 0 127 0" result="hardAlpha"/>
<feOffset/>
<feGaussianBlur stdDeviation="15"/>
<feComposite in2="hardAlpha" operator="out"/>
<feColorMatrix type="matrix" values="0 0 0 0 0.356863 0 0 0 0 0.768627 0 0 0 0 0.74902 0 0 0 0.1 0"/>
<feBlend mode="normal" in2="BackgroundImageFix" result="effect1_dropShadow_371_822"/>
<feBlend mode="normal" in="SourceGraphic" in2="effect1_dropShadow_371_822" result="shape"/>
</filter>
<filter id="filter1_d_371_822" x="181" y="16.2148" width="207" height="219" filterUnits="userSpaceOnUse" color-interpolation-filters="sRGB">
<feFlood flood-opacity="0" result="BackgroundImageFix"/>
<feColorMatrix in="SourceAlpha" type="matrix" values="0 0 0 0 0 0 0 0 0 0 0 0 0 0 0 0 0 0 127 0" result="hardAlpha"/>
<feOffset/>
<feGaussianBlur stdDeviation="15"/>
<feComposite in2="hardAlpha" operator="out"/>
<feColorMatrix type="matrix" values="0 0 0 0 0.356863 0 0 0 0 0.768627 0 0 0 0 0.74902 0 0 0 0.1 0"/>
<feBlend mode="normal" in2="BackgroundImageFix" result="effect1_dropShadow_371_822"/>
<feBlend mode="normal" in="SourceGraphic" in2="effect1_dropShadow_371_822" result="shape"/>
</filter>
</defs>
</svg>
