<svg width="727" height="242" viewBox="0 0 727 242" fill="none" xmlns="http://www.w3.org/2000/svg">
<g filter="url(#filter0_d_371_821)">
<rect x="30" y="36" width="147" height="126" rx="24" fill="white" shape-rendering="crispEdges"/>
<rect x="30.25" y="36.25" width="146.5" height="125.5" rx="23.75" stroke="#5BC4BF" stroke-width="0.5" shape-rendering="crispEdges"/>
<path d="M56.1074 101.982C57.5731 101.982 58.8372 102.128 59.8998 102.421C60.9698 102.715 61.7942 103.147 62.3732 103.719C62.9594 104.283 63.2526 104.964 63.2526 105.763C63.2526 106.54 62.9594 107.211 62.3732 107.775C61.7942 108.339 60.9661 108.771 59.8889 109.072C58.8189 109.372 57.5584 109.523 56.1074 109.523C54.6711 109.523 53.4179 109.372 52.348 109.072C51.2781 108.771 50.45 108.339 49.8637 107.775C49.2774 107.211 48.9843 106.54 48.9843 105.763C48.9843 104.972 49.2738 104.29 49.8527 103.719C50.4316 103.147 51.2561 102.715 52.326 102.421C53.4033 102.128 54.6638 101.982 56.1074 101.982ZM56.1074 104.059C55.1841 104.059 54.3999 104.125 53.755 104.257C53.1175 104.382 52.6265 104.572 52.2821 104.829C51.9449 105.078 51.7764 105.389 51.7764 105.763C51.7764 106.122 51.9449 106.423 52.2821 106.665C52.6265 106.906 53.1175 107.09 53.755 107.214C54.3999 107.331 55.1841 107.39 56.1074 107.39C57.0381 107.39 57.8259 107.331 58.4708 107.214C59.1157 107.09 59.6067 106.903 59.9438 106.654C60.2882 106.404 60.4605 106.108 60.4605 105.763C60.4605 105.389 60.2882 105.078 59.9438 104.829C59.6067 104.572 59.1157 104.382 58.4708 104.257C57.8259 104.125 57.0381 104.059 56.1074 104.059ZM61.9554 92.6162H49.1822V90.4067H61.9554V92.6162ZM65.3082 100.718H47.1376V98.4532H65.3082V100.718ZM56.723 99.0578H53.9419V94.9466H56.723V99.0578ZM63.1536 92.0446C63.1536 93.1291 63.1206 94.0672 63.0547 94.8586C62.9961 95.6428 62.8385 96.4929 62.582 97.4089L59.8229 97.1341C60.0574 96.2107 60.2003 95.3936 60.2516 94.6828C60.3102 93.9719 60.3432 93.0925 60.3505 92.0446V90.4067H63.1536V92.0446ZM84.1335 102.026H65.8419V99.8272H84.1335V102.026ZM76.3728 100.641H73.5587V97.6287H76.3728V100.641ZM82.1548 98.5961H68.1284V96.4416H82.1548V98.5961ZM82.0009 92.1655H70.9315V97.6507H68.1284V90H82.0009V92.1655ZM81.5172 95.3093H70.129V93.2757H81.5172V95.3093ZM74.9767 102.938C76.4497 102.923 77.7028 103.048 78.7361 103.312C79.7768 103.568 80.5719 103.946 81.1215 104.444C81.6711 104.935 81.9459 105.529 81.9459 106.225C81.9459 106.936 81.6711 107.537 81.1215 108.028C80.5719 108.526 79.7804 108.9 78.7471 109.149C77.7138 109.398 76.457 109.523 74.9767 109.523C73.4891 109.523 72.2213 109.398 71.1733 109.149C70.1254 108.9 69.3266 108.526 68.7769 108.028C68.2346 107.537 67.9635 106.936 67.9635 106.225C67.9635 105.521 68.2383 104.924 68.7879 104.433C69.3376 103.942 70.1363 103.568 71.1843 103.312C72.2323 103.048 73.4964 102.923 74.9767 102.938ZM74.9767 105.016C73.9947 105.016 73.1996 105.06 72.5913 105.148C71.9831 105.228 71.5287 105.356 71.2283 105.532C70.9278 105.708 70.7776 105.939 70.7776 106.225C70.7776 106.503 70.9241 106.734 71.2173 106.917C71.5177 107.101 71.9794 107.236 72.6023 107.324C73.2252 107.405 74.0167 107.445 74.9767 107.445C75.9221 107.445 76.6989 107.405 77.3071 107.324C77.9154 107.236 78.3697 107.101 78.6702 106.917C78.9706 106.734 79.1209 106.503 79.1209 106.225C79.1209 105.939 78.9706 105.708 78.6702 105.532C78.3771 105.356 77.9264 105.228 77.3181 105.148C76.7099 105.06 75.9294 105.016 74.9767 105.016ZM91.9003 92.5172C91.9003 93.7337 91.6805 94.8733 91.2408 95.9359C90.8084 96.9912 90.1598 97.9109 89.2951 98.695C88.4377 99.4791 87.3897 100.065 86.1512 100.454L84.7112 98.2553C85.7885 97.9475 86.6935 97.5005 87.4264 96.9142C88.1665 96.3206 88.7125 95.6464 89.0642 94.8916C89.4233 94.1295 89.6029 93.338 89.6029 92.5172V91.2311H91.9003V92.5172ZM92.4499 92.5172C92.4499 93.2867 92.6258 94.0305 92.9776 94.7487C93.3293 95.4669 93.8643 96.1045 94.5825 96.6614C95.308 97.211 96.1947 97.6324 97.2427 97.9255L95.8466 100.124C94.6155 99.765 93.5712 99.2117 92.7138 98.4642C91.8637 97.7094 91.2261 96.8226 90.8011 95.804C90.376 94.7854 90.1635 93.6898 90.1635 92.5172V91.2311H92.4499V92.5172ZM96.4842 92.847H85.4807V90.6155H96.4842V92.847ZM101.398 100.377H98.5947V89.4943H101.398V100.377ZM90.7901 103.081H98.6057V101.201H101.398V109.303H88.031V101.201H90.7901V103.081ZM98.6057 107.049V105.247H90.7901V107.049H98.6057ZM119.311 101.234H116.508V89.4943H119.311V101.234ZM122.015 96.6724H118.19V94.342H122.015V96.6724ZM109.011 103.521H116.508V101.993H119.311V109.303H106.208V101.993H109.011V103.521ZM116.508 107.093V105.675H109.011V107.093H116.508ZM115.309 93.4846H103.427V91.2751H115.309V93.4846ZM109.385 94.0342C110.345 94.0342 111.195 94.1844 111.935 94.4849C112.682 94.778 113.265 95.1957 113.683 95.738C114.1 96.273 114.309 96.8886 114.309 97.5848C114.309 98.281 114.1 98.8965 113.683 99.4315C113.265 99.9592 112.682 100.373 111.935 100.674C111.195 100.974 110.345 101.124 109.385 101.124C108.41 101.124 107.545 100.974 106.79 100.674C106.043 100.373 105.46 99.9592 105.042 99.4315C104.625 98.9039 104.416 98.2883 104.416 97.5848C104.416 96.8739 104.625 96.2547 105.042 95.727C105.46 95.1921 106.043 94.778 106.79 94.4849C107.545 94.1844 108.41 94.0342 109.385 94.0342ZM109.385 96.1118C108.938 96.0971 108.542 96.1484 108.197 96.2657C107.86 96.3829 107.6 96.5551 107.417 96.7823C107.234 97.0095 107.142 97.277 107.142 97.5848C107.142 97.8926 107.234 98.16 107.417 98.3872C107.6 98.6144 107.86 98.7866 108.197 98.9039C108.534 99.0138 108.93 99.0688 109.385 99.0688C109.832 99.0688 110.224 99.0138 110.561 98.9039C110.905 98.7866 111.173 98.6144 111.363 98.3872C111.554 98.16 111.649 97.8926 111.649 97.5848C111.649 97.277 111.55 97.0095 111.352 96.7823C111.162 96.5551 110.898 96.3829 110.561 96.2657C110.224 96.1484 109.832 96.0971 109.385 96.1118ZM110.781 92.5172H107.977V89.3734H110.781V92.5172ZM136.784 93.4626H124.022V91.2421H136.784V93.4626ZM140.477 107.071H122.23V104.796H140.477V107.071ZM128.902 105.543H126.099V98.5081H128.902V105.543ZM138.807 93.1988C138.807 94.3127 138.796 95.28 138.774 96.1008C138.752 96.9216 138.686 97.8706 138.576 98.9478C138.466 100.018 138.297 101.179 138.07 102.432L135.311 102.169C135.531 100.989 135.688 99.8785 135.784 98.8379C135.886 97.79 135.949 96.8593 135.971 96.0458C135.993 95.2324 136.004 94.2834 136.004 93.1988V91.2421H138.807V93.1988ZM133.871 105.543H131.112V98.5081H133.871V105.543ZM148.134 103.905H145.32V99.9262H148.134V103.905ZM154.84 103.872H152.07V99.9262H154.84V103.872ZM159.259 101.08H141.011V98.8709H159.259V101.08ZM157.027 109.523H154.235V105.137H143.023V102.949H157.027V109.523ZM150.124 89.912C151.59 89.9047 152.868 90.0586 153.96 90.3737C155.06 90.6888 155.906 91.1432 156.5 91.7368C157.093 92.323 157.39 93.0229 157.39 93.8363C157.39 94.6424 157.093 95.346 156.5 95.9469C155.906 96.5478 155.06 97.0058 153.96 97.321C152.868 97.6361 151.59 97.7936 150.124 97.7936C148.658 97.7936 147.376 97.6361 146.277 97.321C145.177 97.0058 144.327 96.5478 143.726 95.9469C143.125 95.346 142.825 94.6424 142.825 93.8363C142.825 93.0229 143.125 92.323 143.726 91.7368C144.327 91.1432 145.177 90.6888 146.277 90.3737C147.376 90.0586 148.658 89.9047 150.124 89.912ZM150.124 92.0885C149.193 92.0812 148.398 92.1435 147.739 92.2754C147.086 92.4073 146.588 92.6052 146.244 92.869C145.907 93.1328 145.738 93.4553 145.738 93.8363C145.738 94.2247 145.907 94.5545 146.244 94.8257C146.588 95.0895 147.086 95.291 147.739 95.4302C148.398 95.5695 149.193 95.6391 150.124 95.6391C151.062 95.6391 151.854 95.5695 152.498 95.4302C153.143 95.291 153.638 95.0858 153.982 94.8147C154.327 94.5435 154.499 94.2174 154.499 93.8363C154.499 93.4553 154.327 93.1328 153.982 92.869C153.638 92.6052 153.14 92.4073 152.487 92.2754C151.835 92.1435 151.047 92.0812 150.124 92.0885Z" fill="#5BC4BF"/>
</g>
<g filter="url(#filter1_d_371_821)">
<rect x="207.281" y="36.2734" width="171" height="126" rx="24" fill="white" shape-rendering="crispEdges"/>
<rect x="207.531" y="36.5234" width="170.5" height="125.5" rx="23.75" stroke="#5BC4BF" stroke-width="0.5" shape-rendering="crispEdges"/>
<path d="M243.337 93.9656H225.046V91.6572H243.337V93.9656ZM241.81 80.291H226.464V78.0375H241.81V80.291ZM241.722 88.5683H226.563V86.3479H241.722V88.5683ZM232.037 86.5677H229.234V80.0711H232.037V86.5677ZM238.995 86.5677H236.236V80.0711H238.995V86.5677ZM262.119 94.0756H243.827V91.7781H262.119V94.0756ZM254.314 92.7345H251.555V87.9857H254.314V92.7345ZM260.008 84.2153H248.73V87.634H245.938V82.0168H257.238V79.8403H245.905V77.5868H260.008V84.2153ZM260.481 88.7442H245.938V86.4688H260.481V88.7442ZM274.14 83.5008H270.93V81.2253H274.14V83.5008ZM275.811 88.3815H273.15V76.6855H275.811V88.3815ZM268.38 80.5768C268.38 81.7273 268.215 82.8119 267.885 83.8306C267.563 84.8419 267.061 85.7396 266.379 86.5237C265.705 87.3079 264.844 87.9088 263.796 88.3265L262.323 86.128C263.21 85.7909 263.939 85.3329 264.51 84.7539C265.089 84.175 265.511 83.5301 265.774 82.8193C266.046 82.1011 266.181 81.3536 266.181 80.5768V79.2467H268.38V80.5768ZM268.896 80.5988C268.896 81.3316 269.025 82.0278 269.281 82.6874C269.545 83.3469 269.944 83.9478 270.479 84.4901C271.022 85.0324 271.71 85.4648 272.546 85.7872L271.128 87.9198C270.131 87.5387 269.303 86.9818 268.643 86.2489C267.991 85.5088 267.511 84.6587 267.203 83.6987C266.903 82.7313 266.753 81.698 266.753 80.5988V79.2467H268.896V80.5988ZM271.908 79.9832H262.982V77.7407H271.908V79.9832ZM279.79 88.4914H277.119V76.2677H279.79V88.4914ZM279.79 96.2961H277.009V91.4484H265.961V89.2169H279.79V96.2961ZM297.692 88.8431H283.533V86.6337H297.692V88.8431ZM299.681 93.9656H281.39V91.6902H299.681V93.9656ZM297.538 80.0382H286.392V87.2273H283.533V77.7517H297.538V80.0382ZM297.065 84.3362H285.556V82.1487H297.065V84.3362ZM321.558 86.3588H318.766V76.2677H321.558V86.3588ZM315.116 77.0592C315.116 78.818 314.768 80.346 314.072 81.6431C313.383 82.9329 312.357 84.0065 310.994 84.8639C309.638 85.7213 307.938 86.3735 305.894 86.8205L304.937 84.5451C306.586 84.2153 307.938 83.761 308.993 83.182C310.056 82.5957 310.833 81.9142 311.324 81.1374C311.815 80.3606 312.06 79.5032 312.06 78.5652V77.0592H315.116ZM313.215 79.3127H306.058V77.0592H313.215V79.3127ZM319.096 80.9395H314.325V78.807H319.096V80.9395ZM318.986 84.8199H314.182V82.6874H318.986V84.8199ZM321.558 92.5586H311.093V95.0869H308.29V90.481H318.733V89.2828H308.257V87.0843H321.558V92.5586ZM321.998 96.0982H308.29V93.8777H321.998V96.0982ZM333.04 80.5328H324.356V78.2904H333.04V80.5328ZM329.742 90.8108H326.983V84.0174H329.742V90.8108ZM334.722 79.8843C334.715 80.8296 334.704 81.6357 334.689 82.3026C334.674 82.9622 334.627 83.75 334.546 84.666C334.466 85.5747 334.345 86.5421 334.183 87.568L331.424 87.3372C331.644 85.9008 331.783 84.633 331.842 83.5338C331.901 82.4272 331.93 81.2107 331.93 79.8843V78.2904H334.722V79.8843ZM339.317 96.2961H336.492V76.2677H339.317V96.2961ZM342.032 86.6666H338.481V84.3252H342.032V86.6666ZM323.301 89.9754C325.829 89.9534 328.061 89.9058 329.995 89.8325C331.937 89.7519 333.788 89.6016 335.546 89.3818L335.711 91.4594C333.865 91.7671 331.926 91.9723 329.896 92.0749C327.874 92.1775 325.767 92.2215 323.576 92.2068L323.301 89.9754ZM352.756 88.6893H349.942V85.8752H352.756V88.6893ZM360.517 86.4468H342.269V84.2373H360.517V86.4468ZM358.197 83.182H344.511V76.8723H358.197V83.182ZM347.271 81.0055H355.394V79.0488H347.271V81.0055ZM358.285 92.8554H347.139V94.6912H344.38V90.8768H355.515V89.8325H344.369V87.7219H358.285V92.8554ZM358.813 96.1532H344.38V94.0536H358.813V96.1532ZM254.999 106.565H259.099V104.18H261.913V112.919H252.218V104.18H254.999V106.565ZM259.099 110.71V108.665H254.999V110.71H259.099ZM267.497 113.469H264.694V103.268H267.497V113.469ZM270.201 109.457H266.332V107.181H270.201V109.457ZM267.497 119.658H257.021V122.054H254.262V117.646H264.705V116.393H254.229V114.227H267.497V119.658ZM268.08 123.153H254.262V120.955H268.08V123.153ZM277.77 119.581H274.945V114.15H277.77V119.581ZM284.069 119.614H281.266V114.172H284.069V119.614ZM288.708 121.076H270.416V118.833H288.708V121.076ZM287.18 107.137H271.834V104.884H287.18V107.137ZM287.092 115.03H271.933V112.765H287.092V115.03ZM277.408 113.106H274.605V106.741H277.408V113.106ZM284.366 113.106H281.607V106.741H284.366V113.106ZM291.605 123.67H288.813L293.935 104.609H296.75L291.605 123.67ZM313.629 114.601H310.826V103.312H313.629V114.601ZM313.629 123.076H300.229V115.513H313.629V123.076ZM302.988 120.823H310.881V117.734H302.988V120.823ZM303.978 105.972C303.978 107.24 303.762 108.427 303.329 109.533C302.897 110.633 302.245 111.593 301.373 112.413C300.508 113.227 299.445 113.835 298.185 114.238L296.8 112.029C297.884 111.692 298.789 111.215 299.515 110.6C300.248 109.977 300.786 109.266 301.131 108.467C301.475 107.668 301.647 106.837 301.647 105.972V104.037H303.978V105.972ZM304.56 105.972C304.56 106.8 304.729 107.591 305.066 108.346C305.403 109.094 305.923 109.764 306.627 110.358C307.33 110.944 308.203 111.399 309.243 111.721L307.88 113.875C306.642 113.494 305.597 112.919 304.747 112.15C303.904 111.38 303.271 110.471 302.846 109.424C302.42 108.368 302.208 107.218 302.208 105.972V104.037H304.56V105.972ZM322.506 107.808C322.506 109.5 322.301 111.094 321.891 112.589C321.48 114.084 320.861 115.407 320.033 116.558C319.205 117.708 318.179 118.584 316.955 119.185L315.229 116.909C316.336 116.404 317.259 115.678 317.999 114.733C318.747 113.78 319.304 112.71 319.67 111.523C320.044 110.336 320.231 109.097 320.231 107.808V104.818H322.506V107.808ZM323.023 107.808C323.023 109.053 323.199 110.244 323.551 111.38C323.902 112.516 324.434 113.538 325.144 114.447C325.863 115.356 326.735 116.063 327.761 116.569L326.068 118.8C324.895 118.207 323.913 117.356 323.122 116.25C322.33 115.143 321.744 113.872 321.363 112.435C320.982 110.999 320.791 109.457 320.791 107.808V104.818H323.023V107.808ZM331.454 123.296H328.64V103.268H331.454V123.296ZM334.422 113.381H330.839V110.995H334.422V113.381Z" fill="#5BC4BF"/>
</g>
<path d="M378.281 102.711L412.562 102.711" stroke="#5BC4BF" stroke-width="0.5"/>
<path d="M554.669 24.0273L412.562 24.0273L412.562 217.342L554.669 217.342" stroke="#5BC4BF" stroke-width="0.5"/>
<rect x="454.062" y="0.527344" width="59" height="47" rx="17.5" fill="white"/>
<rect x="454.062" y="0.527344" width="59" height="47" rx="17.5" stroke="#5BC4BF"/>
<path d="M466.562 18.7148H470.983C471.827 18.7148 472.554 18.8763 473.163 19.1992C473.778 19.5169 474.244 19.9648 474.562 20.543C474.879 21.1211 475.038 21.7852 475.038 22.5352C475.038 23.2904 474.874 23.9544 474.546 24.5273C474.223 25.0951 473.752 25.5404 473.132 25.8633C472.517 26.181 471.783 26.3398 470.929 26.3398H468.085V24.4492H470.562C471.015 24.4492 471.395 24.3711 471.702 24.2148C472.015 24.0534 472.246 23.8294 472.397 23.543C472.549 23.2565 472.624 22.9206 472.624 22.5352C472.624 22.1497 472.549 21.8164 472.397 21.5352C472.246 21.2487 472.015 21.0299 471.702 20.8789C471.395 20.7227 471.012 20.6445 470.554 20.6445H468.905V30.0273H466.562V18.7148ZM481.233 26.3633C481.025 26.3685 480.658 26.3893 480.132 26.4258L479.382 26.4883C478.97 26.5195 478.647 26.6315 478.413 26.8242C478.179 27.0117 478.062 27.2669 478.062 27.5898C478.062 27.7982 478.114 27.9753 478.218 28.1211C478.327 28.2669 478.478 28.3789 478.671 28.457C478.869 28.5352 479.09 28.5742 479.335 28.5742C479.684 28.5742 479.994 28.5065 480.265 28.3711C480.535 28.2305 480.746 28.0404 480.897 27.8008C481.049 27.556 481.124 27.2878 481.124 26.9961L481.108 24.2539C481.108 24.0143 481.056 23.8112 480.952 23.6445C480.853 23.4727 480.7 23.3451 480.491 23.2617C480.288 23.1732 480.046 23.1289 479.765 23.1289C479.374 23.1289 479.056 23.2122 478.812 23.3789C478.567 23.5404 478.413 23.7695 478.351 24.0664H476.147C476.2 23.5664 476.374 23.1185 476.671 22.7227C476.973 22.3216 477.39 22.0065 477.921 21.7773C478.457 21.5482 479.09 21.4336 479.819 21.4336C480.476 21.4336 481.075 21.5352 481.616 21.7383C482.158 21.9414 482.593 22.2591 482.921 22.6914C483.254 23.1185 483.421 23.6576 483.421 24.3086V30.0273H481.226V28.8555H481.163C481.022 29.1211 480.838 29.3529 480.608 29.5508C480.379 29.7487 480.103 29.9049 479.78 30.0195C479.463 30.1289 479.093 30.1836 478.671 30.1836C478.124 30.1836 477.64 30.0872 477.218 29.8945C476.796 29.7018 476.463 29.4154 476.218 29.0352C475.973 28.6549 475.851 28.1966 475.851 27.6602C475.851 26.7747 476.142 26.1315 476.726 25.7305C477.314 25.3294 478.075 25.1003 479.007 25.043C479.163 25.0273 479.645 25.0013 480.452 24.9648L481.218 24.9336L481.233 26.3633ZM490.022 24.0664C489.97 23.7539 489.822 23.5117 489.577 23.3398C489.332 23.168 489.017 23.082 488.632 23.082C488.382 23.082 488.158 23.1185 487.96 23.1914C487.762 23.2591 487.603 23.3607 487.483 23.4961C487.369 23.6263 487.312 23.7747 487.312 23.9414C487.306 24.1393 487.39 24.3112 487.562 24.457C487.739 24.6029 488.02 24.7148 488.405 24.793L489.937 25.1055C490.759 25.2721 491.371 25.5456 491.772 25.9258C492.179 26.3008 492.382 26.793 492.382 27.4023C492.382 27.9544 492.223 28.4414 491.905 28.8633C491.593 29.2799 491.153 29.6055 490.585 29.8398C490.022 30.0742 489.366 30.1914 488.616 30.1914C487.861 30.1914 487.207 30.0846 486.655 29.8711C486.108 29.6523 485.676 29.3451 485.358 28.9492C485.041 28.5482 484.851 28.0716 484.788 27.5195H487.108C487.176 27.8424 487.338 28.0898 487.593 28.2617C487.853 28.4284 488.197 28.5117 488.624 28.5117C488.9 28.5117 489.142 28.4779 489.351 28.4102C489.564 28.3424 489.728 28.2435 489.843 28.1133C489.963 27.9779 490.022 27.8216 490.022 27.6445C490.022 27.4154 489.929 27.2305 489.741 27.0898C489.559 26.9492 489.27 26.8398 488.874 26.7617L487.468 26.4805C486.655 26.319 486.041 26.0352 485.624 25.6289C485.213 25.2227 485.009 24.707 485.015 24.082C485.015 23.5404 485.16 23.0716 485.452 22.6758C485.744 22.2747 486.158 21.9674 486.694 21.7539C487.236 21.5404 487.871 21.4336 488.601 21.4336C489.309 21.4336 489.926 21.5404 490.452 21.7539C490.978 21.9674 491.39 22.2721 491.687 22.668C491.983 23.0638 492.15 23.5299 492.187 24.0664H490.022ZM498.647 24.0664C498.595 23.7539 498.447 23.5117 498.202 23.3398C497.957 23.168 497.642 23.082 497.257 23.082C497.007 23.082 496.783 23.1185 496.585 23.1914C496.387 23.2591 496.228 23.3607 496.108 23.4961C495.994 23.6263 495.937 23.7747 495.937 23.9414C495.931 24.1393 496.015 24.3112 496.187 24.457C496.364 24.6029 496.645 24.7148 497.03 24.793L498.562 25.1055C499.384 25.2721 499.996 25.5456 500.397 25.9258C500.804 26.3008 501.007 26.793 501.007 27.4023C501.007 27.9544 500.848 28.4414 500.53 28.8633C500.218 29.2799 499.778 29.6055 499.21 29.8398C498.647 30.0742 497.991 30.1914 497.241 30.1914C496.486 30.1914 495.832 30.0846 495.28 29.8711C494.733 29.6523 494.301 29.3451 493.983 28.9492C493.666 28.5482 493.476 28.0716 493.413 27.5195H495.733C495.801 27.8424 495.963 28.0898 496.218 28.2617C496.478 28.4284 496.822 28.5117 497.249 28.5117C497.525 28.5117 497.767 28.4779 497.976 28.4102C498.189 28.3424 498.353 28.2435 498.468 28.1133C498.588 27.9779 498.647 27.8216 498.647 27.6445C498.647 27.4154 498.554 27.2305 498.366 27.0898C498.184 26.9492 497.895 26.8398 497.499 26.7617L496.093 26.4805C495.28 26.319 494.666 26.0352 494.249 25.6289C493.838 25.2227 493.634 24.707 493.64 24.082C493.64 23.5404 493.785 23.0716 494.077 22.6758C494.369 22.2747 494.783 21.9674 495.319 21.7539C495.861 21.5404 496.496 21.4336 497.226 21.4336C497.934 21.4336 498.551 21.5404 499.077 21.7539C499.603 21.9674 500.015 22.2721 500.312 22.668C500.608 23.0638 500.775 23.5299 500.812 24.0664H498.647Z" fill="#5BC4BF"/>
<rect x="566.062" y="0.5" width="160" height="47" rx="17.5" fill="#5BC4BF"/>
<rect x="566.062" y="0.5" width="160" height="47" rx="17.5" stroke="#5BC4BF"/>
<path d="M605.476 27.4531H603.483V17.2344H605.476V27.4531ZM605.866 31.1953H595.952V29.5859H605.866V31.1953ZM597.968 30.2422H595.952V26.4297H597.968V30.2422ZM597.687 18.1328C598.41 18.1328 599.069 18.2865 599.663 18.5938C600.262 18.8958 600.731 19.3229 601.069 19.875C601.408 20.4219 601.577 21.0339 601.577 21.7109C601.577 22.4089 601.408 23.0312 601.069 23.5781C600.731 24.125 600.262 24.5547 599.663 24.8672C599.069 25.1745 598.41 25.3281 597.687 25.3281C596.963 25.3281 596.304 25.1745 595.71 24.8672C595.121 24.5547 594.655 24.125 594.312 23.5781C593.968 23.0312 593.796 22.4089 593.796 21.7109C593.796 21.0339 593.968 20.4219 594.312 19.875C594.655 19.3229 595.121 18.8958 595.71 18.5938C596.304 18.2865 596.963 18.1328 597.687 18.1328ZM597.687 19.8672C597.317 19.862 596.983 19.9349 596.687 20.0859C596.395 20.2318 596.163 20.4453 595.991 20.7266C595.825 21.0078 595.741 21.3359 595.741 21.7109C595.741 22.0964 595.825 22.4323 595.991 22.7188C596.163 23 596.395 23.2161 596.687 23.3672C596.983 23.513 597.317 23.5859 597.687 23.5859C598.051 23.5859 598.377 23.513 598.663 23.3672C598.955 23.2161 599.184 23 599.351 22.7188C599.517 22.4323 599.601 22.0964 599.601 21.7109C599.601 21.3359 599.517 21.0078 599.351 20.7266C599.184 20.4453 598.955 20.2318 598.663 20.0859C598.377 19.9349 598.051 19.862 597.687 19.8672ZM620.382 25.375H607.413V23.7734H620.382V25.375ZM613.874 26.1641C614.9 26.1641 615.785 26.2682 616.53 26.4766C617.275 26.6849 617.843 26.987 618.233 27.3828C618.629 27.7786 618.827 28.2526 618.827 28.8047C618.827 29.362 618.629 29.8385 618.233 30.2344C617.843 30.6302 617.275 30.9297 616.53 31.1328C615.791 31.3359 614.905 31.4375 613.874 31.4375C612.843 31.4375 611.952 31.3359 611.202 31.1328C610.457 30.9297 609.884 30.6302 609.483 30.2344C609.088 29.8385 608.89 29.362 608.89 28.8047C608.89 28.2526 609.09 27.7786 609.491 27.3828C609.892 26.987 610.465 26.6849 611.21 26.4766C611.96 26.2682 612.848 26.1641 613.874 26.1641ZM613.874 27.7109C613.213 27.7109 612.663 27.75 612.226 27.8281C611.788 27.9062 611.46 28.0286 611.241 28.1953C611.028 28.3568 610.921 28.5599 610.921 28.8047C610.921 29.0443 611.03 29.2448 611.249 29.4062C611.468 29.5677 611.793 29.6901 612.226 29.7734C612.658 29.8516 613.207 29.8906 613.874 29.8906C614.53 29.8906 615.075 29.8516 615.507 29.7734C615.944 29.6901 616.272 29.5677 616.491 29.4062C616.71 29.2448 616.819 29.0443 616.819 28.8047C616.819 28.5599 616.71 28.3568 616.491 28.1953C616.272 28.0286 615.944 27.9062 615.507 27.8281C615.075 27.75 614.53 27.7109 613.874 27.7109ZM614.28 19.0234C614.28 19.7474 614.064 20.4089 613.632 21.0078C613.2 21.6016 612.559 22.0964 611.71 22.4922C610.861 22.8828 609.838 23.1328 608.64 23.2422L607.983 21.6875C608.963 21.5938 609.793 21.4115 610.476 21.1406C611.163 20.8646 611.676 20.5417 612.015 20.1719C612.353 19.8021 612.522 19.4193 612.522 19.0234V18.6406H614.28V19.0234ZM615.249 19.0234C615.249 19.4193 615.416 19.8021 615.749 20.1719C616.088 20.5417 616.601 20.8646 617.288 21.1406C617.976 21.4115 618.822 21.5938 619.827 21.6875L619.124 23.2422C617.937 23.1328 616.918 22.8828 616.069 22.4922C615.22 22.0964 614.572 21.6016 614.124 21.0078C613.681 20.4089 613.46 19.7474 613.46 19.0234V18.6406H615.249V19.0234ZM619.21 19.4688H608.585V17.875H619.21V19.4688ZM625.757 25.6875C625.762 24.2604 625.97 22.9297 626.382 21.6953C626.799 20.4609 627.395 19.2969 628.171 18.2031H630.374C630.004 18.7396 629.65 19.4219 629.312 20.25C628.973 21.0729 628.697 21.9609 628.483 22.9141C628.275 23.8672 628.171 24.7917 628.171 25.6875C628.171 26.5833 628.275 27.5104 628.483 28.4688C628.697 29.4219 628.973 30.3099 629.312 31.1328C629.65 31.9557 630.004 32.6406 630.374 33.1875H628.171C627.4 32.0833 626.806 30.9141 626.39 29.6797C625.973 28.4401 625.762 27.1094 625.757 25.6875ZM631.71 18.6875H636.21C637.017 18.6875 637.702 18.8099 638.265 19.0547C638.827 19.2943 639.249 19.6328 639.53 20.0703C639.817 20.5026 639.96 21.0104 639.96 21.5938C639.96 22.0208 639.871 22.401 639.694 22.7344C639.522 23.0677 639.283 23.3438 638.976 23.5625C638.674 23.776 638.322 23.9271 637.921 24.0156V24.125C638.353 24.1458 638.759 24.2708 639.14 24.5C639.52 24.7292 639.825 25.0495 640.054 25.4609C640.283 25.8672 640.397 26.3411 640.397 26.8828C640.397 27.487 640.249 28.0234 639.952 28.4922C639.655 28.9609 639.213 29.3307 638.624 29.6016C638.041 29.8672 637.335 30 636.507 30H631.71V18.6875ZM636.03 28.0703C636.473 28.0703 636.838 28.013 637.124 27.8984C637.416 27.7786 637.629 27.6146 637.765 27.4062C637.9 27.1927 637.968 26.9401 637.968 26.6484C637.968 26.3359 637.892 26.0547 637.741 25.8047C637.59 25.5547 637.371 25.3646 637.085 25.2344C636.804 25.099 636.473 25.0312 636.093 25.0312H634.054V28.0703H636.03ZM635.858 23.4297C636.187 23.4297 636.481 23.3698 636.741 23.25C637.007 23.1302 637.213 22.9609 637.358 22.7422C637.509 22.5234 637.585 22.2656 637.585 21.9688C637.585 21.6875 637.52 21.4453 637.39 21.2422C637.259 21.0339 637.067 20.875 636.812 20.7656C636.562 20.651 636.259 20.5938 635.905 20.5938H634.054V23.4297H635.858ZM646.819 26.3359C646.611 26.3411 646.244 26.362 645.718 26.3984L644.968 26.4609C644.556 26.4922 644.233 26.6042 643.999 26.7969C643.765 26.9844 643.647 27.2396 643.647 27.5625C643.647 27.7708 643.7 27.9479 643.804 28.0938C643.913 28.2396 644.064 28.3516 644.257 28.4297C644.455 28.5078 644.676 28.5469 644.921 28.5469C645.27 28.5469 645.58 28.4792 645.851 28.3438C646.121 28.2031 646.332 28.013 646.483 27.7734C646.634 27.5286 646.71 27.2604 646.71 26.9688L646.694 24.2266C646.694 23.987 646.642 23.7839 646.538 23.6172C646.439 23.4453 646.285 23.3177 646.077 23.2344C645.874 23.1458 645.632 23.1016 645.351 23.1016C644.96 23.1016 644.642 23.1849 644.397 23.3516C644.153 23.513 643.999 23.7422 643.937 24.0391H641.733C641.785 23.5391 641.96 23.0911 642.257 22.6953C642.559 22.2943 642.976 21.9792 643.507 21.75C644.043 21.5208 644.676 21.4062 645.405 21.4062C646.062 21.4062 646.66 21.5078 647.202 21.7109C647.744 21.9141 648.179 22.2318 648.507 22.6641C648.84 23.0911 649.007 23.6302 649.007 24.2812V30H646.812V28.8281H646.749C646.608 29.0938 646.424 29.3255 646.194 29.5234C645.965 29.7214 645.689 29.8776 645.366 29.9922C645.049 30.1016 644.679 30.1562 644.257 30.1562C643.71 30.1562 643.226 30.0599 642.804 29.8672C642.382 29.6745 642.049 29.388 641.804 29.0078C641.559 28.6276 641.437 28.1693 641.437 27.6328C641.437 26.7474 641.728 26.1042 642.312 25.7031C642.9 25.3021 643.66 25.0729 644.593 25.0156C644.749 25 645.231 24.974 646.038 24.9375L646.804 24.9062L646.819 26.3359ZM653.89 30.1328C653.239 30.1328 652.65 29.9635 652.124 29.625C651.603 29.2865 651.192 28.7891 650.89 28.1328C650.593 27.4714 650.444 26.6823 650.444 25.7656C650.444 24.8281 650.598 24.0312 650.905 23.375C651.213 22.7188 651.624 22.2266 652.14 21.8984C652.66 21.5703 653.244 21.4062 653.89 21.4062C654.338 21.4062 654.723 21.4818 655.046 21.6328C655.369 21.7786 655.624 21.9609 655.812 22.1797C655.999 22.3984 656.16 22.651 656.296 22.9375H656.366V18.6875H658.679V30H656.405V28.6484H656.296C656.155 28.9297 655.989 29.1745 655.796 29.3828C655.608 29.5911 655.353 29.7682 655.03 29.9141C654.707 30.0599 654.327 30.1328 653.89 30.1328ZM654.608 28.2891C654.989 28.2891 655.314 28.1849 655.585 27.9766C655.861 27.7682 656.069 27.4714 656.21 27.0859C656.356 26.7005 656.429 26.2552 656.429 25.75C656.429 25.2396 656.358 24.7969 656.218 24.4219C656.077 24.0469 655.869 23.7604 655.593 23.5625C655.322 23.3594 654.994 23.2578 654.608 23.2578C654.223 23.2578 653.895 23.362 653.624 23.5703C653.353 23.7734 653.147 24.0625 653.007 24.4375C652.871 24.8125 652.804 25.25 652.804 25.75C652.804 26.25 652.871 26.6927 653.007 27.0781C653.147 27.4583 653.353 27.7552 653.624 27.9688C653.895 28.1823 654.223 28.2891 654.608 28.2891ZM664.351 33.3594C663.59 33.3594 662.921 33.25 662.343 33.0312C661.77 32.8125 661.319 32.5026 660.991 32.1016C660.668 31.7005 660.483 31.2318 660.437 30.6953H662.71C662.783 31.0286 662.965 31.276 663.257 31.4375C663.549 31.599 663.931 31.6797 664.405 31.6797C664.973 31.6797 665.413 31.5495 665.726 31.2891C666.043 31.0339 666.202 30.625 666.202 30.0625V28.5H666.101C665.976 28.7656 665.812 29 665.608 29.2031C665.41 29.401 665.147 29.5651 664.819 29.6953C664.491 29.8203 664.108 29.8828 663.671 29.8828C663.02 29.8828 662.434 29.7266 661.913 29.4141C661.392 29.1016 660.981 28.6328 660.679 28.0078C660.377 27.3828 660.226 26.6146 660.226 25.7031C660.226 24.776 660.379 23.9896 660.687 23.3438C660.994 22.6979 661.405 22.2135 661.921 21.8906C662.442 21.5677 663.025 21.4062 663.671 21.4062C664.119 21.4062 664.504 21.4818 664.827 21.6328C665.15 21.7786 665.403 21.9557 665.585 22.1641C665.767 22.3724 665.937 22.6302 666.093 22.9375H666.187V21.5156H668.483V30.0938C668.483 30.7917 668.309 31.3854 667.96 31.875C667.611 32.3698 667.127 32.7396 666.507 32.9844C665.887 33.2344 665.168 33.3594 664.351 33.3594ZM664.39 28.1328C664.77 28.1328 665.095 28.0365 665.366 27.8438C665.642 27.651 665.851 27.375 665.991 27.0156C666.137 26.6562 666.21 26.2266 666.21 25.7266C666.21 25.2214 666.137 24.7839 665.991 24.4141C665.851 24.0391 665.645 23.7526 665.374 23.5547C665.103 23.3568 664.775 23.2578 664.39 23.2578C664.004 23.2578 663.676 23.362 663.405 23.5703C663.134 23.7734 662.929 24.0625 662.788 24.4375C662.653 24.8073 662.585 25.237 662.585 25.7266C662.585 26.2161 662.653 26.6406 662.788 27C662.929 27.3594 663.134 27.638 663.405 27.8359C663.676 28.0339 664.004 28.1328 664.39 28.1328ZM674.132 30.1641C673.278 30.1641 672.533 29.987 671.897 29.6328C671.267 29.2786 670.78 28.7734 670.437 28.1172C670.098 27.4609 669.929 26.6901 669.929 25.8047C669.929 24.9297 670.098 24.1615 670.437 23.5C670.78 22.8333 671.262 22.3177 671.882 21.9531C672.502 21.5885 673.22 21.4062 674.038 21.4062C674.804 21.4062 675.486 21.5677 676.085 21.8906C676.684 22.2083 677.155 22.6901 677.499 23.3359C677.843 23.9818 678.015 24.7708 678.015 25.7031V26.3516H670.874V24.9062H675.835C675.835 24.5625 675.759 24.2578 675.608 23.9922C675.457 23.7214 675.249 23.5104 674.983 23.3594C674.718 23.2083 674.416 23.1328 674.077 23.1328C673.718 23.1328 673.397 23.2161 673.116 23.3828C672.835 23.5443 672.614 23.7682 672.452 24.0547C672.296 24.3411 672.215 24.6536 672.21 24.9922V26.3516C672.21 26.7734 672.291 27.1432 672.452 27.4609C672.614 27.7786 672.84 28.0208 673.132 28.1875C673.429 28.3542 673.772 28.4375 674.163 28.4375C674.424 28.4375 674.66 28.401 674.874 28.3281C675.088 28.25 675.267 28.151 675.413 28.0312C675.564 27.9062 675.679 27.7604 675.757 27.5938H677.96C677.851 28.1094 677.624 28.5625 677.28 28.9531C676.942 29.3385 676.502 29.638 675.96 29.8516C675.424 30.0599 674.814 30.1641 674.132 30.1641ZM686.515 21.5781H688.46V29.375H686.515V21.5781ZM683.585 24.5078H691.397V26.4531H683.585V24.5078ZM697.085 21.6953C697.502 22.9297 697.713 24.2604 697.718 25.6875C697.713 27.1094 697.502 28.4401 697.085 29.6797C696.668 30.9141 696.075 32.0833 695.304 33.1875H693.101C693.47 32.6406 693.825 31.9557 694.163 31.1328C694.502 30.3099 694.775 29.4219 694.983 28.4688C695.197 27.5104 695.304 26.5833 695.304 25.6875C695.304 24.7917 695.197 23.8672 694.983 22.9141C694.775 21.9609 694.502 21.0729 694.163 20.25C693.825 19.4219 693.47 18.7396 693.101 18.2031H695.304C696.08 19.2969 696.674 20.4609 697.085 21.6953Z" fill="white"/>
<rect x="566.062" y="193.786" width="160" height="47" rx="17.5" fill="white"/>
<rect x="566.062" y="193.786" width="160" height="47" rx="17.5" stroke="#5BC4BF"/>
<path d="M592.905 213.31H586.616V212.114H592.905V213.31ZM590.179 220.864H588.718V216.114H590.179V220.864ZM593.78 212.974C593.775 213.635 593.767 214.19 593.757 214.638C593.746 215.08 593.713 215.638 593.655 216.31C593.598 216.976 593.507 217.695 593.382 218.466L591.905 218.341C592.077 217.263 592.184 216.317 592.226 215.505C592.272 214.692 592.296 213.849 592.296 212.974V212.114H593.78V212.974ZM596.882 224.606H595.397V210.606H596.882V224.606ZM599.022 217.653H596.468V216.388H599.022V217.653ZM585.851 220.396C587.575 220.38 589.145 220.346 590.562 220.294C591.983 220.237 593.327 220.132 594.593 219.981L594.671 221.091C593.358 221.294 591.973 221.432 590.515 221.505C589.056 221.578 587.556 221.609 586.015 221.599L585.851 220.396ZM610.421 215.396H607.397V214.177H610.421V215.396ZM611.483 218.942H609.999V210.606H611.483V218.942ZM606.788 219.341C607.772 219.341 608.619 219.445 609.327 219.653C610.041 219.862 610.585 220.164 610.96 220.56C611.34 220.95 611.53 221.422 611.53 221.974C611.53 222.526 611.34 222.997 610.96 223.388C610.585 223.784 610.041 224.086 609.327 224.294C608.619 224.502 607.772 224.609 606.788 224.614C605.814 224.609 604.973 224.502 604.265 224.294C603.556 224.086 603.012 223.784 602.632 223.388C602.252 222.997 602.062 222.526 602.062 221.974C602.062 221.422 602.252 220.95 602.632 220.56C603.012 220.164 603.556 219.862 604.265 219.653C604.973 219.445 605.814 219.341 606.788 219.341ZM606.788 220.481C606.116 220.481 605.533 220.541 605.038 220.661C604.549 220.776 604.174 220.945 603.913 221.169C603.658 221.393 603.53 221.661 603.53 221.974C603.53 222.276 603.658 222.539 603.913 222.763C604.174 222.987 604.549 223.159 605.038 223.278C605.533 223.393 606.116 223.45 606.788 223.45C607.476 223.45 608.062 223.393 608.546 223.278C609.035 223.159 609.408 222.987 609.663 222.763C609.924 222.539 610.054 222.276 610.054 221.974C610.054 221.661 609.924 221.393 609.663 221.169C609.408 220.945 609.035 220.776 608.546 220.661C608.062 220.541 607.476 220.481 606.788 220.481ZM604.538 213.106C604.538 213.966 604.377 214.778 604.054 215.544C603.736 216.31 603.28 216.981 602.687 217.56C602.093 218.132 601.397 218.567 600.601 218.864L599.827 217.677C600.535 217.427 601.153 217.065 601.679 216.591C602.21 216.117 602.616 215.578 602.897 214.974C603.179 214.364 603.319 213.742 603.319 213.106V212.021H604.538V213.106ZM604.819 213.091C604.819 213.679 604.955 214.252 605.226 214.81C605.496 215.362 605.887 215.856 606.397 216.294C606.908 216.726 607.507 217.062 608.194 217.302L607.437 218.481C606.65 218.205 605.97 217.797 605.397 217.255C604.825 216.713 604.384 216.083 604.077 215.364C603.77 214.64 603.616 213.882 603.616 213.091V212.021H604.819V213.091ZM607.835 212.794H600.272V211.567H607.835V212.794ZM624.468 211.841C624.468 212.705 624.213 213.502 623.702 214.231C623.192 214.961 622.499 215.567 621.624 216.052C620.754 216.531 619.796 216.854 618.749 217.021L618.155 215.825C619.062 215.705 619.897 215.448 620.663 215.052C621.429 214.656 622.035 214.177 622.483 213.614C622.937 213.052 623.163 212.461 623.163 211.841V211.083H624.468V211.841ZM624.702 211.841C624.702 212.455 624.929 213.047 625.382 213.614C625.84 214.177 626.455 214.656 627.226 215.052C628.002 215.448 628.838 215.705 629.733 215.825L629.147 217.021C628.095 216.854 627.134 216.528 626.265 216.044C625.395 215.56 624.702 214.953 624.187 214.224C623.671 213.494 623.413 212.7 623.413 211.841V211.083H624.702V211.841ZM624.632 224.606H623.171V219.333H624.632V224.606ZM630.312 219.638H617.546V218.403H630.312V219.638ZM636.319 222.216H634.866V218.794H636.319V222.216ZM640.827 222.192H639.374V218.771H640.827V222.192ZM644.187 222.935H631.374V221.708H644.187V222.935ZM642.616 215.974H634.413V218.661H632.937V214.771H641.155V212.817H632.913V211.606H642.616V215.974ZM642.944 219.216H632.937V218.005H642.944V219.216ZM649.952 218.974C649.963 217.526 650.163 216.185 650.554 214.95C650.944 213.711 651.512 212.557 652.257 211.489H653.788C653.429 212.015 653.088 212.692 652.765 213.521C652.442 214.349 652.181 215.242 651.983 216.2C651.785 217.153 651.687 218.078 651.687 218.974C651.687 219.869 651.785 220.799 651.983 221.763C652.181 222.721 652.442 223.612 652.765 224.435C653.088 225.263 653.429 225.942 653.788 226.474H652.257C651.517 225.39 650.95 224.229 650.554 222.989C650.163 221.75 649.963 220.411 649.952 218.974ZM655.468 211.974H659.608C660.395 211.974 661.054 212.101 661.585 212.356C662.121 212.612 662.522 212.963 662.788 213.411C663.054 213.854 663.187 214.364 663.187 214.942C663.187 215.39 663.103 215.778 662.937 216.106C662.77 216.429 662.543 216.692 662.257 216.896C661.97 217.093 661.642 217.239 661.272 217.333V217.442C661.663 217.463 662.038 217.588 662.397 217.817C662.762 218.047 663.059 218.369 663.288 218.786C663.517 219.198 663.632 219.685 663.632 220.247C663.632 220.836 663.494 221.359 663.218 221.817C662.942 222.271 662.517 222.63 661.944 222.896C661.371 223.156 660.658 223.286 659.804 223.286H655.468V211.974ZM659.632 221.81C660.163 221.81 660.598 221.739 660.937 221.599C661.275 221.453 661.522 221.257 661.679 221.013C661.835 220.768 661.913 220.484 661.913 220.161C661.913 219.797 661.825 219.463 661.647 219.161C661.47 218.859 661.213 218.625 660.874 218.458C660.535 218.286 660.147 218.2 659.71 218.2H657.187V221.81H659.632ZM659.46 216.856C659.84 216.856 660.184 216.784 660.491 216.638C660.804 216.487 661.049 216.278 661.226 216.013C661.408 215.747 661.499 215.435 661.499 215.075C661.499 214.752 661.426 214.468 661.28 214.224C661.134 213.979 660.91 213.789 660.608 213.653C660.312 213.513 659.944 213.442 659.507 213.442H657.187V216.856H659.46ZM670.452 219.442C670.317 219.442 669.892 219.468 669.179 219.521L668.335 219.583C667.772 219.625 667.335 219.755 667.022 219.974C666.715 220.192 666.562 220.505 666.562 220.911C666.562 221.177 666.629 221.401 666.765 221.583C666.9 221.76 667.09 221.898 667.335 221.997C667.58 222.091 667.858 222.138 668.171 222.138C668.614 222.138 668.996 222.052 669.319 221.88C669.647 221.703 669.9 221.468 670.077 221.177C670.254 220.88 670.343 220.562 670.343 220.224L670.335 217.552C670.335 217.229 670.27 216.955 670.14 216.731C670.015 216.502 669.822 216.33 669.562 216.216C669.301 216.096 668.983 216.036 668.608 216.036C668.134 216.036 667.746 216.135 667.444 216.333C667.147 216.526 666.955 216.786 666.866 217.114H665.194C665.252 216.64 665.429 216.221 665.726 215.856C666.022 215.492 666.424 215.208 666.929 215.005C667.434 214.797 668.012 214.692 668.663 214.692C669.21 214.692 669.728 214.776 670.218 214.942C670.713 215.104 671.132 215.406 671.476 215.849C671.819 216.286 671.991 216.888 671.991 217.653V223.286H670.374V222.122H670.312C670.197 222.356 670.03 222.575 669.812 222.778C669.593 222.981 669.312 223.148 668.968 223.278C668.629 223.409 668.239 223.474 667.796 223.474C667.249 223.474 666.759 223.372 666.327 223.169C665.895 222.966 665.554 222.669 665.304 222.278C665.054 221.888 664.929 221.427 664.929 220.896C664.929 220.01 665.226 219.38 665.819 219.005C666.418 218.63 667.179 218.414 668.101 218.356C668.226 218.341 668.72 218.31 669.585 218.263L670.437 218.231L670.452 219.442ZM677.194 223.442C676.512 223.442 675.9 223.268 675.358 222.919C674.822 222.565 674.4 222.057 674.093 221.396C673.791 220.729 673.64 219.95 673.64 219.06C673.64 218.159 673.793 217.38 674.101 216.724C674.408 216.062 674.83 215.56 675.366 215.216C675.908 214.867 676.522 214.692 677.21 214.692C677.689 214.692 678.093 214.771 678.421 214.927C678.749 215.083 678.996 215.26 679.163 215.458C679.33 215.656 679.491 215.893 679.647 216.169H679.733V211.974H681.405V223.286H679.772V221.974H679.647C679.481 222.244 679.314 222.479 679.147 222.677C678.981 222.869 678.733 223.047 678.405 223.208C678.077 223.364 677.674 223.442 677.194 223.442ZM677.562 222.028C678.03 222.028 678.431 221.903 678.765 221.653C679.098 221.403 679.351 221.054 679.522 220.606C679.694 220.153 679.78 219.63 679.78 219.036C679.78 218.442 679.697 217.927 679.53 217.489C679.364 217.052 679.111 216.713 678.772 216.474C678.439 216.234 678.035 216.114 677.562 216.114C677.088 216.114 676.684 216.239 676.351 216.489C676.017 216.734 675.765 217.078 675.593 217.521C675.421 217.963 675.335 218.468 675.335 219.036C675.335 219.614 675.421 220.13 675.593 220.583C675.765 221.031 676.017 221.385 676.351 221.646C676.684 221.901 677.088 222.028 677.562 222.028ZM687.14 226.646C686.437 226.646 685.814 226.544 685.272 226.341C684.731 226.143 684.301 225.854 683.983 225.474C683.671 225.093 683.491 224.64 683.444 224.114H685.14C685.223 224.51 685.439 224.807 685.788 225.005C686.142 225.203 686.601 225.302 687.163 225.302C687.851 225.302 688.382 225.148 688.757 224.841C689.132 224.534 689.319 224.057 689.319 223.411V221.747H689.218C689.077 222.002 688.918 222.229 688.741 222.427C688.564 222.619 688.309 222.791 687.976 222.942C687.642 223.088 687.236 223.161 686.757 223.161C686.085 223.161 685.478 222.997 684.937 222.669C684.4 222.341 683.976 221.859 683.663 221.224C683.356 220.588 683.202 219.83 683.202 218.95C683.202 218.07 683.356 217.31 683.663 216.669C683.97 216.023 684.392 215.534 684.929 215.2C685.47 214.862 686.085 214.692 686.772 214.692C687.252 214.692 687.655 214.771 687.983 214.927C688.312 215.083 688.554 215.252 688.71 215.435C688.866 215.617 689.041 215.862 689.233 216.169H689.335V214.802H690.976V223.474C690.976 224.172 690.812 224.757 690.483 225.231C690.155 225.711 689.705 226.065 689.132 226.294C688.559 226.528 687.895 226.646 687.14 226.646ZM687.124 221.778C687.593 221.778 687.994 221.666 688.327 221.442C688.66 221.218 688.913 220.901 689.085 220.489C689.257 220.073 689.343 219.573 689.343 218.989C689.343 218.411 689.257 217.906 689.085 217.474C688.913 217.036 688.66 216.7 688.327 216.466C687.999 216.231 687.598 216.114 687.124 216.114C686.65 216.114 686.246 216.239 685.913 216.489C685.58 216.734 685.327 217.075 685.155 217.513C684.983 217.945 684.897 218.437 684.897 218.989C684.897 219.547 684.983 220.036 685.155 220.458C685.327 220.875 685.58 221.2 685.913 221.435C686.246 221.664 686.65 221.778 687.124 221.778ZM696.663 223.458C695.845 223.458 695.129 223.278 694.515 222.919C693.905 222.56 693.437 222.052 693.108 221.396C692.78 220.739 692.616 219.976 692.616 219.106C692.616 218.237 692.78 217.468 693.108 216.802C693.437 216.13 693.897 215.612 694.491 215.247C695.085 214.877 695.77 214.692 696.546 214.692C697.233 214.692 697.861 214.841 698.429 215.138C698.996 215.429 699.452 215.896 699.796 216.536C700.14 217.172 700.312 217.976 700.312 218.95V219.536H693.554V218.294H698.679C698.679 217.862 698.59 217.479 698.413 217.146C698.241 216.807 697.994 216.541 697.671 216.349C697.348 216.156 696.978 216.06 696.562 216.06C696.108 216.06 695.71 216.169 695.366 216.388C695.022 216.606 694.754 216.901 694.562 217.271C694.369 217.64 694.272 218.036 694.272 218.458V219.427C694.272 219.984 694.371 220.463 694.569 220.864C694.772 221.265 695.054 221.57 695.413 221.778C695.778 221.987 696.197 222.091 696.671 222.091C696.973 222.091 697.246 222.049 697.491 221.966C697.736 221.877 697.944 221.768 698.116 221.638C698.288 221.502 698.421 221.343 698.515 221.161H700.21C700.085 221.619 699.861 222.021 699.538 222.364C699.215 222.708 698.806 222.976 698.312 223.169C697.822 223.362 697.272 223.458 696.663 223.458ZM704.694 214.95C705.085 216.185 705.285 217.526 705.296 218.974C705.285 220.411 705.082 221.75 704.687 222.989C704.296 224.229 703.731 225.39 702.991 226.474H701.46C701.819 225.942 702.16 225.263 702.483 224.435C702.806 223.612 703.067 222.721 703.265 221.763C703.463 220.799 703.562 219.869 703.562 218.974C703.562 218.078 703.463 217.153 703.265 216.2C703.067 215.242 702.806 214.349 702.483 213.521C702.16 212.692 701.819 212.015 701.46 211.489H702.991C703.736 212.557 704.304 213.711 704.694 214.95Z" fill="#5BC4BF"/>
<rect x="454.062" y="193.843" width="59" height="47" rx="17.5" fill="white"/>
<rect x="454.062" y="193.843" width="59" height="47" rx="17.5" stroke="#5BC4BF"/>
<path d="M472.233 212.03H479.257V213.507H473.952V216.944H478.749V218.413H473.952V223.343H472.233V212.03ZM486.108 219.499C485.973 219.499 485.549 219.525 484.835 219.577L483.991 219.64C483.429 219.681 482.991 219.812 482.679 220.03C482.371 220.249 482.218 220.562 482.218 220.968C482.218 221.233 482.285 221.457 482.421 221.64C482.556 221.817 482.746 221.955 482.991 222.054C483.236 222.147 483.515 222.194 483.827 222.194C484.27 222.194 484.653 222.108 484.976 221.937C485.304 221.759 485.556 221.525 485.733 221.233C485.91 220.937 485.999 220.619 485.999 220.28L485.991 217.608C485.991 217.285 485.926 217.012 485.796 216.788C485.671 216.559 485.478 216.387 485.218 216.272C484.957 216.153 484.64 216.093 484.265 216.093C483.791 216.093 483.403 216.192 483.101 216.39C482.804 216.582 482.611 216.843 482.522 217.171H480.851C480.908 216.697 481.085 216.278 481.382 215.913C481.679 215.549 482.08 215.265 482.585 215.062C483.09 214.853 483.668 214.749 484.319 214.749C484.866 214.749 485.384 214.832 485.874 214.999C486.369 215.16 486.788 215.463 487.132 215.905C487.476 216.343 487.647 216.944 487.647 217.71V223.343H486.03V222.179H485.968C485.853 222.413 485.687 222.632 485.468 222.835C485.249 223.038 484.968 223.205 484.624 223.335C484.285 223.465 483.895 223.53 483.452 223.53C482.905 223.53 482.416 223.429 481.983 223.226C481.551 223.022 481.21 222.726 480.96 222.335C480.71 221.944 480.585 221.483 480.585 220.952C480.585 220.067 480.882 219.437 481.476 219.062C482.075 218.687 482.835 218.47 483.757 218.413C483.882 218.397 484.377 218.366 485.241 218.319L486.093 218.288L486.108 219.499ZM489.679 214.858H491.343V223.343H489.679V214.858ZM490.507 213.546C490.319 213.546 490.145 213.504 489.983 213.421C489.822 213.332 489.694 213.213 489.601 213.062C489.507 212.905 489.46 212.739 489.46 212.562C489.46 212.379 489.507 212.215 489.601 212.069C489.694 211.918 489.822 211.799 489.983 211.71C490.145 211.621 490.319 211.577 490.507 211.577C490.705 211.577 490.884 211.621 491.046 211.71C491.207 211.799 491.332 211.918 491.421 212.069C491.515 212.215 491.562 212.379 491.562 212.562C491.562 212.739 491.515 212.905 491.421 213.062C491.332 213.213 491.207 213.332 491.046 213.421C490.884 213.504 490.705 213.546 490.507 213.546ZM495.046 223.343H493.382V212.03H495.046V223.343Z" fill="#5BC4BF"/>
<path d="M558.907 23.1613C559.574 23.5462 559.574 24.5085 558.907 24.8934L555.907 26.6254C555.241 27.0103 554.407 26.5292 554.407 25.7594L554.407 22.2953C554.407 21.5255 555.241 21.0444 555.907 21.4293L558.907 23.1613Z" fill="#5BC4BF"/>
<path d="M176.812 99L201.043 99" stroke="#5BC4BF" stroke-width="0.5"/>
<path d="M201.031 98.134C201.698 98.5189 201.698 99.4811 201.031 99.866L198.031 101.598C197.365 101.983 196.531 101.502 196.531 100.732L196.531 97.2679C196.531 96.4981 197.365 96.017 198.031 96.4019L201.031 98.134Z" fill="#5BC4BF"/>
<mask id="path-20-inside-1_371_821" fill="white">
<path d="M30 170.026H354V214.026H30V170.026Z"/>
</mask>
<path d="M30 170.026H354V214.026H30V170.026Z" fill="white"/>
<path d="M30 170.526H354V169.526H30V170.526ZM354 213.526H30V214.526H354V213.526Z" fill="#5BC4BF" mask="url(#path-20-inside-1_371_821)"/>
<path d="M52.1825 189.87H48.6825V188.651H52.1825V189.87ZM52.8466 195.12H51.3622V184.862H52.8466V195.12ZM53.2216 198.573H43.7528V197.347H53.2216V198.573ZM45.245 197.995H43.7528V194.198H45.245V197.995ZM45.9012 187.69C45.9012 188.545 45.7424 189.352 45.4247 190.112C45.107 190.873 44.6512 191.537 44.0575 192.104C43.469 192.672 42.771 193.104 41.9637 193.401L41.1903 192.198C41.8934 191.959 42.508 191.607 43.0341 191.144C43.5653 190.68 43.9716 190.151 44.2528 189.558C44.5393 188.964 44.6825 188.341 44.6825 187.69V186.62H45.9012V187.69ZM46.1825 187.698C46.1825 188.287 46.3179 188.86 46.5887 189.417C46.8648 189.969 47.2554 190.464 47.7606 190.901C48.271 191.339 48.87 191.672 49.5575 191.901L48.7997 193.081C48.0132 192.81 47.3335 192.404 46.7606 191.862C46.1877 191.315 45.7476 190.683 45.4403 189.964C45.133 189.245 44.9794 188.49 44.9794 187.698V186.62H46.1825V187.698ZM49.1981 187.144H41.6356V185.933H49.1981V187.144ZM67.3197 193.136H54.5072V191.933H67.3197V193.136ZM61.7728 195.854H60.3041V192.683H61.7728V195.854ZM65.6634 190.479H56.1556V185.519H65.6634V190.479ZM57.6087 189.308H64.2025V186.675H57.6087V189.308ZM65.8978 198.573H56.1009V197.347H65.8978V198.573ZM57.5853 197.761H56.1009V194.519H57.5853V197.761ZM78.7772 198.839H77.3006V184.847H78.7772V198.839ZM80.9491 191.675H78.3944V190.44H80.9491V191.675ZM75.1131 186.331C75.1131 187.732 74.8944 189.042 74.4569 190.261C74.0246 191.474 73.3319 192.594 72.3787 193.62C71.4308 194.641 70.2095 195.521 68.7147 196.261L67.8866 195.104C69.173 194.459 70.2433 193.714 71.0975 192.87C71.9517 192.021 72.5923 191.076 73.0194 190.034C73.4465 188.987 73.66 187.839 73.66 186.589V186.331H75.1131ZM74.41 187.565H68.5741V186.331H74.41V187.565ZM89.4266 197.526H87.6922V187.94H87.6297L84.9344 189.706V188.058L87.7391 186.214H89.4266V197.526ZM98.8572 197.698C98.0655 197.698 97.3676 197.516 96.7634 197.151C96.1645 196.787 95.7009 196.274 95.3728 195.612C95.0447 194.951 94.8806 194.188 94.8806 193.323C94.8806 192.448 95.0447 191.68 95.3728 191.019C95.7009 190.357 96.1645 189.844 96.7634 189.479C97.3676 189.115 98.0655 188.933 98.8572 188.933C99.6436 188.933 100.336 189.115 100.935 189.479C101.534 189.844 101.995 190.357 102.318 191.019C102.641 191.68 102.802 192.448 102.802 193.323C102.802 194.188 102.641 194.951 102.318 195.612C101.995 196.274 101.534 196.787 100.935 197.151C100.336 197.516 99.6436 197.698 98.8572 197.698ZM98.8572 196.308C99.3572 196.308 99.7765 196.175 100.115 195.909C100.454 195.638 100.706 195.279 100.873 194.831C101.039 194.378 101.123 193.873 101.123 193.315C101.123 192.758 101.039 192.253 100.873 191.8C100.706 191.347 100.454 190.987 100.115 190.722C99.7765 190.451 99.3572 190.315 98.8572 190.315C98.3572 190.315 97.9353 190.451 97.5916 190.722C97.2478 190.987 96.99 191.347 96.8181 191.8C96.6462 192.253 96.5603 192.758 96.5603 193.315C96.5603 193.873 96.6462 194.378 96.8181 194.831C96.99 195.279 97.2478 195.638 97.5916 195.909C97.9353 196.175 98.3572 196.308 98.8572 196.308ZM105.658 197.526H103.994V189.042H105.588V190.425H105.697C105.906 189.951 106.218 189.584 106.635 189.323C107.057 189.063 107.58 188.933 108.205 188.933C108.789 188.933 109.294 189.055 109.721 189.3C110.153 189.539 110.487 189.899 110.721 190.378C110.961 190.857 111.08 191.44 111.08 192.128V197.526H109.416V192.323C109.416 191.917 109.346 191.568 109.205 191.276C109.065 190.985 108.862 190.763 108.596 190.612C108.33 190.456 108.007 190.378 107.627 190.378C107.242 190.378 106.901 190.461 106.604 190.628C106.307 190.789 106.075 191.032 105.908 191.354C105.742 191.672 105.658 192.052 105.658 192.495V197.526ZM120.339 197.526H118.605V187.94H118.542L115.847 189.706V188.058L118.652 186.214H120.339V197.526ZM136.113 187.362H127.192V186.151H136.113V187.362ZM138.442 197.042H125.676V195.8H138.442V197.042ZM136.973 187.464C136.962 188.344 136.949 189.05 136.934 189.581C136.918 190.112 136.866 190.761 136.777 191.526C136.694 192.287 136.559 193.115 136.371 194.011L134.918 193.854C135.106 193 135.244 192.198 135.332 191.448C135.421 190.698 135.473 190.037 135.488 189.464C135.509 188.886 135.52 188.219 135.52 187.464V186.151H136.973V187.464ZM126.996 191.159L126.762 189.87L135.84 189.519V190.636L126.996 191.159ZM131.996 196.245H130.535V192.261H131.996V196.245ZM143.977 187.761C143.977 188.578 143.813 189.344 143.485 190.058C143.162 190.766 142.701 191.383 142.102 191.909C141.503 192.435 140.795 192.828 139.977 193.089L139.251 191.917C139.959 191.703 140.576 191.386 141.102 190.964C141.633 190.537 142.04 190.047 142.321 189.495C142.607 188.943 142.751 188.365 142.751 187.761V187.175H143.977V187.761ZM144.227 187.761C144.227 188.318 144.373 188.852 144.665 189.362C144.956 189.873 145.368 190.323 145.899 190.714C146.436 191.104 147.061 191.399 147.774 191.597L147.079 192.737C146.261 192.508 145.545 192.151 144.93 191.667C144.321 191.183 143.85 190.604 143.516 189.933C143.188 189.256 143.024 188.532 143.024 187.761V187.175H144.227V187.761ZM147.329 187.683H139.649V186.503H147.329V187.683ZM144.243 187.034H142.751V184.854H144.243V187.034ZM150.633 193.394H149.157V184.862H150.633V193.394ZM145.93 193.675C146.909 193.664 147.756 193.761 148.469 193.964C149.183 194.167 149.73 194.461 150.11 194.847C150.49 195.232 150.68 195.698 150.68 196.245C150.68 196.787 150.49 197.25 150.11 197.636C149.73 198.026 149.183 198.323 148.469 198.526C147.756 198.729 146.909 198.831 145.93 198.831C144.951 198.831 144.105 198.729 143.391 198.526C142.678 198.323 142.128 198.026 141.743 197.636C141.363 197.25 141.172 196.787 141.172 196.245C141.172 195.698 141.363 195.232 141.743 194.847C142.128 194.461 142.678 194.167 143.391 193.964C144.105 193.761 144.951 193.664 145.93 193.675ZM145.93 194.831C145.238 194.831 144.649 194.886 144.165 194.995C143.68 195.104 143.308 195.266 143.047 195.479C142.792 195.688 142.665 195.943 142.665 196.245C142.665 196.542 142.792 196.8 143.047 197.019C143.308 197.232 143.68 197.396 144.165 197.511C144.649 197.62 145.238 197.675 145.93 197.675C146.623 197.675 147.214 197.62 147.704 197.511C148.199 197.396 148.574 197.232 148.829 197.019C149.089 196.8 149.219 196.542 149.219 196.245C149.219 195.943 149.089 195.688 148.829 195.479C148.574 195.266 148.199 195.104 147.704 194.995C147.214 194.886 146.623 194.831 145.93 194.831ZM167.439 198.847H165.939V184.847H167.439V198.847ZM163.283 186.354C163.283 187.782 163.061 189.102 162.619 190.315C162.181 191.524 161.478 192.638 160.509 193.659C159.541 194.675 158.28 195.555 156.728 196.3L155.931 195.097C157.28 194.461 158.387 193.722 159.252 192.878C160.121 192.034 160.765 191.091 161.181 190.05C161.598 189.008 161.806 187.857 161.806 186.597V186.354H163.283ZM162.447 187.542H156.611V186.354H162.447V187.542ZM180.147 195.159H178.67V184.862H180.147V195.159ZM182.186 190.237H179.693V189.003H182.186V190.237ZM180.74 198.573H171.279V197.347H180.74V198.573ZM172.748 197.62H171.279V194.136H172.748V197.62ZM171.147 188.12H174.811V185.87H176.295V192.839H169.686V185.87H171.147V188.12ZM174.811 191.651V189.269H171.147V191.651H174.811ZM186.562 186.214H190.593C191.447 186.214 192.168 186.373 192.757 186.69C193.345 187.003 193.786 187.435 194.077 187.987C194.374 188.534 194.522 189.167 194.522 189.886C194.522 190.594 194.374 191.224 194.077 191.776C193.78 192.328 193.338 192.763 192.749 193.081C192.161 193.399 191.439 193.558 190.585 193.558H187.804V192.097H190.421C190.963 192.097 191.411 192.003 191.765 191.815C192.119 191.623 192.377 191.362 192.538 191.034C192.705 190.701 192.788 190.318 192.788 189.886C192.788 189.443 192.705 189.058 192.538 188.729C192.377 188.401 192.116 188.146 191.757 187.964C191.403 187.782 190.955 187.69 190.413 187.69H188.28V197.526H186.562V186.214ZM195.714 189.042H197.324V190.401H197.417C197.569 189.933 197.839 189.568 198.23 189.308C198.621 189.042 199.061 188.909 199.55 188.909C199.811 188.909 200.05 188.925 200.269 188.956V190.55C200.201 190.524 200.079 190.5 199.902 190.479C199.725 190.453 199.556 190.44 199.394 190.44C199.019 190.44 198.678 190.524 198.371 190.69C198.063 190.852 197.821 191.078 197.644 191.37C197.467 191.662 197.378 191.99 197.378 192.354V197.526H195.714V189.042ZM204.352 197.698C203.56 197.698 202.862 197.516 202.258 197.151C201.659 196.787 201.195 196.274 200.867 195.612C200.539 194.951 200.375 194.188 200.375 193.323C200.375 192.448 200.539 191.68 200.867 191.019C201.195 190.357 201.659 189.844 202.258 189.479C202.862 189.115 203.56 188.933 204.352 188.933C205.138 188.933 205.831 189.115 206.43 189.479C207.029 189.844 207.49 190.357 207.812 191.019C208.135 191.68 208.297 192.448 208.297 193.323C208.297 194.188 208.135 194.951 207.812 195.612C207.49 196.274 207.029 196.787 206.43 197.151C205.831 197.516 205.138 197.698 204.352 197.698ZM204.352 196.308C204.852 196.308 205.271 196.175 205.609 195.909C205.948 195.638 206.201 195.279 206.367 194.831C206.534 194.378 206.617 193.873 206.617 193.315C206.617 192.758 206.534 192.253 206.367 191.8C206.201 191.347 205.948 190.987 205.609 190.722C205.271 190.451 204.852 190.315 204.352 190.315C203.852 190.315 203.43 190.451 203.086 190.722C202.742 190.987 202.484 191.347 202.312 191.8C202.141 192.253 202.055 192.758 202.055 193.315C202.055 193.873 202.141 194.378 202.312 194.831C202.484 195.279 202.742 195.638 203.086 195.909C203.43 196.175 203.852 196.308 204.352 196.308ZM211.153 189.042V198.073C211.153 198.641 211.049 199.12 210.84 199.511C210.637 199.907 210.332 200.206 209.926 200.409C209.525 200.612 209.03 200.714 208.442 200.714C208.348 200.714 208.234 200.711 208.098 200.706V199.269C208.192 199.269 208.286 199.269 208.379 199.269C208.64 199.269 208.851 199.222 209.012 199.128C209.174 199.039 209.293 198.904 209.372 198.722C209.45 198.539 209.489 198.321 209.489 198.065V189.042H211.153ZM210.301 187.729C210.114 187.729 209.939 187.688 209.778 187.604C209.616 187.516 209.489 187.396 209.395 187.245C209.301 187.089 209.254 186.922 209.254 186.745C209.254 186.563 209.301 186.399 209.395 186.253C209.489 186.102 209.616 185.982 209.778 185.894C209.939 185.805 210.114 185.761 210.301 185.761C210.499 185.761 210.679 185.805 210.84 185.894C211.002 185.982 211.127 186.102 211.215 186.253C211.309 186.399 211.356 186.563 211.356 186.745C211.356 186.922 211.309 187.089 211.215 187.245C211.127 187.396 211.002 187.516 210.84 187.604C210.679 187.688 210.499 187.729 210.301 187.729ZM216.368 197.698C215.55 197.698 214.834 197.519 214.22 197.159C213.61 196.8 213.142 196.292 212.813 195.636C212.485 194.979 212.321 194.216 212.321 193.347C212.321 192.477 212.485 191.709 212.813 191.042C213.142 190.37 213.602 189.852 214.196 189.487C214.79 189.118 215.475 188.933 216.251 188.933C216.938 188.933 217.566 189.081 218.134 189.378C218.701 189.67 219.157 190.136 219.501 190.776C219.845 191.412 220.017 192.216 220.017 193.19V193.776H213.259V192.534H218.384C218.384 192.102 218.295 191.719 218.118 191.386C217.946 191.047 217.699 190.782 217.376 190.589C217.053 190.396 216.683 190.3 216.267 190.3C215.813 190.3 215.415 190.409 215.071 190.628C214.727 190.847 214.459 191.141 214.267 191.511C214.074 191.881 213.977 192.276 213.977 192.698V193.667C213.977 194.224 214.076 194.703 214.274 195.104C214.477 195.506 214.759 195.81 215.118 196.019C215.483 196.227 215.902 196.331 216.376 196.331C216.678 196.331 216.951 196.289 217.196 196.206C217.441 196.118 217.649 196.008 217.821 195.878C217.993 195.743 218.126 195.584 218.22 195.401H219.915C219.79 195.86 219.566 196.261 219.243 196.604C218.92 196.948 218.511 197.216 218.017 197.409C217.527 197.602 216.977 197.698 216.368 197.698ZM224.771 197.698C223.964 197.698 223.258 197.511 222.654 197.136C222.055 196.761 221.594 196.243 221.271 195.581C220.953 194.92 220.794 194.167 220.794 193.323C220.794 192.464 220.958 191.703 221.287 191.042C221.615 190.375 222.076 189.857 222.669 189.487C223.263 189.118 223.953 188.933 224.74 188.933C225.386 188.933 225.964 189.05 226.474 189.284C226.984 189.519 227.393 189.852 227.701 190.284C228.008 190.716 228.193 191.216 228.255 191.784H226.63C226.573 191.513 226.461 191.269 226.294 191.05C226.133 190.826 225.925 190.649 225.669 190.519C225.414 190.388 225.117 190.323 224.779 190.323C224.32 190.323 223.917 190.443 223.568 190.683C223.224 190.922 222.956 191.263 222.763 191.706C222.57 192.149 222.474 192.672 222.474 193.276C222.474 193.886 222.568 194.417 222.755 194.87C222.948 195.318 223.216 195.664 223.56 195.909C223.904 196.154 224.31 196.276 224.779 196.276C225.091 196.276 225.375 196.222 225.63 196.112C225.891 195.998 226.107 195.831 226.279 195.612C226.451 195.394 226.568 195.133 226.63 194.831H228.255C228.193 195.383 228.011 195.875 227.708 196.308C227.412 196.74 227.011 197.081 226.505 197.331C226 197.576 225.422 197.698 224.771 197.698ZM233.314 190.37H228.674V189.042H233.314V190.37ZM231.596 187.011V195.034C231.596 195.336 231.64 195.568 231.728 195.729C231.817 195.891 231.934 196.003 232.08 196.065C232.226 196.128 232.4 196.159 232.603 196.159C232.853 196.159 233.132 196.149 233.439 196.128V197.565C233.143 197.612 232.799 197.636 232.408 197.636C231.955 197.636 231.538 197.552 231.158 197.386C230.783 197.214 230.481 196.959 230.252 196.62C230.028 196.276 229.916 195.86 229.916 195.37V187.011H231.596ZM238.034 186.214H242.175C242.961 186.214 243.62 186.341 244.151 186.597C244.688 186.852 245.089 187.203 245.354 187.651C245.62 188.094 245.753 188.604 245.753 189.183C245.753 189.631 245.669 190.019 245.503 190.347C245.336 190.67 245.11 190.933 244.823 191.136C244.537 191.334 244.209 191.479 243.839 191.573V191.683C244.229 191.703 244.604 191.828 244.964 192.058C245.328 192.287 245.625 192.61 245.854 193.026C246.084 193.438 246.198 193.925 246.198 194.487C246.198 195.076 246.06 195.599 245.784 196.058C245.508 196.511 245.084 196.87 244.511 197.136C243.938 197.396 243.224 197.526 242.37 197.526H238.034V186.214ZM242.198 196.05C242.729 196.05 243.164 195.979 243.503 195.839C243.841 195.693 244.089 195.498 244.245 195.253C244.401 195.008 244.479 194.724 244.479 194.401C244.479 194.037 244.391 193.703 244.214 193.401C244.037 193.099 243.779 192.865 243.44 192.698C243.102 192.526 242.714 192.44 242.276 192.44H239.753V196.05H242.198ZM242.026 191.097C242.406 191.097 242.75 191.024 243.057 190.878C243.37 190.727 243.615 190.519 243.792 190.253C243.974 189.987 244.065 189.675 244.065 189.315C244.065 188.993 243.992 188.709 243.847 188.464C243.701 188.219 243.477 188.029 243.175 187.894C242.878 187.753 242.511 187.683 242.073 187.683H239.753V191.097H242.026ZM252.538 193.683C252.403 193.683 251.979 193.709 251.265 193.761L250.421 193.823C249.859 193.865 249.421 193.995 249.109 194.214C248.801 194.433 248.648 194.745 248.648 195.151C248.648 195.417 248.716 195.641 248.851 195.823C248.986 196 249.176 196.138 249.421 196.237C249.666 196.331 249.945 196.378 250.257 196.378C250.7 196.378 251.083 196.292 251.406 196.12C251.734 195.943 251.986 195.709 252.163 195.417C252.341 195.12 252.429 194.802 252.429 194.464L252.421 191.792C252.421 191.469 252.356 191.196 252.226 190.972C252.101 190.743 251.908 190.571 251.648 190.456C251.387 190.336 251.07 190.276 250.695 190.276C250.221 190.276 249.833 190.375 249.531 190.573C249.234 190.766 249.041 191.026 248.952 191.354H247.281C247.338 190.881 247.515 190.461 247.812 190.097C248.109 189.732 248.51 189.448 249.015 189.245C249.52 189.037 250.098 188.933 250.749 188.933C251.296 188.933 251.814 189.016 252.304 189.183C252.799 189.344 253.218 189.646 253.562 190.089C253.906 190.526 254.077 191.128 254.077 191.894V197.526H252.46V196.362H252.398C252.283 196.597 252.117 196.815 251.898 197.019C251.679 197.222 251.398 197.388 251.054 197.519C250.716 197.649 250.325 197.714 249.882 197.714C249.335 197.714 248.846 197.612 248.413 197.409C247.981 197.206 247.64 196.909 247.39 196.519C247.14 196.128 247.015 195.667 247.015 195.136C247.015 194.25 247.312 193.62 247.906 193.245C248.505 192.87 249.265 192.654 250.187 192.597C250.312 192.581 250.807 192.55 251.671 192.503L252.523 192.472L252.538 193.683ZM260.387 191.354C260.308 191 260.131 190.727 259.855 190.534C259.584 190.341 259.225 190.245 258.777 190.245C258.465 190.245 258.183 190.295 257.933 190.394C257.689 190.487 257.493 190.623 257.347 190.8C257.207 190.972 257.137 191.167 257.137 191.386C257.137 191.636 257.246 191.852 257.465 192.034C257.683 192.216 258.019 192.357 258.472 192.456L259.824 192.769C260.605 192.946 261.189 193.224 261.574 193.604C261.959 193.979 262.152 194.466 262.152 195.065C262.152 195.576 262.012 196.032 261.73 196.433C261.454 196.828 261.056 197.138 260.535 197.362C260.014 197.586 259.394 197.698 258.676 197.698C258.004 197.698 257.423 197.602 256.933 197.409C256.444 197.211 256.053 196.927 255.762 196.558C255.475 196.183 255.295 195.735 255.222 195.214H256.933C257.012 195.589 257.194 195.873 257.48 196.065C257.772 196.258 258.165 196.354 258.66 196.354C259.014 196.354 259.324 196.31 259.59 196.222C259.861 196.128 260.069 195.993 260.215 195.815C260.366 195.638 260.441 195.433 260.441 195.198C260.441 194.922 260.334 194.693 260.121 194.511C259.913 194.328 259.582 194.19 259.129 194.097L257.808 193.8C257.043 193.628 256.462 193.344 256.066 192.948C255.67 192.552 255.475 192.063 255.48 191.479C255.48 190.979 255.616 190.537 255.887 190.151C256.163 189.766 256.548 189.466 257.043 189.253C257.538 189.039 258.113 188.933 258.769 188.933C259.384 188.933 259.926 189.034 260.394 189.237C260.863 189.435 261.233 189.716 261.504 190.081C261.775 190.446 261.933 190.87 261.98 191.354H260.387ZM266.977 197.698C266.159 197.698 265.443 197.519 264.828 197.159C264.219 196.8 263.75 196.292 263.422 195.636C263.094 194.979 262.93 194.216 262.93 193.347C262.93 192.477 263.094 191.709 263.422 191.042C263.75 190.37 264.211 189.852 264.805 189.487C265.399 189.118 266.084 188.933 266.86 188.933C267.547 188.933 268.175 189.081 268.742 189.378C269.31 189.67 269.766 190.136 270.11 190.776C270.453 191.412 270.625 192.216 270.625 193.19V193.776H263.867V192.534H268.992C268.992 192.102 268.904 191.719 268.727 191.386C268.555 191.047 268.308 190.782 267.985 190.589C267.662 190.396 267.292 190.3 266.875 190.3C266.422 190.3 266.024 190.409 265.68 190.628C265.336 190.847 265.068 191.141 264.875 191.511C264.683 191.881 264.586 192.276 264.586 192.698V193.667C264.586 194.224 264.685 194.703 264.883 195.104C265.086 195.506 265.367 195.81 265.727 196.019C266.091 196.227 266.511 196.331 266.985 196.331C267.287 196.331 267.56 196.289 267.805 196.206C268.05 196.118 268.258 196.008 268.43 195.878C268.602 195.743 268.735 195.584 268.828 195.401H270.524C270.399 195.86 270.175 196.261 269.852 196.604C269.529 196.948 269.12 197.216 268.625 197.409C268.136 197.602 267.586 197.698 266.977 197.698ZM274.966 197.683C274.283 197.683 273.671 197.508 273.13 197.159C272.593 196.805 272.171 196.297 271.864 195.636C271.562 194.969 271.411 194.19 271.411 193.3C271.411 192.399 271.565 191.62 271.872 190.964C272.179 190.302 272.601 189.8 273.137 189.456C273.679 189.107 274.294 188.933 274.981 188.933C275.46 188.933 275.864 189.011 276.192 189.167C276.52 189.323 276.768 189.5 276.934 189.698C277.101 189.896 277.262 190.133 277.419 190.409H277.505V186.214H279.177V197.526H277.544V196.214H277.419C277.252 196.485 277.085 196.719 276.919 196.917C276.752 197.11 276.505 197.287 276.177 197.448C275.848 197.604 275.445 197.683 274.966 197.683ZM275.333 196.269C275.802 196.269 276.203 196.144 276.536 195.894C276.869 195.644 277.122 195.295 277.294 194.847C277.466 194.394 277.552 193.87 277.552 193.276C277.552 192.683 277.468 192.167 277.302 191.729C277.135 191.292 276.882 190.953 276.544 190.714C276.21 190.474 275.807 190.354 275.333 190.354C274.859 190.354 274.455 190.479 274.122 190.729C273.789 190.974 273.536 191.318 273.364 191.761C273.192 192.203 273.106 192.709 273.106 193.276C273.106 193.854 273.192 194.37 273.364 194.823C273.536 195.271 273.789 195.625 274.122 195.886C274.455 196.141 274.859 196.269 275.333 196.269ZM284.435 186.214H286.154V196.05H291.271V197.526H284.435V186.214ZM296.072 197.698C295.255 197.698 294.539 197.519 293.924 197.159C293.315 196.8 292.846 196.292 292.518 195.636C292.19 194.979 292.026 194.216 292.026 193.347C292.026 192.477 292.19 191.709 292.518 191.042C292.846 190.37 293.307 189.852 293.901 189.487C294.494 189.118 295.179 188.933 295.955 188.933C296.643 188.933 297.27 189.081 297.838 189.378C298.406 189.67 298.862 190.136 299.205 190.776C299.549 191.412 299.721 192.216 299.721 193.19V193.776H292.963V192.534H298.088C298.088 192.102 298 191.719 297.822 191.386C297.651 191.047 297.403 190.782 297.08 190.589C296.757 190.396 296.388 190.3 295.971 190.3C295.518 190.3 295.119 190.409 294.776 190.628C294.432 190.847 294.164 191.141 293.971 191.511C293.778 191.881 293.682 192.276 293.682 192.698V193.667C293.682 194.224 293.781 194.703 293.979 195.104C294.182 195.506 294.463 195.81 294.822 196.019C295.187 196.227 295.606 196.331 296.08 196.331C296.382 196.331 296.656 196.289 296.901 196.206C297.145 196.118 297.354 196.008 297.526 195.878C297.697 195.743 297.83 195.584 297.924 195.401H299.619C299.494 195.86 299.27 196.261 298.947 196.604C298.625 196.948 298.216 197.216 297.721 197.409C297.231 197.602 296.682 197.698 296.072 197.698ZM306.007 193.683C305.871 193.683 305.447 193.709 304.733 193.761L303.889 193.823C303.327 193.865 302.889 193.995 302.577 194.214C302.27 194.433 302.116 194.745 302.116 195.151C302.116 195.417 302.184 195.641 302.319 195.823C302.454 196 302.645 196.138 302.889 196.237C303.134 196.331 303.413 196.378 303.725 196.378C304.168 196.378 304.551 196.292 304.874 196.12C305.202 195.943 305.454 195.709 305.632 195.417C305.809 195.12 305.897 194.802 305.897 194.464L305.889 191.792C305.889 191.469 305.824 191.196 305.694 190.972C305.569 190.743 305.376 190.571 305.116 190.456C304.856 190.336 304.538 190.276 304.163 190.276C303.689 190.276 303.301 190.375 302.999 190.573C302.702 190.766 302.509 191.026 302.421 191.354H300.749C300.806 190.881 300.983 190.461 301.28 190.097C301.577 189.732 301.978 189.448 302.483 189.245C302.988 189.037 303.566 188.933 304.217 188.933C304.764 188.933 305.283 189.016 305.772 189.183C306.267 189.344 306.686 189.646 307.03 190.089C307.374 190.526 307.546 191.128 307.546 191.894V197.526H305.928V196.362H305.866C305.751 196.597 305.585 196.815 305.366 197.019C305.147 197.222 304.866 197.388 304.522 197.519C304.184 197.649 303.793 197.714 303.35 197.714C302.803 197.714 302.314 197.612 301.882 197.409C301.449 197.206 301.108 196.909 300.858 196.519C300.608 196.128 300.483 195.667 300.483 195.136C300.483 194.25 300.78 193.62 301.374 193.245C301.973 192.87 302.733 192.654 303.655 192.597C303.78 192.581 304.275 192.55 305.139 192.503L305.991 192.472L306.007 193.683ZM309.097 189.042H310.706V190.401H310.8C310.951 189.933 311.222 189.568 311.612 189.308C312.003 189.042 312.443 188.909 312.933 188.909C313.193 188.909 313.433 188.925 313.652 188.956V190.55C313.584 190.524 313.461 190.5 313.284 190.479C313.107 190.453 312.938 190.44 312.777 190.44C312.402 190.44 312.06 190.524 311.753 190.69C311.446 190.852 311.204 191.078 311.027 191.37C310.849 191.662 310.761 191.99 310.761 192.354V197.526H309.097V189.042ZM316.093 197.526H314.429V189.042H316.023V190.425H316.133C316.341 189.951 316.653 189.584 317.07 189.323C317.492 189.063 318.015 188.933 318.64 188.933C319.224 188.933 319.729 189.055 320.156 189.3C320.588 189.539 320.922 189.899 321.156 190.378C321.396 190.857 321.515 191.44 321.515 192.128V197.526H319.851V192.323C319.851 191.917 319.781 191.568 319.64 191.276C319.5 190.985 319.297 190.763 319.031 190.612C318.765 190.456 318.442 190.378 318.062 190.378C317.677 190.378 317.336 190.461 317.039 190.628C316.742 190.789 316.51 191.032 316.343 191.354C316.177 191.672 316.093 192.052 316.093 192.495V197.526ZM323.074 189.042H324.738V197.526H323.074V189.042ZM323.902 187.729C323.715 187.729 323.541 187.688 323.379 187.604C323.218 187.516 323.09 187.396 322.996 187.245C322.902 187.089 322.856 186.922 322.856 186.745C322.856 186.563 322.902 186.399 322.996 186.253C323.09 186.102 323.218 185.982 323.379 185.894C323.541 185.805 323.715 185.761 323.902 185.761C324.1 185.761 324.28 185.805 324.442 185.894C324.603 185.982 324.728 186.102 324.817 186.253C324.91 186.399 324.957 186.563 324.957 186.745C324.957 186.922 324.91 187.089 324.817 187.245C324.728 187.396 324.603 187.516 324.442 187.604C324.28 187.688 324.1 187.729 323.902 187.729ZM327.962 197.526H326.297V189.042H327.891V190.425H328.001C328.209 189.951 328.521 189.584 328.938 189.323C329.36 189.063 329.883 188.933 330.508 188.933C331.092 188.933 331.597 189.055 332.024 189.3C332.456 189.539 332.79 189.899 333.024 190.378C333.264 190.857 333.383 191.44 333.383 192.128V197.526H331.719V192.323C331.719 191.917 331.649 191.568 331.508 191.276C331.368 190.985 331.165 190.763 330.899 190.612C330.633 190.456 330.311 190.378 329.93 190.378C329.545 190.378 329.204 190.461 328.907 190.628C328.61 190.789 328.378 191.032 328.212 191.354C328.045 191.672 327.962 192.052 327.962 192.495V197.526ZM338.497 200.886C337.794 200.886 337.172 200.784 336.63 200.581C336.088 200.383 335.659 200.094 335.341 199.714C335.028 199.334 334.849 198.881 334.802 198.354H336.497C336.581 198.75 336.797 199.047 337.146 199.245C337.5 199.443 337.958 199.542 338.521 199.542C339.208 199.542 339.739 199.388 340.114 199.081C340.489 198.774 340.677 198.297 340.677 197.651V195.987H340.575C340.435 196.243 340.276 196.469 340.099 196.667C339.922 196.86 339.666 197.032 339.333 197.183C339 197.328 338.594 197.401 338.114 197.401C337.443 197.401 336.836 197.237 336.294 196.909C335.758 196.581 335.333 196.099 335.021 195.464C334.713 194.828 334.56 194.071 334.56 193.19C334.56 192.31 334.713 191.55 335.021 190.909C335.328 190.263 335.75 189.774 336.286 189.44C336.828 189.102 337.443 188.933 338.13 188.933C338.609 188.933 339.013 189.011 339.341 189.167C339.669 189.323 339.911 189.493 340.068 189.675C340.224 189.857 340.398 190.102 340.591 190.409H340.693V189.042H342.333V197.714C342.333 198.412 342.169 198.998 341.841 199.472C341.513 199.951 341.062 200.305 340.489 200.534C339.916 200.769 339.252 200.886 338.497 200.886ZM338.482 196.019C338.95 196.019 339.351 195.907 339.685 195.683C340.018 195.459 340.271 195.141 340.443 194.729C340.614 194.313 340.7 193.813 340.7 193.229C340.7 192.651 340.614 192.146 340.443 191.714C340.271 191.276 340.018 190.94 339.685 190.706C339.357 190.472 338.956 190.354 338.482 190.354C338.008 190.354 337.604 190.479 337.271 190.729C336.937 190.974 336.685 191.315 336.513 191.753C336.341 192.185 336.255 192.677 336.255 193.229C336.255 193.787 336.341 194.276 336.513 194.698C336.685 195.115 336.937 195.44 337.271 195.675C337.604 195.904 338.008 196.019 338.482 196.019Z" fill="#5BC4BF"/>
<path d="M559.188 216.42C559.854 216.805 559.854 217.767 559.187 218.152L556.187 219.884C555.521 220.269 554.687 219.788 554.687 219.018L554.687 215.554C554.687 214.784 555.521 214.303 556.187 214.688L559.188 216.42Z" fill="#5BC4BF"/>
<defs>
<filter id="filter0_d_371_821" x="0" y="6" width="207" height="186" filterUnits="userSpaceOnUse" color-interpolation-filters="sRGB">
<feFlood flood-opacity="0" result="BackgroundImageFix"/>
<feColorMatrix in="SourceAlpha" type="matrix" values="0 0 0 0 0 0 0 0 0 0 0 0 0 0 0 0 0 0 127 0" result="hardAlpha"/>
<feOffset/>
<feGaussianBlur stdDeviation="15"/>
<feComposite in2="hardAlpha" operator="out"/>
<feColorMatrix type="matrix" values="0 0 0 0 0.356863 0 0 0 0 0.768627 0 0 0 0 0.74902 0 0 0 0.1 0"/>
<feBlend mode="normal" in2="BackgroundImageFix" result="effect1_dropShadow_371_821"/>
<feBlend mode="normal" in="SourceGraphic" in2="effect1_dropShadow_371_821" result="shape"/>
</filter>
<filter id="filter1_d_371_821" x="177.281" y="6.27344" width="231" height="186" filterUnits="userSpaceOnUse" color-interpolation-filters="sRGB">
<feFlood flood-opacity="0" result="BackgroundImageFix"/>
<feColorMatrix in="SourceAlpha" type="matrix" values="0 0 0 0 0 0 0 0 0 0 0 0 0 0 0 0 0 0 127 0" result="hardAlpha"/>
<feOffset/>
<feGaussianBlur stdDeviation="15"/>
<feComposite in2="hardAlpha" operator="out"/>
<feColorMatrix type="matrix" values="0 0 0 0 0.356863 0 0 0 0 0.768627 0 0 0 0 0.74902 0 0 0 0.1 0"/>
<feBlend mode="normal" in2="BackgroundImageFix" result="effect1_dropShadow_371_821"/>
<feBlend mode="normal" in="SourceGraphic" in2="effect1_dropShadow_371_821" result="shape"/>
</filter>
</defs>
</svg>
