<svg width="730" height="293" viewBox="0 0 730 293" fill="none" xmlns="http://www.w3.org/2000/svg">
<path d="M649.387 156.001L649.387 58.5702" stroke="#5BC4BF" stroke-width="0.5"/>
<path d="M648.522 54.4908C648.908 53.8266 649.867 53.8266 650.252 54.4908L651.997 57.4982C652.384 58.1648 651.903 59 651.132 59L647.643 59C646.872 59 646.391 58.1648 646.778 57.4982L648.522 54.4908Z" fill="#5BC4BF"/>
<g filter="url(#filter0_d_371_820)">
<rect x="30" y="43.8711" width="141.696" height="162" rx="24" fill="white" shape-rendering="crispEdges"/>
<rect x="30.25" y="44.1211" width="141.196" height="161.5" rx="23.75" stroke="#5BC4BF" stroke-width="0.5" shape-rendering="crispEdges"/>
<path d="M61.7874 86.9332H64.8873V89.0218H65.0192C65.283 88.311 65.7044 87.7613 66.2834 87.3729C66.8623 86.9772 67.5512 86.7794 68.3499 86.7794C68.8849 86.7794 69.3722 86.871 69.8119 87.0542C70.259 87.23 70.6327 87.4865 70.9332 87.8236C71.2336 88.1607 71.4535 88.5601 71.5927 89.0218H71.7027C71.8785 88.5675 72.1387 88.1717 72.4831 87.8346C72.8275 87.4975 73.2416 87.2374 73.7253 87.0542C74.2089 86.871 74.7366 86.7794 75.3082 86.7794C76.0557 86.7794 76.7116 86.9406 77.2758 87.263C77.8475 87.5781 78.2908 88.0435 78.6059 88.6591C78.9211 89.2673 79.0786 90.0002 79.0786 90.8576V98.8711H75.8138V91.4731C75.8138 90.8209 75.6416 90.3263 75.2972 89.9892C74.9528 89.6447 74.5021 89.4725 73.9451 89.4725C73.5421 89.4725 73.194 89.5605 72.9008 89.7363C72.615 89.9049 72.3915 90.1467 72.2303 90.4618C72.0764 90.7696 71.9994 91.136 71.9994 91.5611V98.8711H68.8446V91.3852C68.8446 91.0041 68.7677 90.667 68.6138 90.3739C68.4672 90.0808 68.2547 89.8573 67.9762 89.7034C67.6977 89.5495 67.3753 89.4725 67.0089 89.4725C66.6424 89.4725 66.309 89.5641 66.0085 89.7473C65.7154 89.9232 65.4809 90.1797 65.305 90.5168C65.1291 90.8539 65.0412 91.246 65.0412 91.693V98.8711H61.7874V86.9332ZM82.3715 103.356C81.734 103.356 81.1843 103.338 80.7226 103.301V100.762L81.2723 100.795C81.4921 100.802 81.7486 100.806 82.0417 100.806C82.3056 100.806 82.5254 100.784 82.7013 100.74C82.8772 100.696 83.0421 100.593 83.196 100.432C83.3499 100.271 83.4854 100.029 83.6027 99.7065L83.8005 99.2119L79.5025 86.9332H82.9321L85.4384 95.7272H85.5703L88.0876 86.9332H91.5393L86.8784 100.179C86.5194 101.191 85.9807 101.971 85.2625 102.521C84.5444 103.078 83.5807 103.356 82.3715 103.356ZM101.164 87.5049C101.12 87.0798 100.984 86.7171 100.757 86.4166C100.537 86.1161 100.229 85.889 99.8338 85.7351C99.438 85.5812 98.9653 85.5042 98.4157 85.5042C97.8808 85.5042 97.4154 85.5812 97.0197 85.7351C96.6313 85.889 96.3345 86.1051 96.1293 86.3836C95.9241 86.6548 95.8215 86.9662 95.8215 87.318C95.8142 87.853 96.034 88.2707 96.481 88.5711C96.9354 88.8716 97.562 89.1208 98.3608 89.3186L99.7898 89.6594C101.299 89.9965 102.468 90.5424 103.296 91.2973C104.132 92.0448 104.553 93.0561 104.561 94.3312C104.561 95.2912 104.315 96.1303 103.824 96.8485C103.333 97.5667 102.626 98.1199 101.702 98.5083C100.779 98.8967 99.6762 99.0909 98.3937 99.0909C97.1113 99.0909 95.9937 98.8931 95.041 98.4973C94.0957 98.1016 93.3628 97.519 92.8425 96.7495C92.3222 95.9727 92.0437 95.0237 92.0071 93.9025H95.2169C95.2609 94.4228 95.4184 94.8625 95.6896 95.2216C95.9607 95.5807 96.3272 95.8518 96.7888 96.035C97.2505 96.2182 97.7745 96.3098 98.3608 96.3098C98.9324 96.3098 99.4344 96.2256 99.8667 96.057C100.299 95.8885 100.633 95.654 100.867 95.3535C101.102 95.0457 101.219 94.6976 101.219 94.3092C101.219 93.9574 101.116 93.6607 100.911 93.4188C100.706 93.1697 100.405 92.9608 100.01 92.7922C99.6212 92.6164 99.1192 92.4515 98.5037 92.2976L96.7559 91.8799C95.3635 91.5354 94.2935 91.0115 93.5461 90.3079C92.8059 89.5971 92.4358 88.6737 92.4358 87.5378C92.4358 86.5925 92.6923 85.7571 93.2053 85.0315C93.7256 84.306 94.4401 83.7418 95.3488 83.3387C96.2649 82.9356 97.2982 82.7341 98.4487 82.7341C99.6066 82.7341 100.629 82.9356 101.516 83.3387C102.402 83.7344 103.091 84.295 103.582 85.0206C104.073 85.7387 104.326 86.5668 104.341 87.5049H101.164ZM119.209 82.954V93.2979C119.209 94.4411 118.934 95.4488 118.384 96.3208C117.842 97.1929 117.072 97.8744 116.076 98.3654C115.079 98.8491 113.929 99.0909 112.624 99.0909C111.312 99.0909 110.162 98.8491 109.173 98.3654C108.183 97.8744 107.414 97.1929 106.864 96.3208C106.322 95.4488 106.051 94.4411 106.051 93.2979V82.954H109.348V93.0231C109.348 93.624 109.484 94.1663 109.755 94.65C110.026 95.1263 110.411 95.5037 110.909 95.7822C111.408 96.0534 111.979 96.1889 112.624 96.1889C113.276 96.1889 113.852 96.0534 114.35 95.7822C114.848 95.5037 115.229 95.1263 115.493 94.65C115.764 94.1663 115.9 93.624 115.9 93.0231V82.954H119.209ZM134.494 98.8711H131.636L124.645 88.758H124.524V98.8711H121.226V82.954H124.128L131.065 93.0561H131.208V82.954H134.494V98.8711ZM139.832 98.8711H136.534V82.954H139.832V98.8711ZM94.1946 118.889H82.3117V116.679H94.1946V118.889ZM88.2697 119.526C89.2297 119.526 90.0798 119.68 90.8199 119.988C91.5674 120.296 92.15 120.728 92.5677 121.285C92.9854 121.842 93.1943 122.483 93.1943 123.209C93.1943 123.942 92.9854 124.586 92.5677 125.143C92.15 125.7 91.5674 126.133 90.8199 126.44C90.0798 126.748 89.2297 126.902 88.2697 126.902C87.3096 126.902 86.4522 126.748 85.6974 126.44C84.9426 126.133 84.3527 125.7 83.9276 125.143C83.5099 124.579 83.301 123.934 83.301 123.209C83.301 122.483 83.5099 121.842 83.9276 121.285C84.3527 120.728 84.9426 120.296 85.6974 119.988C86.4522 119.68 87.3096 119.526 88.2697 119.526ZM88.2697 121.626C87.8226 121.626 87.4269 121.688 87.0825 121.813C86.7454 121.93 86.4852 122.109 86.302 122.351C86.1188 122.586 86.0272 122.872 86.0272 123.209C86.0272 123.546 86.1188 123.832 86.302 124.066C86.4852 124.293 86.7454 124.466 87.0825 124.583C87.4196 124.7 87.8153 124.759 88.2697 124.759C88.7167 124.759 89.1087 124.7 89.4459 124.583C89.7903 124.466 90.0578 124.293 90.2483 124.066C90.4388 123.832 90.5341 123.546 90.5341 123.209C90.5341 122.872 90.4388 122.586 90.2483 122.351C90.0578 122.109 89.7903 121.93 89.4459 121.813C89.1087 121.688 88.7167 121.626 88.2697 121.626ZM98.1959 127.441H95.3928V114.865H98.1959V127.441ZM100.9 122.362H97.4044V120.076H100.9V122.362ZM98.1959 134.894H95.3928V130.508H84.7301V128.276H98.1959V134.894ZM89.6657 117.921H86.8626V114.777H89.6657V117.921ZM106.018 128.584H114.262V126.88H117.043V134.674H103.226V126.88H106.018V128.584ZM114.262 132.464V130.706H106.018V132.464H114.262ZM119.363 125.869H101.115V123.626H119.363V125.869ZM111.217 115.756C111.217 116.906 110.887 117.973 110.228 118.955C109.568 119.937 108.619 120.757 107.381 121.417C106.15 122.076 104.699 122.516 103.028 122.736L102.005 120.538C103.442 120.362 104.673 120.032 105.699 119.548C106.725 119.057 107.494 118.482 108.007 117.822C108.528 117.163 108.788 116.474 108.788 115.756V115.074H111.217V115.756ZM111.679 115.756C111.679 116.459 111.939 117.145 112.459 117.811C112.98 118.471 113.753 119.05 114.779 119.548C115.805 120.047 117.029 120.376 118.45 120.538L117.461 122.736C115.783 122.516 114.324 122.076 113.086 121.417C111.847 120.75 110.898 119.929 110.239 118.955C109.587 117.973 109.26 116.906 109.26 115.756V115.074H111.679V115.756ZM65.9786 160.803C65.986 158.795 66.2791 156.923 66.858 155.186C67.4443 153.449 68.2834 151.811 69.3753 150.272H72.4752C71.9549 151.027 71.4566 151.987 70.9802 153.152C70.5039 154.31 70.1155 155.56 69.815 156.901C69.5219 158.242 69.3753 159.543 69.3753 160.803C69.3753 162.064 69.5219 163.368 69.815 164.717C70.1155 166.058 70.5039 167.307 70.9802 168.465C71.4566 169.623 71.9549 170.587 72.4752 171.356H69.3753C68.2907 169.802 67.4553 168.157 66.869 166.42C66.2828 164.676 65.986 162.804 65.9786 160.803ZM87.9368 155.428H83.232V153.152H87.9368V155.428ZM79.8463 152.295C79.8463 153.687 79.6411 154.974 79.2307 156.153C78.8204 157.326 78.2011 158.352 77.373 159.231C76.5522 160.103 75.5299 160.763 74.3061 161.21L72.7891 158.989C73.8664 158.63 74.7605 158.11 75.4713 157.429C76.1895 156.747 76.7208 155.97 77.0652 155.098C77.4097 154.226 77.5819 153.292 77.5819 152.295V150.119H79.8463V152.295ZM80.4069 152.317C80.4069 153.218 80.5718 154.076 80.9016 154.889C81.2314 155.695 81.737 156.421 82.4186 157.066C83.1074 157.703 83.9648 158.198 84.9908 158.55L83.4629 160.726C82.305 160.287 81.3303 159.653 80.5389 158.825C79.7547 157.989 79.1648 157.018 78.7691 155.912C78.3733 154.805 78.1755 153.607 78.1755 152.317V150.119H80.4069V152.317ZM89.7835 163.683H86.9914V148.909H89.7835V163.683ZM90.2122 168.553H76.4606V166.288H90.2122V168.553ZM79.2967 167.52H76.4606V162.133H79.2967V167.52ZM93.758 158.044C95.3922 158.037 96.7186 158.004 97.7373 157.945C98.7632 157.887 99.7855 157.766 100.804 157.582L101.079 159.847C99.9724 160.03 98.8878 160.158 97.8252 160.232C96.7699 160.298 95.4142 160.331 93.758 160.331H92.4059V158.044H93.758ZM100.31 152.471H95.0881V159.286H92.4059V150.217H100.31V152.471ZM100.123 156.252H94.2856V154.131H100.123V156.252ZM108.895 161.1H106.223V148.909H108.895V161.1ZM106.982 156.032H103.739V153.79H106.982V156.032ZM104.487 160.968H101.892V149.25H104.487V160.968ZM108.895 168.894H106.114V164.178H95.0661V161.935H108.895V168.894ZM117.464 152.207C117.464 153.482 117.255 154.684 116.837 155.813C116.42 156.941 115.786 157.927 114.936 158.77C114.093 159.605 113.056 160.224 111.825 160.627L110.374 158.418C111.429 158.066 112.316 157.568 113.034 156.923C113.759 156.278 114.298 155.549 114.65 154.735C115.002 153.915 115.178 153.072 115.178 152.207V150.855H117.464V152.207ZM118.036 152.174C118.036 152.995 118.2 153.786 118.53 154.549C118.867 155.311 119.38 156 120.069 156.615C120.758 157.223 121.615 157.7 122.641 158.044L121.256 160.221C120.047 159.832 119.029 159.239 118.2 158.44C117.38 157.634 116.768 156.692 116.365 155.615C115.962 154.538 115.76 153.391 115.76 152.174V150.855H118.036V152.174ZM125.357 155.989H121.454V153.691H125.357V155.989ZM122.026 152.24H111.165V149.998H122.026V152.24ZM127.346 168.894H124.554V163.936H113.606V161.683H127.346V168.894ZM127.346 160.803H124.554V148.865H127.346V160.803ZM134.816 155.186C135.403 156.923 135.699 158.795 135.707 160.803C135.699 162.804 135.403 164.676 134.816 166.42C134.23 168.157 133.395 169.802 132.31 171.356H129.21C129.73 170.587 130.229 169.623 130.705 168.465C131.181 167.307 131.566 166.058 131.859 164.717C132.16 163.368 132.31 162.064 132.31 160.803C132.31 159.543 132.16 158.242 131.859 156.901C131.566 155.56 131.181 154.31 130.705 153.152C130.229 151.987 129.73 151.027 129.21 150.272H132.31C133.402 151.811 134.237 153.449 134.816 155.186Z" fill="#5BC4BF"/>
</g>
<g filter="url(#filter1_d_371_820)">
<rect x="208.156" y="43.5" width="147.726" height="159" rx="24" fill="#5BC4BF" shape-rendering="crispEdges"/>
<rect x="208.406" y="43.75" width="147.226" height="158.5" rx="23.75" stroke="#5BC4BF" stroke-width="0.5" shape-rendering="crispEdges"/>
<path d="M255.854 127.916H253.051V113.538H255.854V127.916ZM256.404 133.182H242.454V130.917H256.404V133.182ZM245.29 131.841H242.454V126.476H245.29V131.841ZM244.895 114.802C245.913 114.802 246.84 115.019 247.676 115.451C248.519 115.876 249.178 116.477 249.654 117.254C250.131 118.023 250.369 118.884 250.369 119.837C250.369 120.819 250.131 121.695 249.654 122.464C249.178 123.234 248.519 123.838 247.676 124.278C246.84 124.71 245.913 124.926 244.895 124.926C243.876 124.926 242.949 124.71 242.114 124.278C241.285 123.838 240.63 123.234 240.146 122.464C239.662 121.695 239.42 120.819 239.42 119.837C239.42 118.884 239.662 118.023 240.146 117.254C240.63 116.477 241.285 115.876 242.114 115.451C242.949 115.019 243.876 114.802 244.895 114.802ZM244.895 117.243C244.374 117.235 243.905 117.338 243.488 117.551C243.077 117.756 242.751 118.056 242.509 118.452C242.275 118.848 242.158 119.309 242.158 119.837C242.158 120.379 242.275 120.852 242.509 121.255C242.751 121.651 243.077 121.955 243.488 122.167C243.905 122.373 244.374 122.475 244.895 122.475C245.408 122.475 245.866 122.373 246.269 122.167C246.679 121.955 247.002 121.651 247.236 121.255C247.471 120.852 247.588 120.379 247.588 119.837C247.588 119.309 247.471 118.848 247.236 118.452C247.002 118.056 246.679 117.756 246.269 117.551C245.866 117.338 245.408 117.235 244.895 117.243ZM276.152 124.992H257.905V122.739H276.152V124.992ZM266.996 126.103C268.439 126.103 269.685 126.249 270.733 126.542C271.781 126.836 272.58 127.261 273.13 127.818C273.687 128.374 273.965 129.041 273.965 129.818C273.965 130.602 273.687 131.273 273.13 131.83C272.58 132.387 271.781 132.808 270.733 133.094C269.693 133.38 268.447 133.523 266.996 133.523C265.545 133.523 264.292 133.38 263.236 133.094C262.188 132.808 261.382 132.387 260.818 131.83C260.261 131.273 259.983 130.602 259.983 129.818C259.983 129.041 260.265 128.374 260.829 127.818C261.393 127.261 262.199 126.836 263.247 126.542C264.303 126.249 265.552 126.103 266.996 126.103ZM266.996 128.279C266.065 128.279 265.292 128.334 264.676 128.444C264.061 128.554 263.599 128.726 263.291 128.961C262.991 129.188 262.841 129.474 262.841 129.818C262.841 130.155 262.994 130.437 263.302 130.665C263.61 130.892 264.068 131.064 264.676 131.181C265.285 131.291 266.058 131.346 266.996 131.346C267.919 131.346 268.685 131.291 269.293 131.181C269.909 131.064 270.37 130.892 270.678 130.665C270.986 130.437 271.14 130.155 271.14 129.818C271.14 129.474 270.986 129.188 270.678 128.961C270.37 128.726 269.909 128.554 269.293 128.444C268.685 128.334 267.919 128.279 266.996 128.279ZM267.567 116.056C267.567 117.074 267.263 118.005 266.655 118.848C266.047 119.683 265.145 120.379 263.951 120.936C262.756 121.486 261.316 121.838 259.631 121.991L258.707 119.804C260.085 119.672 261.254 119.416 262.214 119.035C263.181 118.646 263.903 118.192 264.38 117.671C264.856 117.151 265.094 116.613 265.094 116.056V115.517H267.567V116.056ZM268.93 116.056C268.93 116.613 269.165 117.151 269.634 117.671C270.11 118.192 270.832 118.646 271.799 119.035C272.767 119.416 273.958 119.672 275.372 119.804L274.383 121.991C272.712 121.838 271.279 121.486 270.085 120.936C268.89 120.379 267.978 119.683 267.348 118.848C266.725 118.005 266.413 117.074 266.413 116.056V115.517H268.93V116.056ZM274.504 116.682H259.554V114.44H274.504V116.682ZM281.331 115.583H294.368V118.309H289.488V131.5H286.223V118.309H281.331V115.583ZM299.365 131.731C298.163 131.731 297.115 131.482 296.221 130.983C295.335 130.485 294.649 129.774 294.166 128.851C293.689 127.927 293.451 126.843 293.451 125.597C293.451 124.366 293.689 123.285 294.166 122.354C294.649 121.416 295.327 120.691 296.199 120.178C297.071 119.665 298.083 119.408 299.233 119.408C300.31 119.408 301.27 119.635 302.113 120.09C302.956 120.537 303.619 121.215 304.103 122.123C304.587 123.032 304.828 124.142 304.828 125.454V126.367H294.781V124.333H301.761C301.761 123.849 301.655 123.421 301.443 123.047C301.23 122.666 300.937 122.369 300.563 122.156C300.19 121.944 299.765 121.838 299.288 121.838C298.783 121.838 298.332 121.955 297.936 122.189C297.54 122.417 297.229 122.732 297.002 123.135C296.782 123.538 296.668 123.977 296.661 124.454V126.367C296.661 126.96 296.775 127.48 297.002 127.927C297.229 128.374 297.548 128.715 297.958 128.95C298.376 129.184 298.859 129.302 299.409 129.302C299.776 129.302 300.109 129.25 300.409 129.148C300.71 129.038 300.963 128.898 301.168 128.73C301.38 128.554 301.542 128.349 301.652 128.114H304.751C304.598 128.84 304.279 129.477 303.795 130.027C303.319 130.569 302.7 130.991 301.937 131.291C301.183 131.584 300.325 131.731 299.365 131.731ZM313.013 123.113C312.94 122.673 312.731 122.332 312.386 122.09C312.042 121.849 311.599 121.728 311.056 121.728C310.705 121.728 310.389 121.779 310.111 121.882C309.832 121.977 309.609 122.12 309.44 122.31C309.279 122.493 309.199 122.702 309.199 122.937C309.191 123.215 309.308 123.457 309.55 123.662C309.799 123.868 310.195 124.025 310.738 124.135L312.892 124.575C314.05 124.809 314.911 125.194 315.475 125.729C316.047 126.257 316.333 126.949 316.333 127.807C316.333 128.583 316.109 129.269 315.662 129.862C315.222 130.448 314.603 130.906 313.804 131.236C313.013 131.566 312.09 131.731 311.034 131.731C309.972 131.731 309.052 131.581 308.275 131.28C307.506 130.972 306.897 130.54 306.45 129.983C306.003 129.419 305.736 128.748 305.648 127.971H308.913C309.008 128.426 309.235 128.774 309.594 129.016C309.961 129.25 310.444 129.367 311.045 129.367C311.434 129.367 311.774 129.32 312.068 129.225C312.368 129.129 312.599 128.99 312.76 128.807C312.929 128.616 313.013 128.396 313.013 128.147C313.013 127.825 312.881 127.565 312.617 127.367C312.361 127.169 311.954 127.015 311.397 126.905L309.418 126.509C308.275 126.282 307.41 125.883 306.824 125.311C306.245 124.74 305.959 124.014 305.967 123.135C305.967 122.373 306.172 121.713 306.582 121.156C306.993 120.592 307.575 120.159 308.33 119.859C309.092 119.558 309.986 119.408 311.012 119.408C312.009 119.408 312.877 119.558 313.618 119.859C314.358 120.159 314.937 120.588 315.354 121.145C315.772 121.702 316.007 122.358 316.058 123.113H313.013ZM323.946 122.002H316.801V119.562H323.946V122.002ZM321.703 116.704V127.829C321.703 128.136 321.747 128.378 321.835 128.554C321.93 128.723 322.059 128.843 322.22 128.917C322.388 128.983 322.594 129.019 322.835 129.027C323.143 129.034 323.568 129.016 324.111 128.972V131.544C323.62 131.625 323.052 131.665 322.407 131.665C321.601 131.665 320.901 131.544 320.307 131.302C319.714 131.053 319.252 130.676 318.922 130.17C318.592 129.664 318.431 129.034 318.438 128.279V116.704H321.703Z" fill="white"/>
</g>
<path d="M355.748 120.686L414.45 120.686" stroke="#5BC4BF" stroke-width="0.5"/>
<path d="M557.259 24.0273L443.593 24.0273L443.593 217.342L557.259 217.342" stroke="#5BC4BF" stroke-width="0.5"/>
<rect x="384.802" y="85.1855" width="117.582" height="71" rx="17.5" fill="white"/>
<rect x="384.802" y="85.1855" width="117.582" height="71" rx="17.5" stroke="#5BC4BF"/>
<path d="M417.788 107.061C417.7 106.581 417.515 106.173 417.233 105.834C416.957 105.49 416.611 105.23 416.194 105.053C415.783 104.876 415.338 104.787 414.858 104.787C414.207 104.787 413.624 104.954 413.108 105.287C412.593 105.615 412.187 106.1 411.89 106.74C411.598 107.376 411.452 108.139 411.452 109.029C411.452 109.93 411.598 110.699 411.89 111.334C412.187 111.969 412.593 112.451 413.108 112.779C413.624 113.107 414.205 113.271 414.851 113.271C415.33 113.271 415.772 113.183 416.179 113.006C416.585 112.829 416.931 112.574 417.218 112.24C417.504 111.902 417.694 111.501 417.788 111.037L419.515 111.045C419.395 111.779 419.121 112.436 418.694 113.014C418.272 113.592 417.731 114.042 417.069 114.365C416.408 114.683 415.666 114.842 414.843 114.842C413.858 114.842 412.981 114.607 412.21 114.139C411.444 113.67 410.843 112.995 410.405 112.115C409.973 111.235 409.757 110.206 409.757 109.029C409.757 107.842 409.976 106.811 410.413 105.936C410.851 105.061 411.452 104.389 412.218 103.92C412.989 103.451 413.864 103.217 414.843 103.217C415.64 103.217 416.369 103.37 417.03 103.678C417.697 103.98 418.246 104.42 418.679 104.998C419.111 105.576 419.39 106.264 419.515 107.061H417.788ZM424.827 114.857C424.035 114.857 423.338 114.675 422.733 114.311C422.134 113.946 421.671 113.433 421.343 112.771C421.015 112.11 420.851 111.347 420.851 110.482C420.851 109.607 421.015 108.839 421.343 108.178C421.671 107.516 422.134 107.003 422.733 106.639C423.338 106.274 424.035 106.092 424.827 106.092C425.614 106.092 426.306 106.274 426.905 106.639C427.504 107.003 427.965 107.516 428.288 108.178C428.611 108.839 428.772 109.607 428.772 110.482C428.772 111.347 428.611 112.11 428.288 112.771C427.965 113.433 427.504 113.946 426.905 114.311C426.306 114.675 425.614 114.857 424.827 114.857ZM424.827 113.467C425.327 113.467 425.746 113.334 426.085 113.068C426.424 112.798 426.676 112.438 426.843 111.99C427.009 111.537 427.093 111.032 427.093 110.475C427.093 109.917 427.009 109.412 426.843 108.959C426.676 108.506 426.424 108.146 426.085 107.881C425.746 107.61 425.327 107.475 424.827 107.475C424.327 107.475 423.905 107.61 423.562 107.881C423.218 108.146 422.96 108.506 422.788 108.959C422.616 109.412 422.53 109.917 422.53 110.475C422.53 111.032 422.616 111.537 422.788 111.99C422.96 112.438 423.218 112.798 423.562 113.068C423.905 113.334 424.327 113.467 424.827 113.467ZM435.562 110.842C435.426 110.842 435.002 110.868 434.288 110.92L433.444 110.982C432.882 111.024 432.444 111.154 432.132 111.373C431.825 111.592 431.671 111.904 431.671 112.311C431.671 112.576 431.739 112.8 431.874 112.982C432.009 113.16 432.2 113.298 432.444 113.396C432.689 113.49 432.968 113.537 433.28 113.537C433.723 113.537 434.106 113.451 434.429 113.279C434.757 113.102 435.009 112.868 435.187 112.576C435.364 112.279 435.452 111.962 435.452 111.623L435.444 108.951C435.444 108.628 435.379 108.355 435.249 108.131C435.124 107.902 434.931 107.73 434.671 107.615C434.41 107.495 434.093 107.436 433.718 107.436C433.244 107.436 432.856 107.535 432.554 107.732C432.257 107.925 432.064 108.186 431.976 108.514H430.304C430.361 108.04 430.538 107.62 430.835 107.256C431.132 106.891 431.533 106.607 432.038 106.404C432.543 106.196 433.121 106.092 433.772 106.092C434.319 106.092 434.838 106.175 435.327 106.342C435.822 106.503 436.241 106.805 436.585 107.248C436.929 107.686 437.101 108.287 437.101 109.053V114.686H435.483V113.521H435.421C435.306 113.756 435.14 113.975 434.921 114.178C434.702 114.381 434.421 114.548 434.077 114.678C433.739 114.808 433.348 114.873 432.905 114.873C432.358 114.873 431.869 114.771 431.437 114.568C431.004 114.365 430.663 114.068 430.413 113.678C430.163 113.287 430.038 112.826 430.038 112.295C430.038 111.41 430.335 110.779 430.929 110.404C431.528 110.029 432.288 109.813 433.21 109.756C433.335 109.74 433.83 109.709 434.694 109.662L435.546 109.631L435.562 110.842ZM442.718 114.857C441.91 114.857 441.205 114.67 440.601 114.295C440.002 113.92 439.541 113.402 439.218 112.74C438.9 112.079 438.741 111.326 438.741 110.482C438.741 109.623 438.905 108.863 439.233 108.201C439.562 107.535 440.022 107.016 440.616 106.646C441.21 106.277 441.9 106.092 442.687 106.092C443.332 106.092 443.91 106.209 444.421 106.443C444.931 106.678 445.34 107.011 445.647 107.443C445.955 107.876 446.14 108.376 446.202 108.943H444.577C444.52 108.673 444.408 108.428 444.241 108.209C444.08 107.985 443.871 107.808 443.616 107.678C443.361 107.548 443.064 107.482 442.726 107.482C442.267 107.482 441.864 107.602 441.515 107.842C441.171 108.081 440.903 108.423 440.71 108.865C440.517 109.308 440.421 109.831 440.421 110.436C440.421 111.045 440.515 111.576 440.702 112.029C440.895 112.477 441.163 112.824 441.507 113.068C441.851 113.313 442.257 113.436 442.726 113.436C443.038 113.436 443.322 113.381 443.577 113.271C443.838 113.157 444.054 112.99 444.226 112.771C444.397 112.553 444.515 112.292 444.577 111.99H446.202C446.14 112.542 445.957 113.035 445.655 113.467C445.358 113.899 444.957 114.24 444.452 114.49C443.947 114.735 443.369 114.857 442.718 114.857ZM449.452 114.686H447.788V103.373H449.429V107.584H449.538C449.741 107.11 450.049 106.743 450.46 106.482C450.877 106.222 451.405 106.092 452.046 106.092C452.64 106.092 453.153 106.214 453.585 106.459C454.022 106.699 454.358 107.058 454.593 107.537C454.832 108.016 454.952 108.6 454.952 109.287V114.686H453.288V109.482C453.288 109.076 453.215 108.727 453.069 108.436C452.924 108.139 452.715 107.915 452.444 107.764C452.174 107.613 451.851 107.537 451.476 107.537C451.08 107.537 450.731 107.62 450.429 107.787C450.132 107.949 449.895 108.191 449.718 108.514C449.541 108.831 449.452 109.212 449.452 109.654V114.686ZM456.991 106.201H458.655V114.686H456.991V106.201ZM457.819 104.889C457.632 104.889 457.457 104.847 457.296 104.764C457.134 104.675 457.007 104.555 456.913 104.404C456.819 104.248 456.772 104.081 456.772 103.904C456.772 103.722 456.819 103.558 456.913 103.412C457.007 103.261 457.134 103.141 457.296 103.053C457.457 102.964 457.632 102.92 457.819 102.92C458.017 102.92 458.197 102.964 458.358 103.053C458.52 103.141 458.645 103.261 458.733 103.412C458.827 103.558 458.874 103.722 458.874 103.904C458.874 104.081 458.827 104.248 458.733 104.404C458.645 104.555 458.52 104.675 458.358 104.764C458.197 104.847 458.017 104.889 457.819 104.889ZM462.358 114.686H460.694V106.201H462.288V107.584H462.397C462.606 107.11 462.918 106.743 463.335 106.482C463.757 106.222 464.28 106.092 464.905 106.092C465.489 106.092 465.994 106.214 466.421 106.459C466.853 106.699 467.187 107.058 467.421 107.537C467.66 108.016 467.78 108.6 467.78 109.287V114.686H466.116V109.482C466.116 109.076 466.046 108.727 465.905 108.436C465.765 108.144 465.562 107.923 465.296 107.771C465.03 107.615 464.707 107.537 464.327 107.537C463.942 107.537 463.601 107.62 463.304 107.787C463.007 107.949 462.775 108.191 462.608 108.514C462.442 108.831 462.358 109.212 462.358 109.654V114.686ZM473.374 118.045C472.671 118.045 472.049 117.943 471.507 117.74C470.965 117.542 470.535 117.253 470.218 116.873C469.905 116.493 469.726 116.04 469.679 115.514H471.374C471.457 115.91 471.674 116.206 472.022 116.404C472.377 116.602 472.835 116.701 473.397 116.701C474.085 116.701 474.616 116.548 474.991 116.24C475.366 115.933 475.554 115.456 475.554 114.811V113.146H475.452C475.312 113.402 475.153 113.628 474.976 113.826C474.799 114.019 474.543 114.191 474.21 114.342C473.877 114.488 473.47 114.561 472.991 114.561C472.319 114.561 471.713 114.396 471.171 114.068C470.634 113.74 470.21 113.258 469.897 112.623C469.59 111.988 469.437 111.23 469.437 110.35C469.437 109.469 469.59 108.709 469.897 108.068C470.205 107.423 470.627 106.933 471.163 106.6C471.705 106.261 472.319 106.092 473.007 106.092C473.486 106.092 473.89 106.17 474.218 106.326C474.546 106.482 474.788 106.652 474.944 106.834C475.101 107.016 475.275 107.261 475.468 107.568H475.569V106.201H477.21V114.873C477.21 115.571 477.046 116.157 476.718 116.631C476.39 117.11 475.939 117.464 475.366 117.693C474.793 117.928 474.129 118.045 473.374 118.045ZM473.358 113.178C473.827 113.178 474.228 113.066 474.562 112.842C474.895 112.618 475.147 112.3 475.319 111.889C475.491 111.472 475.577 110.972 475.577 110.389C475.577 109.811 475.491 109.305 475.319 108.873C475.147 108.436 474.895 108.1 474.562 107.865C474.233 107.631 473.832 107.514 473.358 107.514C472.884 107.514 472.481 107.639 472.147 107.889C471.814 108.133 471.562 108.475 471.39 108.912C471.218 109.344 471.132 109.837 471.132 110.389C471.132 110.946 471.218 111.436 471.39 111.857C471.562 112.274 471.814 112.6 472.147 112.834C472.481 113.063 472.884 113.178 473.358 113.178ZM420.132 127.373H424.163C425.028 127.373 425.752 127.521 426.335 127.818C426.924 128.11 427.364 128.524 427.655 129.061C427.947 129.597 428.093 130.219 428.093 130.928C428.093 131.626 427.947 132.238 427.655 132.764C427.364 133.285 426.921 133.691 426.327 133.982C425.739 134.274 425.015 134.42 424.155 134.42H421.101V132.928H423.991C424.543 132.928 424.994 132.85 425.343 132.693C425.692 132.537 425.947 132.311 426.108 132.014C426.275 131.717 426.358 131.355 426.358 130.928C426.358 130.485 426.275 130.11 426.108 129.803C425.947 129.49 425.689 129.253 425.335 129.092C424.981 128.93 424.53 128.85 423.983 128.85H421.851V138.686H420.132V127.373ZM428.515 138.686H426.554L423.819 133.584H425.726L428.515 138.686ZM433.405 138.857C432.588 138.857 431.871 138.678 431.257 138.318C430.647 137.959 430.179 137.451 429.851 136.795C429.522 136.139 429.358 135.376 429.358 134.506C429.358 133.636 429.522 132.868 429.851 132.201C430.179 131.529 430.64 131.011 431.233 130.646C431.827 130.277 432.512 130.092 433.288 130.092C433.976 130.092 434.603 130.24 435.171 130.537C435.739 130.829 436.194 131.295 436.538 131.936C436.882 132.571 437.054 133.376 437.054 134.35V134.936H430.296V133.693H435.421C435.421 133.261 435.332 132.878 435.155 132.545C434.983 132.206 434.736 131.941 434.413 131.748C434.09 131.555 433.72 131.459 433.304 131.459C432.851 131.459 432.452 131.568 432.108 131.787C431.765 132.006 431.496 132.3 431.304 132.67C431.111 133.04 431.015 133.436 431.015 133.857V134.826C431.015 135.383 431.114 135.863 431.312 136.264C431.515 136.665 431.796 136.969 432.155 137.178C432.52 137.386 432.939 137.49 433.413 137.49C433.715 137.49 433.989 137.449 434.233 137.365C434.478 137.277 434.687 137.167 434.858 137.037C435.03 136.902 435.163 136.743 435.257 136.561H436.952C436.827 137.019 436.603 137.42 436.28 137.764C435.957 138.107 435.549 138.376 435.054 138.568C434.564 138.761 434.015 138.857 433.405 138.857ZM438.702 130.201H440.319V131.568H440.46C440.621 131.292 440.785 131.055 440.952 130.857C441.119 130.66 441.364 130.482 441.687 130.326C442.015 130.17 442.421 130.092 442.905 130.092C443.588 130.092 444.197 130.266 444.733 130.615C445.275 130.959 445.697 131.462 445.999 132.123C446.301 132.779 446.452 133.558 446.452 134.459C446.452 135.35 446.301 136.128 445.999 136.795C445.702 137.456 445.283 137.964 444.741 138.318C444.205 138.667 443.595 138.842 442.913 138.842C442.444 138.842 442.043 138.764 441.71 138.607C441.382 138.446 441.129 138.266 440.952 138.068C440.775 137.87 440.611 137.639 440.46 137.373H440.366V141.873H438.702V130.201ZM440.327 134.436C440.327 135.029 440.413 135.553 440.585 136.006C440.757 136.454 441.009 136.803 441.343 137.053C441.676 137.303 442.077 137.428 442.546 137.428C443.02 137.428 443.426 137.3 443.765 137.045C444.103 136.785 444.356 136.43 444.522 135.982C444.689 135.529 444.772 135.014 444.772 134.436C444.772 133.868 444.689 133.363 444.522 132.92C444.356 132.477 444.106 132.133 443.772 131.889C443.439 131.639 443.03 131.514 442.546 131.514C442.072 131.514 441.668 131.633 441.335 131.873C441.007 132.113 440.757 132.451 440.585 132.889C440.413 133.326 440.327 133.842 440.327 134.436ZM451.71 138.857C450.918 138.857 450.22 138.675 449.616 138.311C449.017 137.946 448.554 137.433 448.226 136.771C447.897 136.11 447.733 135.347 447.733 134.482C447.733 133.607 447.897 132.839 448.226 132.178C448.554 131.516 449.017 131.003 449.616 130.639C450.22 130.274 450.918 130.092 451.71 130.092C452.496 130.092 453.189 130.274 453.788 130.639C454.387 131.003 454.848 131.516 455.171 132.178C455.494 132.839 455.655 133.607 455.655 134.482C455.655 135.347 455.494 136.11 455.171 136.771C454.848 137.433 454.387 137.946 453.788 138.311C453.189 138.675 452.496 138.857 451.71 138.857ZM451.71 137.467C452.21 137.467 452.629 137.334 452.968 137.068C453.306 136.798 453.559 136.438 453.726 135.99C453.892 135.537 453.976 135.032 453.976 134.475C453.976 133.917 453.892 133.412 453.726 132.959C453.559 132.506 453.306 132.146 452.968 131.881C452.629 131.61 452.21 131.475 451.71 131.475C451.21 131.475 450.788 131.61 450.444 131.881C450.101 132.146 449.843 132.506 449.671 132.959C449.499 133.412 449.413 133.917 449.413 134.475C449.413 135.032 449.499 135.537 449.671 135.99C449.843 136.438 450.101 136.798 450.444 137.068C450.788 137.334 451.21 137.467 451.71 137.467ZM457.327 130.201H458.937V131.561H459.03C459.181 131.092 459.452 130.727 459.843 130.467C460.233 130.201 460.674 130.068 461.163 130.068C461.424 130.068 461.663 130.084 461.882 130.115V131.709C461.814 131.683 461.692 131.66 461.515 131.639C461.338 131.613 461.168 131.6 461.007 131.6C460.632 131.6 460.291 131.683 459.983 131.85C459.676 132.011 459.434 132.238 459.257 132.529C459.08 132.821 458.991 133.149 458.991 133.514V138.686H457.327V130.201ZM467.593 131.529H462.952V130.201H467.593V131.529ZM465.874 128.17V136.193C465.874 136.495 465.918 136.727 466.007 136.889C466.095 137.05 466.213 137.162 466.358 137.225C466.504 137.287 466.679 137.318 466.882 137.318C467.132 137.318 467.41 137.308 467.718 137.287V138.725C467.421 138.771 467.077 138.795 466.687 138.795C466.233 138.795 465.817 138.712 465.437 138.545C465.062 138.373 464.759 138.118 464.53 137.779C464.306 137.436 464.194 137.019 464.194 136.529V128.17H465.874Z" fill="#5BC4BF"/>
<rect x="481.276" y="0.527344" width="59.2962" height="47" rx="17.5" fill="white"/>
<rect x="481.276" y="0.527344" width="59.2962" height="47" rx="17.5" stroke="#5BC4BF"/>
<path d="M493.924 18.7148H498.346C499.189 18.7148 499.916 18.8763 500.525 19.1992C501.14 19.5169 501.606 19.9648 501.924 20.543C502.242 21.1211 502.4 21.7852 502.4 22.5352C502.4 23.2904 502.236 23.9544 501.908 24.5273C501.585 25.0951 501.114 25.5404 500.494 25.8633C499.88 26.181 499.145 26.3398 498.291 26.3398H495.447V24.4492H497.924C498.377 24.4492 498.757 24.3711 499.064 24.2148C499.377 24.0534 499.609 23.8294 499.76 23.543C499.911 23.2565 499.986 22.9206 499.986 22.5352C499.986 22.1497 499.911 21.8164 499.76 21.5352C499.609 21.2487 499.377 21.0299 499.064 20.8789C498.757 20.7227 498.374 20.6445 497.916 20.6445H496.268V30.0273H493.924V18.7148ZM508.596 26.3633C508.387 26.3685 508.02 26.3893 507.494 26.4258L506.744 26.4883C506.333 26.5195 506.01 26.6315 505.775 26.8242C505.541 27.0117 505.424 27.2669 505.424 27.5898C505.424 27.7982 505.476 27.9753 505.58 28.1211C505.689 28.2669 505.84 28.3789 506.033 28.457C506.231 28.5352 506.452 28.5742 506.697 28.5742C507.046 28.5742 507.356 28.5065 507.627 28.3711C507.898 28.2305 508.109 28.0404 508.26 27.8008C508.411 27.556 508.486 27.2878 508.486 26.9961L508.471 24.2539C508.471 24.0143 508.419 23.8112 508.314 23.6445C508.215 23.4727 508.062 23.3451 507.854 23.2617C507.65 23.1732 507.408 23.1289 507.127 23.1289C506.736 23.1289 506.419 23.2122 506.174 23.3789C505.929 23.5404 505.775 23.7695 505.713 24.0664H503.51C503.562 23.5664 503.736 23.1185 504.033 22.7227C504.335 22.3216 504.752 22.0065 505.283 21.7773C505.82 21.5482 506.452 21.4336 507.182 21.4336C507.838 21.4336 508.437 21.5352 508.979 21.7383C509.52 21.9414 509.955 22.2591 510.283 22.6914C510.617 23.1185 510.783 23.6576 510.783 24.3086V30.0273H508.588V28.8555H508.525C508.385 29.1211 508.2 29.3529 507.971 29.5508C507.742 29.7487 507.465 29.9049 507.143 30.0195C506.825 30.1289 506.455 30.1836 506.033 30.1836C505.486 30.1836 505.002 30.0872 504.58 29.8945C504.158 29.7018 503.825 29.4154 503.58 29.0352C503.335 28.6549 503.213 28.1966 503.213 27.6602C503.213 26.7747 503.505 26.1315 504.088 25.7305C504.676 25.3294 505.437 25.1003 506.369 25.043C506.525 25.0273 507.007 25.0013 507.814 24.9648L508.58 24.9336L508.596 26.3633ZM517.385 24.0664C517.333 23.7539 517.184 23.5117 516.939 23.3398C516.695 23.168 516.38 23.082 515.994 23.082C515.744 23.082 515.52 23.1185 515.322 23.1914C515.124 23.2591 514.965 23.3607 514.846 23.4961C514.731 23.6263 514.674 23.7747 514.674 23.9414C514.669 24.1393 514.752 24.3112 514.924 24.457C515.101 24.6029 515.382 24.7148 515.768 24.793L517.299 25.1055C518.122 25.2721 518.734 25.5456 519.135 25.9258C519.541 26.3008 519.744 26.793 519.744 27.4023C519.744 27.9544 519.585 28.4414 519.268 28.8633C518.955 29.2799 518.515 29.6055 517.947 29.8398C517.385 30.0742 516.729 30.1914 515.979 30.1914C515.223 30.1914 514.57 30.0846 514.018 29.8711C513.471 29.6523 513.038 29.3451 512.721 28.9492C512.403 28.5482 512.213 28.0716 512.15 27.5195H514.471C514.538 27.8424 514.7 28.0898 514.955 28.2617C515.215 28.4284 515.559 28.5117 515.986 28.5117C516.262 28.5117 516.505 28.4779 516.713 28.4102C516.926 28.3424 517.09 28.2435 517.205 28.1133C517.325 27.9779 517.385 27.8216 517.385 27.6445C517.385 27.4154 517.291 27.2305 517.104 27.0898C516.921 26.9492 516.632 26.8398 516.236 26.7617L514.83 26.4805C514.018 26.319 513.403 26.0352 512.986 25.6289C512.575 25.2227 512.372 24.707 512.377 24.082C512.377 23.5404 512.523 23.0716 512.814 22.6758C513.106 22.2747 513.52 21.9674 514.057 21.7539C514.598 21.5404 515.234 21.4336 515.963 21.4336C516.671 21.4336 517.288 21.5404 517.814 21.7539C518.34 21.9674 518.752 22.2721 519.049 22.668C519.346 23.0638 519.512 23.5299 519.549 24.0664H517.385ZM526.01 24.0664C525.958 23.7539 525.809 23.5117 525.564 23.3398C525.32 23.168 525.005 23.082 524.619 23.082C524.369 23.082 524.145 23.1185 523.947 23.1914C523.749 23.2591 523.59 23.3607 523.471 23.4961C523.356 23.6263 523.299 23.7747 523.299 23.9414C523.294 24.1393 523.377 24.3112 523.549 24.457C523.726 24.6029 524.007 24.7148 524.393 24.793L525.924 25.1055C526.747 25.2721 527.359 25.5456 527.76 25.9258C528.166 26.3008 528.369 26.793 528.369 27.4023C528.369 27.9544 528.21 28.4414 527.893 28.8633C527.58 29.2799 527.14 29.6055 526.572 29.8398C526.01 30.0742 525.354 30.1914 524.604 30.1914C523.848 30.1914 523.195 30.0846 522.643 29.8711C522.096 29.6523 521.663 29.3451 521.346 28.9492C521.028 28.5482 520.838 28.0716 520.775 27.5195H523.096C523.163 27.8424 523.325 28.0898 523.58 28.2617C523.84 28.4284 524.184 28.5117 524.611 28.5117C524.887 28.5117 525.13 28.4779 525.338 28.4102C525.551 28.3424 525.715 28.2435 525.83 28.1133C525.95 27.9779 526.01 27.8216 526.01 27.6445C526.01 27.4154 525.916 27.2305 525.729 27.0898C525.546 26.9492 525.257 26.8398 524.861 26.7617L523.455 26.4805C522.643 26.319 522.028 26.0352 521.611 25.6289C521.2 25.2227 520.997 24.707 521.002 24.082C521.002 23.5404 521.148 23.0716 521.439 22.6758C521.731 22.2747 522.145 21.9674 522.682 21.7539C523.223 21.5404 523.859 21.4336 524.588 21.4336C525.296 21.4336 525.913 21.5404 526.439 21.7539C526.965 21.9674 527.377 22.2721 527.674 22.668C527.971 23.0638 528.137 23.5299 528.174 24.0664H526.01Z" fill="#5BC4BF"/>
<rect x="568.705" y="0.5" width="160.795" height="47" rx="17.5" fill="#5BC4BF"/>
<rect x="568.705" y="0.5" width="160.795" height="47" rx="17.5" stroke="#5BC4BF"/>
<path d="M608.517 27.4531H606.524V17.2344H608.517V27.4531ZM608.907 31.1953H598.993V29.5859H608.907V31.1953ZM601.009 30.2422H598.993V26.4297H601.009V30.2422ZM600.728 18.1328C601.451 18.1328 602.11 18.2865 602.704 18.5938C603.303 18.8958 603.772 19.3229 604.11 19.875C604.449 20.4219 604.618 21.0339 604.618 21.7109C604.618 22.4089 604.449 23.0312 604.11 23.5781C603.772 24.125 603.303 24.5547 602.704 24.8672C602.11 25.1745 601.451 25.3281 600.728 25.3281C600.004 25.3281 599.345 25.1745 598.751 24.8672C598.162 24.5547 597.696 24.125 597.353 23.5781C597.009 23.0312 596.837 22.4089 596.837 21.7109C596.837 21.0339 597.009 20.4219 597.353 19.875C597.696 19.3229 598.162 18.8958 598.751 18.5938C599.345 18.2865 600.004 18.1328 600.728 18.1328ZM600.728 19.8672C600.358 19.862 600.024 19.9349 599.728 20.0859C599.436 20.2318 599.204 20.4453 599.032 20.7266C598.866 21.0078 598.782 21.3359 598.782 21.7109C598.782 22.0964 598.866 22.4323 599.032 22.7188C599.204 23 599.436 23.2161 599.728 23.3672C600.024 23.513 600.358 23.5859 600.728 23.5859C601.092 23.5859 601.418 23.513 601.704 23.3672C601.996 23.2161 602.225 23 602.392 22.7188C602.558 22.4323 602.642 22.0964 602.642 21.7109C602.642 21.3359 602.558 21.0078 602.392 20.7266C602.225 20.4453 601.996 20.2318 601.704 20.0859C601.418 19.9349 601.092 19.862 600.728 19.8672ZM623.423 25.375H610.454V23.7734H623.423V25.375ZM616.915 26.1641C617.941 26.1641 618.826 26.2682 619.571 26.4766C620.316 26.6849 620.884 26.987 621.274 27.3828C621.67 27.7786 621.868 28.2526 621.868 28.8047C621.868 29.362 621.67 29.8385 621.274 30.2344C620.884 30.6302 620.316 30.9297 619.571 31.1328C618.832 31.3359 617.946 31.4375 616.915 31.4375C615.884 31.4375 614.993 31.3359 614.243 31.1328C613.498 30.9297 612.925 30.6302 612.524 30.2344C612.129 29.8385 611.931 29.362 611.931 28.8047C611.931 28.2526 612.131 27.7786 612.532 27.3828C612.933 26.987 613.506 26.6849 614.251 26.4766C615.001 26.2682 615.889 26.1641 616.915 26.1641ZM616.915 27.7109C616.254 27.7109 615.704 27.75 615.267 27.8281C614.829 27.9062 614.501 28.0286 614.282 28.1953C614.069 28.3568 613.962 28.5599 613.962 28.8047C613.962 29.0443 614.071 29.2448 614.29 29.4062C614.509 29.5677 614.834 29.6901 615.267 29.7734C615.699 29.8516 616.248 29.8906 616.915 29.8906C617.571 29.8906 618.116 29.8516 618.548 29.7734C618.985 29.6901 619.313 29.5677 619.532 29.4062C619.751 29.2448 619.86 29.0443 619.86 28.8047C619.86 28.5599 619.751 28.3568 619.532 28.1953C619.313 28.0286 618.985 27.9062 618.548 27.8281C618.116 27.75 617.571 27.7109 616.915 27.7109ZM617.321 19.0234C617.321 19.7474 617.105 20.4089 616.673 21.0078C616.241 21.6016 615.6 22.0964 614.751 22.4922C613.902 22.8828 612.879 23.1328 611.681 23.2422L611.024 21.6875C612.004 21.5938 612.834 21.4115 613.517 21.1406C614.204 20.8646 614.717 20.5417 615.056 20.1719C615.394 19.8021 615.563 19.4193 615.563 19.0234V18.6406H617.321V19.0234ZM618.29 19.0234C618.29 19.4193 618.457 19.8021 618.79 20.1719C619.129 20.5417 619.642 20.8646 620.329 21.1406C621.017 21.4115 621.863 21.5938 622.868 21.6875L622.165 23.2422C620.978 23.1328 619.959 22.8828 619.11 22.4922C618.261 22.0964 617.613 21.6016 617.165 21.0078C616.722 20.4089 616.501 19.7474 616.501 19.0234V18.6406H618.29V19.0234ZM622.251 19.4688H611.626V17.875H622.251V19.4688ZM628.798 25.6875C628.803 24.2604 629.011 22.9297 629.423 21.6953C629.84 20.4609 630.436 19.2969 631.212 18.2031H633.415C633.045 18.7396 632.691 19.4219 632.353 20.25C632.014 21.0729 631.738 21.9609 631.524 22.9141C631.316 23.8672 631.212 24.7917 631.212 25.6875C631.212 26.5833 631.316 27.5104 631.524 28.4688C631.738 29.4219 632.014 30.3099 632.353 31.1328C632.691 31.9557 633.045 32.6406 633.415 33.1875H631.212C630.441 32.0833 629.847 30.9141 629.431 29.6797C629.014 28.4401 628.803 27.1094 628.798 25.6875ZM634.751 18.6875H639.251C640.058 18.6875 640.743 18.8099 641.306 19.0547C641.868 19.2943 642.29 19.6328 642.571 20.0703C642.858 20.5026 643.001 21.0104 643.001 21.5938C643.001 22.0208 642.912 22.401 642.735 22.7344C642.563 23.0677 642.324 23.3438 642.017 23.5625C641.715 23.776 641.363 23.9271 640.962 24.0156V24.125C641.394 24.1458 641.8 24.2708 642.181 24.5C642.561 24.7292 642.866 25.0495 643.095 25.4609C643.324 25.8672 643.438 26.3411 643.438 26.8828C643.438 27.487 643.29 28.0234 642.993 28.4922C642.696 28.9609 642.254 29.3307 641.665 29.6016C641.082 29.8672 640.376 30 639.548 30H634.751V18.6875ZM639.071 28.0703C639.514 28.0703 639.879 28.013 640.165 27.8984C640.457 27.7786 640.67 27.6146 640.806 27.4062C640.941 27.1927 641.009 26.9401 641.009 26.6484C641.009 26.3359 640.933 26.0547 640.782 25.8047C640.631 25.5547 640.412 25.3646 640.126 25.2344C639.845 25.099 639.514 25.0312 639.134 25.0312H637.095V28.0703H639.071ZM638.899 23.4297C639.228 23.4297 639.522 23.3698 639.782 23.25C640.048 23.1302 640.254 22.9609 640.399 22.7422C640.55 22.5234 640.626 22.2656 640.626 21.9688C640.626 21.6875 640.561 21.4453 640.431 21.2422C640.3 21.0339 640.108 20.875 639.853 20.7656C639.603 20.651 639.3 20.5938 638.946 20.5938H637.095V23.4297H638.899ZM649.86 26.3359C649.652 26.3411 649.285 26.362 648.759 26.3984L648.009 26.4609C647.597 26.4922 647.274 26.6042 647.04 26.7969C646.806 26.9844 646.688 27.2396 646.688 27.5625C646.688 27.7708 646.741 27.9479 646.845 28.0938C646.954 28.2396 647.105 28.3516 647.298 28.4297C647.496 28.5078 647.717 28.5469 647.962 28.5469C648.311 28.5469 648.621 28.4792 648.892 28.3438C649.162 28.2031 649.373 28.013 649.524 27.7734C649.675 27.5286 649.751 27.2604 649.751 26.9688L649.735 24.2266C649.735 23.987 649.683 23.7839 649.579 23.6172C649.48 23.4453 649.326 23.3177 649.118 23.2344C648.915 23.1458 648.673 23.1016 648.392 23.1016C648.001 23.1016 647.683 23.1849 647.438 23.3516C647.194 23.513 647.04 23.7422 646.978 24.0391H644.774C644.826 23.5391 645.001 23.0911 645.298 22.6953C645.6 22.2943 646.017 21.9792 646.548 21.75C647.084 21.5208 647.717 21.4062 648.446 21.4062C649.103 21.4062 649.701 21.5078 650.243 21.7109C650.785 21.9141 651.22 22.2318 651.548 22.6641C651.881 23.0911 652.048 23.6302 652.048 24.2812V30H649.853V28.8281H649.79C649.649 29.0938 649.465 29.3255 649.235 29.5234C649.006 29.7214 648.73 29.8776 648.407 29.9922C648.09 30.1016 647.72 30.1562 647.298 30.1562C646.751 30.1562 646.267 30.0599 645.845 29.8672C645.423 29.6745 645.09 29.388 644.845 29.0078C644.6 28.6276 644.478 28.1693 644.478 27.6328C644.478 26.7474 644.769 26.1042 645.353 25.7031C645.941 25.3021 646.701 25.0729 647.634 25.0156C647.79 25 648.272 24.974 649.079 24.9375L649.845 24.9062L649.86 26.3359ZM656.931 30.1328C656.28 30.1328 655.691 29.9635 655.165 29.625C654.644 29.2865 654.233 28.7891 653.931 28.1328C653.634 27.4714 653.485 26.6823 653.485 25.7656C653.485 24.8281 653.639 24.0312 653.946 23.375C654.254 22.7188 654.665 22.2266 655.181 21.8984C655.701 21.5703 656.285 21.4062 656.931 21.4062C657.379 21.4062 657.764 21.4818 658.087 21.6328C658.41 21.7786 658.665 21.9609 658.853 22.1797C659.04 22.3984 659.201 22.651 659.337 22.9375H659.407V18.6875H661.72V30H659.446V28.6484H659.337C659.196 28.9297 659.03 29.1745 658.837 29.3828C658.649 29.5911 658.394 29.7682 658.071 29.9141C657.748 30.0599 657.368 30.1328 656.931 30.1328ZM657.649 28.2891C658.03 28.2891 658.355 28.1849 658.626 27.9766C658.902 27.7682 659.11 27.4714 659.251 27.0859C659.397 26.7005 659.47 26.2552 659.47 25.75C659.47 25.2396 659.399 24.7969 659.259 24.4219C659.118 24.0469 658.91 23.7604 658.634 23.5625C658.363 23.3594 658.035 23.2578 657.649 23.2578C657.264 23.2578 656.936 23.362 656.665 23.5703C656.394 23.7734 656.188 24.0625 656.048 24.4375C655.912 24.8125 655.845 25.25 655.845 25.75C655.845 26.25 655.912 26.6927 656.048 27.0781C656.188 27.4583 656.394 27.7552 656.665 27.9688C656.936 28.1823 657.264 28.2891 657.649 28.2891ZM667.392 33.3594C666.631 33.3594 665.962 33.25 665.384 33.0312C664.811 32.8125 664.36 32.5026 664.032 32.1016C663.709 31.7005 663.524 31.2318 663.478 30.6953H665.751C665.824 31.0286 666.006 31.276 666.298 31.4375C666.59 31.599 666.972 31.6797 667.446 31.6797C668.014 31.6797 668.454 31.5495 668.767 31.2891C669.084 31.0339 669.243 30.625 669.243 30.0625V28.5H669.142C669.017 28.7656 668.853 29 668.649 29.2031C668.451 29.401 668.188 29.5651 667.86 29.6953C667.532 29.8203 667.149 29.8828 666.712 29.8828C666.061 29.8828 665.475 29.7266 664.954 29.4141C664.433 29.1016 664.022 28.6328 663.72 28.0078C663.418 27.3828 663.267 26.6146 663.267 25.7031C663.267 24.776 663.42 23.9896 663.728 23.3438C664.035 22.6979 664.446 22.2135 664.962 21.8906C665.483 21.5677 666.066 21.4062 666.712 21.4062C667.16 21.4062 667.545 21.4818 667.868 21.6328C668.191 21.7786 668.444 21.9557 668.626 22.1641C668.808 22.3724 668.978 22.6302 669.134 22.9375H669.228V21.5156H671.524V30.0938C671.524 30.7917 671.35 31.3854 671.001 31.875C670.652 32.3698 670.168 32.7396 669.548 32.9844C668.928 33.2344 668.209 33.3594 667.392 33.3594ZM667.431 28.1328C667.811 28.1328 668.136 28.0365 668.407 27.8438C668.683 27.651 668.892 27.375 669.032 27.0156C669.178 26.6562 669.251 26.2266 669.251 25.7266C669.251 25.2214 669.178 24.7839 669.032 24.4141C668.892 24.0391 668.686 23.7526 668.415 23.5547C668.144 23.3568 667.816 23.2578 667.431 23.2578C667.045 23.2578 666.717 23.362 666.446 23.5703C666.175 23.7734 665.97 24.0625 665.829 24.4375C665.694 24.8073 665.626 25.237 665.626 25.7266C665.626 26.2161 665.694 26.6406 665.829 27C665.97 27.3594 666.175 27.638 666.446 27.8359C666.717 28.0339 667.045 28.1328 667.431 28.1328ZM677.173 30.1641C676.319 30.1641 675.574 29.987 674.938 29.6328C674.308 29.2786 673.821 28.7734 673.478 28.1172C673.139 27.4609 672.97 26.6901 672.97 25.8047C672.97 24.9297 673.139 24.1615 673.478 23.5C673.821 22.8333 674.303 22.3177 674.923 21.9531C675.543 21.5885 676.261 21.4062 677.079 21.4062C677.845 21.4062 678.527 21.5677 679.126 21.8906C679.725 22.2083 680.196 22.6901 680.54 23.3359C680.884 23.9818 681.056 24.7708 681.056 25.7031V26.3516H673.915V24.9062H678.876C678.876 24.5625 678.8 24.2578 678.649 23.9922C678.498 23.7214 678.29 23.5104 678.024 23.3594C677.759 23.2083 677.457 23.1328 677.118 23.1328C676.759 23.1328 676.438 23.2161 676.157 23.3828C675.876 23.5443 675.655 23.7682 675.493 24.0547C675.337 24.3411 675.256 24.6536 675.251 24.9922V26.3516C675.251 26.7734 675.332 27.1432 675.493 27.4609C675.655 27.7786 675.881 28.0208 676.173 28.1875C676.47 28.3542 676.813 28.4375 677.204 28.4375C677.465 28.4375 677.701 28.401 677.915 28.3281C678.129 28.25 678.308 28.151 678.454 28.0312C678.605 27.9062 678.72 27.7604 678.798 27.5938H681.001C680.892 28.1094 680.665 28.5625 680.321 28.9531C679.983 29.3385 679.543 29.638 679.001 29.8516C678.465 30.0599 677.855 30.1641 677.173 30.1641ZM689.556 21.5781H691.501V29.375H689.556V21.5781ZM686.626 24.5078H694.438V26.4531H686.626V24.5078ZM700.126 21.6953C700.543 22.9297 700.754 24.2604 700.759 25.6875C700.754 27.1094 700.543 28.4401 700.126 29.6797C699.709 30.9141 699.116 32.0833 698.345 33.1875H696.142C696.511 32.6406 696.866 31.9557 697.204 31.1328C697.543 30.3099 697.816 29.4219 698.024 28.4688C698.238 27.5104 698.345 26.5833 698.345 25.6875C698.345 24.7917 698.238 23.8672 698.024 22.9141C697.816 21.9609 697.543 21.0729 697.204 20.25C696.866 19.4219 696.511 18.7396 696.142 18.2031H698.345C699.121 19.2969 699.715 20.4609 700.126 21.6953Z" fill="white"/>
<rect x="568.455" y="156.25" width="161.295" height="136.5" rx="29.75" stroke="#5BC4BF" stroke-width="0.5"/>
<rect x="581.103" y="168.5" width="136" height="47" rx="17.5" fill="white"/>
<rect x="581.103" y="168.5" width="136" height="47" rx="17.5" stroke="#5BC4BF"/>
<path d="M605.079 195.516H603.603V185.336H605.079V195.516ZM605.501 199.047H595.931V197.82H605.501V199.047ZM597.415 198.266H595.931V194.484H597.415V198.266ZM597.485 186.281C598.183 186.281 598.816 186.43 599.384 186.727C599.957 187.018 600.405 187.43 600.728 187.961C601.05 188.487 601.212 189.083 601.212 189.75C601.212 190.427 601.05 191.029 600.728 191.555C600.405 192.081 599.957 192.492 599.384 192.789C598.816 193.086 598.183 193.234 597.485 193.234C596.787 193.234 596.155 193.086 595.587 192.789C595.024 192.492 594.579 192.081 594.251 191.555C593.923 191.029 593.759 190.427 593.759 189.75C593.759 189.083 593.923 188.487 594.251 187.961C594.579 187.43 595.024 187.018 595.587 186.727C596.155 186.43 596.787 186.281 597.485 186.281ZM597.485 187.578C597.058 187.578 596.67 187.669 596.321 187.852C595.972 188.034 595.699 188.289 595.501 188.617C595.308 188.945 595.212 189.323 595.212 189.75C595.212 190.177 595.308 190.557 595.501 190.891C595.699 191.224 595.972 191.482 596.321 191.664C596.67 191.846 597.058 191.938 597.485 191.938C597.912 191.938 598.298 191.846 598.642 191.664C598.985 191.482 599.256 191.224 599.454 190.891C599.652 190.557 599.751 190.177 599.751 189.75C599.751 189.323 599.652 188.945 599.454 188.617C599.256 188.289 598.985 188.034 598.642 187.852C598.298 187.669 597.912 187.578 597.485 187.578ZM620.063 193.125H607.298V191.914H620.063V193.125ZM613.673 194.203C614.673 194.203 615.537 194.305 616.267 194.508C616.996 194.706 617.55 194.997 617.931 195.383C618.316 195.763 618.509 196.221 618.509 196.758C618.509 197.299 618.316 197.76 617.931 198.141C617.55 198.521 616.998 198.81 616.274 199.008C615.55 199.206 614.683 199.305 613.673 199.305C612.662 199.305 611.793 199.206 611.063 199.008C610.334 198.81 609.777 198.521 609.392 198.141C609.006 197.76 608.813 197.299 608.813 196.758C608.813 196.221 609.009 195.763 609.399 195.383C609.79 194.997 610.35 194.706 611.079 194.508C611.808 194.305 612.673 194.203 613.673 194.203ZM613.673 195.359C612.959 195.359 612.35 195.414 611.845 195.523C611.345 195.628 610.965 195.786 610.704 196C610.449 196.208 610.321 196.461 610.321 196.758C610.321 197.044 610.451 197.292 610.712 197.5C610.972 197.708 611.353 197.867 611.853 197.977C612.353 198.081 612.959 198.133 613.673 198.133C614.386 198.133 614.991 198.081 615.485 197.977C615.985 197.867 616.366 197.708 616.626 197.5C616.886 197.292 617.017 197.044 617.017 196.758C617.017 196.461 616.886 196.208 616.626 196C616.366 195.786 615.985 195.628 615.485 195.523C614.991 195.414 614.386 195.359 613.673 195.359ZM614.009 187.039C614.009 187.758 613.769 188.411 613.29 189C612.811 189.583 612.152 190.065 611.313 190.445C610.475 190.82 609.53 191.068 608.478 191.188L607.97 190.008C608.85 189.914 609.649 189.724 610.368 189.438C611.092 189.146 611.66 188.792 612.071 188.375C612.483 187.958 612.688 187.513 612.688 187.039V186.633H614.009V187.039ZM614.665 187.039C614.665 187.513 614.868 187.958 615.274 188.375C615.686 188.792 616.254 189.146 616.978 189.438C617.701 189.724 618.511 189.914 619.407 190.008L618.868 191.188C617.826 191.068 616.886 190.82 616.048 190.445C615.209 190.065 614.548 189.583 614.063 189C613.579 188.411 613.337 187.758 613.337 187.039V186.633H614.665V187.039ZM618.923 187.227H608.462V186.023H618.923V187.227ZM625.103 186.688H633.876V188.164H630.36V198H628.634V188.164H625.103V186.688ZM637.915 198.172C637.097 198.172 636.381 197.992 635.767 197.633C635.157 197.273 634.688 196.766 634.36 196.109C634.032 195.453 633.868 194.69 633.868 193.82C633.868 192.951 634.032 192.182 634.36 191.516C634.688 190.844 635.149 190.326 635.743 189.961C636.337 189.591 637.022 189.406 637.798 189.406C638.485 189.406 639.113 189.555 639.681 189.852C640.248 190.143 640.704 190.609 641.048 191.25C641.392 191.885 641.563 192.69 641.563 193.664V194.25H634.806V193.008H639.931C639.931 192.576 639.842 192.193 639.665 191.859C639.493 191.521 639.246 191.255 638.923 191.062C638.6 190.87 638.23 190.773 637.813 190.773C637.36 190.773 636.962 190.883 636.618 191.102C636.274 191.32 636.006 191.615 635.813 191.984C635.621 192.354 635.524 192.75 635.524 193.172V194.141C635.524 194.698 635.623 195.177 635.821 195.578C636.024 195.979 636.306 196.284 636.665 196.492C637.03 196.701 637.449 196.805 637.923 196.805C638.225 196.805 638.498 196.763 638.743 196.68C638.988 196.591 639.196 196.482 639.368 196.352C639.54 196.216 639.673 196.057 639.767 195.875H641.462C641.337 196.333 641.113 196.734 640.79 197.078C640.467 197.422 640.058 197.69 639.563 197.883C639.074 198.076 638.524 198.172 637.915 198.172ZM647.97 191.828C647.892 191.474 647.715 191.201 647.438 191.008C647.168 190.815 646.808 190.719 646.36 190.719C646.048 190.719 645.767 190.768 645.517 190.867C645.272 190.961 645.076 191.096 644.931 191.273C644.79 191.445 644.72 191.641 644.72 191.859C644.72 192.109 644.829 192.326 645.048 192.508C645.267 192.69 645.603 192.831 646.056 192.93L647.407 193.242C648.188 193.419 648.772 193.698 649.157 194.078C649.543 194.453 649.735 194.94 649.735 195.539C649.735 196.049 649.595 196.505 649.313 196.906C649.037 197.302 648.639 197.612 648.118 197.836C647.597 198.06 646.978 198.172 646.259 198.172C645.587 198.172 645.006 198.076 644.517 197.883C644.027 197.685 643.636 197.401 643.345 197.031C643.058 196.656 642.879 196.208 642.806 195.688H644.517C644.595 196.062 644.777 196.346 645.063 196.539C645.355 196.732 645.748 196.828 646.243 196.828C646.597 196.828 646.907 196.784 647.173 196.695C647.444 196.602 647.652 196.466 647.798 196.289C647.949 196.112 648.024 195.906 648.024 195.672C648.024 195.396 647.918 195.167 647.704 194.984C647.496 194.802 647.165 194.664 646.712 194.57L645.392 194.273C644.626 194.102 644.045 193.818 643.649 193.422C643.254 193.026 643.058 192.536 643.063 191.953C643.063 191.453 643.199 191.01 643.47 190.625C643.746 190.24 644.131 189.94 644.626 189.727C645.121 189.513 645.696 189.406 646.353 189.406C646.967 189.406 647.509 189.508 647.978 189.711C648.446 189.909 648.816 190.19 649.087 190.555C649.358 190.919 649.517 191.344 649.563 191.828H647.97ZM655.337 190.844H650.696V189.516H655.337V190.844ZM653.618 187.484V195.508C653.618 195.81 653.662 196.042 653.751 196.203C653.84 196.365 653.957 196.477 654.103 196.539C654.248 196.602 654.423 196.633 654.626 196.633C654.876 196.633 655.155 196.622 655.462 196.602V198.039C655.165 198.086 654.821 198.109 654.431 198.109C653.978 198.109 653.561 198.026 653.181 197.859C652.806 197.688 652.504 197.432 652.274 197.094C652.05 196.75 651.938 196.333 651.938 195.844V187.484H653.618ZM672.47 199.32H671.04V185.32H672.47V199.32ZM671.563 192.141H668.962V190.898H671.563V192.141ZM669.376 198.633H667.97V185.586H669.376V198.633ZM664.321 189.023C664.321 190.174 664.207 191.232 663.978 192.195C663.748 193.159 663.394 194.01 662.915 194.75C662.436 195.484 661.832 196.068 661.103 196.5L660.188 195.367C660.855 194.992 661.412 194.487 661.86 193.852C662.308 193.216 662.642 192.49 662.86 191.672C663.079 190.854 663.188 189.971 663.188 189.023V187.492H664.321V189.023ZM664.626 189.023C664.626 189.888 664.735 190.698 664.954 191.453C665.173 192.208 665.504 192.883 665.946 193.477C666.394 194.065 666.949 194.531 667.61 194.875L666.735 196.016C666.011 195.62 665.407 195.076 664.923 194.383C664.438 193.685 664.076 192.883 663.837 191.977C663.597 191.065 663.478 190.081 663.478 189.023V187.492H664.626V189.023ZM667.071 188.133H660.563V186.914H667.071V188.133ZM690.876 193.242H678.11V192.055H690.876V193.242ZM684.485 194.297C685.496 194.292 686.36 194.385 687.079 194.578C687.803 194.766 688.358 195.049 688.743 195.43C689.129 195.805 689.321 196.263 689.321 196.805C689.321 197.341 689.129 197.797 688.743 198.172C688.358 198.552 687.803 198.839 687.079 199.031C686.36 199.229 685.496 199.328 684.485 199.328C683.475 199.328 682.605 199.229 681.876 199.031C681.147 198.839 680.59 198.552 680.204 198.172C679.819 197.797 679.626 197.341 679.626 196.805C679.626 196.263 679.819 195.805 680.204 195.43C680.59 195.049 681.147 194.766 681.876 194.578C682.605 194.385 683.475 194.292 684.485 194.297ZM684.485 195.422C683.772 195.422 683.165 195.474 682.665 195.578C682.165 195.677 681.785 195.831 681.524 196.039C681.264 196.247 681.134 196.503 681.134 196.805C681.134 197.102 681.264 197.352 681.524 197.555C681.785 197.753 682.165 197.904 682.665 198.008C683.165 198.112 683.772 198.164 684.485 198.164C685.194 198.164 685.798 198.112 686.298 198.008C686.798 197.904 687.178 197.75 687.438 197.547C687.699 197.339 687.829 197.091 687.829 196.805C687.829 196.503 687.699 196.247 687.438 196.039C687.178 195.831 686.798 195.677 686.298 195.578C685.798 195.474 685.194 195.422 684.485 195.422ZM684.493 185.664C685.504 185.664 686.384 185.771 687.134 185.984C687.889 186.198 688.47 186.508 688.876 186.914C689.282 187.32 689.485 187.799 689.485 188.352C689.485 188.904 689.282 189.383 688.876 189.789C688.47 190.19 687.889 190.497 687.134 190.711C686.384 190.924 685.504 191.031 684.493 191.031C683.478 191.031 682.592 190.924 681.837 190.711C681.087 190.497 680.506 190.19 680.095 189.789C679.683 189.383 679.478 188.904 679.478 188.352C679.478 187.799 679.683 187.32 680.095 186.914C680.506 186.508 681.087 186.198 681.837 185.984C682.592 185.771 683.478 185.664 684.493 185.664ZM684.493 186.852C683.774 186.841 683.155 186.896 682.634 187.016C682.113 187.13 681.712 187.302 681.431 187.531C681.155 187.76 681.017 188.034 681.017 188.352C681.017 188.669 681.155 188.943 681.431 189.172C681.712 189.401 682.11 189.576 682.626 189.695C683.147 189.81 683.769 189.867 684.493 189.867C685.207 189.867 685.824 189.81 686.345 189.695C686.866 189.576 687.264 189.401 687.54 189.172C687.821 188.943 687.962 188.669 687.962 188.352C687.962 188.034 687.824 187.76 687.548 187.531C687.272 187.302 686.871 187.13 686.345 187.016C685.824 186.896 685.207 186.841 684.493 186.852ZM696.813 188.883C696.813 189.987 696.644 191.044 696.306 192.055C695.967 193.06 695.493 193.948 694.884 194.719C694.274 195.484 693.563 196.065 692.751 196.461L691.821 195.219C692.55 194.891 693.199 194.401 693.767 193.75C694.34 193.094 694.785 192.341 695.103 191.492C695.425 190.638 695.587 189.768 695.587 188.883V186.484H696.813V188.883ZM697.079 188.883C697.079 189.732 697.235 190.562 697.548 191.375C697.866 192.188 698.306 192.911 698.868 193.547C699.436 194.182 700.074 194.659 700.782 194.977L699.892 196.156C699.105 195.781 698.402 195.224 697.782 194.484C697.168 193.745 696.691 192.891 696.353 191.922C696.014 190.953 695.845 189.94 695.845 188.883V186.484H697.079V188.883ZM703.54 199.359H702.048V185.32H703.54V199.359Z" fill="#5BC4BF"/>
<rect x="581.103" y="233.5" width="136" height="47" rx="17.5" fill="white"/>
<rect x="581.103" y="233.5" width="136" height="47" rx="17.5" stroke="#5BC4BF"/>
<path d="M616.517 252.875H607.493V251.672H616.517V252.875ZM618.946 262.43H606.181V261.211H618.946V262.43ZM610.673 261.648H609.196V256.672H610.673V261.648ZM617.548 253.164C617.548 253.956 617.54 254.635 617.524 255.203C617.509 255.766 617.462 256.409 617.384 257.133C617.311 257.852 617.196 258.625 617.04 259.453L615.587 259.297C615.743 258.51 615.855 257.766 615.923 257.062C615.996 256.354 616.04 255.721 616.056 255.164C616.071 254.602 616.079 253.935 616.079 253.164V251.672H617.548V253.164ZM614.149 261.648H612.696V256.672H614.149V261.648ZM624.759 260.344H623.274V257.57H624.759V260.344ZM629.478 260.336H628.017V257.57H629.478V260.336ZM632.774 258.195H620.009V257.008H632.774V258.195ZM631.204 264.32H629.72V260.992H621.423V259.82H631.204V264.32ZM626.392 250.648C627.402 250.638 628.282 250.742 629.032 250.961C629.787 251.174 630.368 251.484 630.774 251.891C631.181 252.292 631.384 252.773 631.384 253.336C631.384 253.893 631.181 254.378 630.774 254.789C630.368 255.201 629.787 255.513 629.032 255.727C628.282 255.94 627.402 256.047 626.392 256.047C625.376 256.047 624.491 255.94 623.735 255.727C622.985 255.513 622.405 255.201 621.993 254.789C621.582 254.378 621.376 253.893 621.376 253.336C621.376 252.773 621.582 252.292 621.993 251.891C622.405 251.484 622.985 251.174 623.735 250.961C624.491 250.742 625.376 250.638 626.392 250.648ZM626.392 251.82C625.678 251.81 625.058 251.867 624.532 251.992C624.011 252.112 623.61 252.286 623.329 252.516C623.053 252.745 622.915 253.018 622.915 253.336C622.915 253.659 623.053 253.94 623.329 254.18C623.61 254.414 624.011 254.594 624.532 254.719C625.058 254.839 625.678 254.898 626.392 254.898C627.105 254.898 627.722 254.839 628.243 254.719C628.764 254.594 629.162 254.411 629.438 254.172C629.72 253.932 629.86 253.654 629.86 253.336C629.86 253.018 629.72 252.745 629.438 252.516C629.162 252.286 628.761 252.112 628.235 251.992C627.715 251.867 627.1 251.81 626.392 251.82ZM640.759 253.023H634.47V251.828H640.759V253.023ZM638.032 260.578H636.571V255.828H638.032V260.578ZM641.634 252.688C641.629 253.349 641.621 253.904 641.61 254.352C641.6 254.794 641.566 255.352 641.509 256.023C641.451 256.69 641.36 257.409 641.235 258.18L639.759 258.055C639.931 256.977 640.037 256.031 640.079 255.219C640.126 254.406 640.149 253.562 640.149 252.688V251.828H641.634V252.688ZM644.735 264.32H643.251V250.32H644.735V264.32ZM646.876 257.367H644.321V256.102H646.876V257.367ZM633.704 260.109C635.428 260.094 636.998 260.06 638.415 260.008C639.837 259.951 641.181 259.846 642.446 259.695L642.524 260.805C641.212 261.008 639.826 261.146 638.368 261.219C636.91 261.292 635.41 261.323 633.868 261.312L633.704 260.109ZM658.274 255.109H655.251V253.891H658.274V255.109ZM659.337 258.656H657.853V250.32H659.337V258.656ZM654.642 259.055C655.626 259.055 656.472 259.159 657.181 259.367C657.894 259.576 658.438 259.878 658.813 260.273C659.194 260.664 659.384 261.135 659.384 261.688C659.384 262.24 659.194 262.711 658.813 263.102C658.438 263.497 657.894 263.799 657.181 264.008C656.472 264.216 655.626 264.323 654.642 264.328C653.668 264.323 652.826 264.216 652.118 264.008C651.41 263.799 650.866 263.497 650.485 263.102C650.105 262.711 649.915 262.24 649.915 261.688C649.915 261.135 650.105 260.664 650.485 260.273C650.866 259.878 651.41 259.576 652.118 259.367C652.826 259.159 653.668 259.055 654.642 259.055ZM654.642 260.195C653.97 260.195 653.386 260.255 652.892 260.375C652.402 260.49 652.027 260.659 651.767 260.883C651.511 261.107 651.384 261.375 651.384 261.688C651.384 261.99 651.511 262.253 651.767 262.477C652.027 262.701 652.402 262.872 652.892 262.992C653.386 263.107 653.97 263.164 654.642 263.164C655.329 263.164 655.915 263.107 656.399 262.992C656.889 262.872 657.261 262.701 657.517 262.477C657.777 262.253 657.907 261.99 657.907 261.688C657.907 261.375 657.777 261.107 657.517 260.883C657.261 260.659 656.889 260.49 656.399 260.375C655.915 260.255 655.329 260.195 654.642 260.195ZM652.392 252.82C652.392 253.68 652.23 254.492 651.907 255.258C651.59 256.023 651.134 256.695 650.54 257.273C649.946 257.846 649.251 258.281 648.454 258.578L647.681 257.391C648.389 257.141 649.006 256.779 649.532 256.305C650.063 255.831 650.47 255.292 650.751 254.688C651.032 254.078 651.173 253.456 651.173 252.82V251.734H652.392V252.82ZM652.673 252.805C652.673 253.393 652.808 253.966 653.079 254.523C653.35 255.076 653.741 255.57 654.251 256.008C654.761 256.44 655.36 256.776 656.048 257.016L655.29 258.195C654.504 257.919 653.824 257.51 653.251 256.969C652.678 256.427 652.238 255.797 651.931 255.078C651.623 254.354 651.47 253.596 651.47 252.805V251.734H652.673V252.805ZM655.688 252.508H648.126V251.281H655.688V252.508ZM673.751 252.938H665.415V251.75H673.751V252.938ZM669.587 253.57C670.259 253.57 670.85 253.677 671.36 253.891C671.871 254.099 672.269 254.396 672.556 254.781C672.842 255.161 672.985 255.607 672.985 256.117C672.985 256.622 672.842 257.068 672.556 257.453C672.269 257.833 671.871 258.13 671.36 258.344C670.85 258.552 670.259 258.656 669.587 258.656C668.925 258.656 668.334 258.552 667.813 258.344C667.293 258.13 666.889 257.833 666.603 257.453C666.321 257.068 666.181 256.622 666.181 256.117C666.181 255.607 666.321 255.161 666.603 254.781C666.889 254.396 667.293 254.099 667.813 253.891C668.334 253.677 668.925 253.57 669.587 253.57ZM669.587 254.703C669.196 254.703 668.85 254.76 668.548 254.875C668.246 254.99 668.014 255.154 667.853 255.367C667.691 255.581 667.61 255.831 667.61 256.117C667.61 256.398 667.691 256.643 667.853 256.852C668.014 257.06 668.246 257.219 668.548 257.328C668.85 257.438 669.196 257.492 669.587 257.492C669.978 257.492 670.324 257.438 670.626 257.328C670.933 257.219 671.17 257.06 671.337 256.852C671.504 256.643 671.587 256.398 671.587 256.117C671.587 255.831 671.504 255.581 671.337 255.367C671.17 255.154 670.933 254.99 670.626 254.875C670.324 254.76 669.978 254.703 669.587 254.703ZM676.399 259.086H674.923V250.32H676.399V259.086ZM678.438 255.352H675.985V254.125H678.438V255.352ZM676.399 264.32H674.923V260.992H667.149V259.797H676.399V264.32ZM670.329 252.406H668.853V250.258H670.329V252.406ZM682.274 260.211H688.853V258.727H690.337V264.148H680.806V258.727H682.274V260.211ZM688.853 262.969V261.359H682.274V262.969H688.853ZM691.993 257.828H679.228V256.625H691.993V257.828ZM686.134 251.07C686.134 251.852 685.879 252.573 685.368 253.234C684.863 253.891 684.178 254.438 683.313 254.875C682.454 255.312 681.509 255.607 680.478 255.758L679.923 254.578C680.819 254.458 681.644 254.227 682.399 253.883C683.155 253.539 683.751 253.122 684.188 252.633C684.631 252.138 684.853 251.617 684.853 251.07V250.469H686.134V251.07ZM686.376 251.07C686.376 251.607 686.597 252.122 687.04 252.617C687.483 253.107 688.082 253.529 688.837 253.883C689.597 254.237 690.418 254.469 691.298 254.578L690.759 255.758C689.722 255.607 688.772 255.31 687.907 254.867C687.048 254.424 686.363 253.875 685.853 253.219C685.347 252.557 685.095 251.841 685.095 251.07V250.469H686.376V251.07Z" fill="#5BC4BF"/>
<path d="M650.355 233.359L650.355 218.504" stroke="#5BC4BF" stroke-width="0.5"/>
<path d="M649.488 217.509C649.873 216.84 650.838 216.84 651.223 217.509L652.959 220.531C653.342 221.198 652.861 222.03 652.092 222.03L648.619 222.03C647.85 222.03 647.369 221.198 647.752 220.531L649.488 217.509Z" fill="#5BC4BF"/>
<rect x="481.276" y="193.844" width="59.2962" height="47" rx="17.5" fill="white"/>
<rect x="481.276" y="193.844" width="59.2962" height="47" rx="17.5" stroke="#5BC4BF"/>
<path d="M499.596 212.031H506.619V213.508H501.314V216.945H506.111V218.414H501.314V223.344H499.596V212.031ZM513.471 219.5C513.335 219.5 512.911 219.526 512.197 219.578L511.354 219.641C510.791 219.682 510.354 219.812 510.041 220.031C509.734 220.25 509.58 220.562 509.58 220.969C509.58 221.234 509.648 221.458 509.783 221.641C509.919 221.818 510.109 221.956 510.354 222.055C510.598 222.148 510.877 222.195 511.189 222.195C511.632 222.195 512.015 222.109 512.338 221.938C512.666 221.76 512.919 221.526 513.096 221.234C513.273 220.938 513.361 220.62 513.361 220.281L513.354 217.609C513.354 217.286 513.288 217.013 513.158 216.789C513.033 216.56 512.84 216.388 512.58 216.273C512.32 216.154 512.002 216.094 511.627 216.094C511.153 216.094 510.765 216.193 510.463 216.391C510.166 216.583 509.973 216.844 509.885 217.172H508.213C508.27 216.698 508.447 216.279 508.744 215.914C509.041 215.549 509.442 215.266 509.947 215.062C510.452 214.854 511.031 214.75 511.682 214.75C512.229 214.75 512.747 214.833 513.236 215C513.731 215.161 514.15 215.464 514.494 215.906C514.838 216.344 515.01 216.945 515.01 217.711V223.344H513.393V222.18H513.33C513.215 222.414 513.049 222.633 512.83 222.836C512.611 223.039 512.33 223.206 511.986 223.336C511.648 223.466 511.257 223.531 510.814 223.531C510.268 223.531 509.778 223.43 509.346 223.227C508.913 223.023 508.572 222.727 508.322 222.336C508.072 221.945 507.947 221.484 507.947 220.953C507.947 220.068 508.244 219.438 508.838 219.062C509.437 218.688 510.197 218.471 511.119 218.414C511.244 218.398 511.739 218.367 512.604 218.32L513.455 218.289L513.471 219.5ZM517.041 214.859H518.705V223.344H517.041V214.859ZM517.869 213.547C517.682 213.547 517.507 213.505 517.346 213.422C517.184 213.333 517.057 213.214 516.963 213.062C516.869 212.906 516.822 212.74 516.822 212.562C516.822 212.38 516.869 212.216 516.963 212.07C517.057 211.919 517.184 211.799 517.346 211.711C517.507 211.622 517.682 211.578 517.869 211.578C518.067 211.578 518.247 211.622 518.408 211.711C518.57 211.799 518.695 211.919 518.783 212.07C518.877 212.216 518.924 212.38 518.924 212.562C518.924 212.74 518.877 212.906 518.783 213.062C518.695 213.214 518.57 213.333 518.408 213.422C518.247 213.505 518.067 213.547 517.869 213.547ZM522.408 223.344H520.744V212.031H522.408V223.344Z" fill="#5BC4BF"/>
<path d="M561.516 23.1603C562.185 23.5447 562.185 24.51 561.516 24.8944L558.494 26.6307C557.827 27.0137 556.996 26.5325 556.996 25.7636L556.996 22.291C556.996 21.5222 557.827 21.0409 558.494 21.424L561.516 23.1603Z" fill="#5BC4BF"/>
<path d="M561.516 216.133C562.185 216.517 562.185 217.483 561.516 217.867L558.494 219.603C557.827 219.986 556.996 219.505 556.996 218.736L556.996 215.264C556.996 214.495 557.827 214.014 558.494 214.397L561.516 216.133Z" fill="#5BC4BF"/>
<path d="M171.696 124.686L202.559 124.686" stroke="#5BC4BF" stroke-width="0.5"/>
<path d="M206.647 123.818C207.316 124.203 207.316 125.168 206.647 125.553L203.625 127.289C202.958 127.672 202.127 127.191 202.127 126.422L202.127 122.949C202.127 122.18 202.958 121.699 203.625 122.082L206.647 123.818Z" fill="#5BC4BF"/>
<defs>
<filter id="filter0_d_371_820" x="0" y="13.8711" width="201.696" height="222" filterUnits="userSpaceOnUse" color-interpolation-filters="sRGB">
<feFlood flood-opacity="0" result="BackgroundImageFix"/>
<feColorMatrix in="SourceAlpha" type="matrix" values="0 0 0 0 0 0 0 0 0 0 0 0 0 0 0 0 0 0 127 0" result="hardAlpha"/>
<feOffset/>
<feGaussianBlur stdDeviation="15"/>
<feComposite in2="hardAlpha" operator="out"/>
<feColorMatrix type="matrix" values="0 0 0 0 0.356863 0 0 0 0 0.768627 0 0 0 0 0.74902 0 0 0 0.1 0"/>
<feBlend mode="normal" in2="BackgroundImageFix" result="effect1_dropShadow_371_820"/>
<feBlend mode="normal" in="SourceGraphic" in2="effect1_dropShadow_371_820" result="shape"/>
</filter>
<filter id="filter1_d_371_820" x="178.156" y="13.5" width="207.726" height="219" filterUnits="userSpaceOnUse" color-interpolation-filters="sRGB">
<feFlood flood-opacity="0" result="BackgroundImageFix"/>
<feColorMatrix in="SourceAlpha" type="matrix" values="0 0 0 0 0 0 0 0 0 0 0 0 0 0 0 0 0 0 127 0" result="hardAlpha"/>
<feOffset/>
<feGaussianBlur stdDeviation="15"/>
<feComposite in2="hardAlpha" operator="out"/>
<feColorMatrix type="matrix" values="0 0 0 0 0.356863 0 0 0 0 0.768627 0 0 0 0 0.74902 0 0 0 0.1 0"/>
<feBlend mode="normal" in2="BackgroundImageFix" result="effect1_dropShadow_371_820"/>
<feBlend mode="normal" in="SourceGraphic" in2="effect1_dropShadow_371_820" result="shape"/>
</filter>
</defs>
</svg>
