<svg width="18" height="53" viewBox="0 0 18 53" fill="none" xmlns="http://www.w3.org/2000/svg">
<g clip-path="url(#clip0_26_390)">
<path d="M9 40.2195C6.50526 40.2195 4.37368 39.3541 2.62105 37.6077C0.868421 35.8612 0 33.7529 0 31.2512V21.9683C0 19.4823 0.868421 17.3583 2.62105 15.6118C4.37368 13.8654 6.50526 13 9 13C11.4947 13 13.6263 13.8654 15.3789 15.6118C17.1316 17.3583 18 19.4666 18 21.9683V31.2512C18 33.7372 17.1316 35.8612 15.3789 37.6077C13.6263 39.3541 11.5105 40.2195 9 40.2195ZM9.55263 21.9683H16.8947C16.8947 19.8442 16.1842 18.0348 14.7474 16.5401C13.3105 15.0454 11.5895 14.2272 9.55263 14.1014V21.9683ZM1.10526 21.9683H8.44737V14.1014C6.42632 14.2272 4.68947 15.0454 3.25263 16.5401C1.81579 18.0348 1.10526 19.8442 1.10526 21.9683ZM9 39.1181C11.1789 39.1181 13.0421 38.3472 14.5895 36.821C16.1368 35.2948 16.8947 33.4382 16.8947 31.2512V23.0696H1.10526V31.2512C1.10526 33.4225 1.87895 35.2791 3.41053 36.821C4.94211 38.3629 6.80526 39.1181 9 39.1181Z" fill="#ffffff"/>
</g>
<g clip-path="url(#clip1_26_390)">
<path d="M8.99735 48L6 44.6259L6.55703 44L8.99735 46.7422L11.4377 44L11.9947 44.6259L8.99735 47.994V48Z" fill="#ffffff"/>
</g>
<g clip-path="url(#clip2_26_390)">
<path d="M8.99735 53L6 49.6259L6.55703 49L8.99735 51.7422L11.4377 49L11.9947 49.6259L8.99735 52.994V53Z" fill="#ffffff"/>
</g>
<g clip-path="url(#clip3_26_390)">
<path d="M8.99735 5L6 8.37407L6.55703 9L8.99735 6.25782L11.4377 9L11.9947 8.37407L8.99735 5.00596V5Z" fill="#ffffff"/>
</g>
<g clip-path="url(#clip4_26_390)">
<path d="M8.99735 0L6 3.37407L6.55703 4L8.99735 1.25782L11.4377 4L11.9947 3.37407L8.99735 0.00596142V0Z" fill="#ffffff"/>
</g>
<defs>
<clipPath id="clip0_26_390">
<rect width="18" height="27.2195" fill="white" transform="translate(0 13)"/>
</clipPath>
<clipPath id="clip1_26_390">
<rect width="6" height="4" fill="white" transform="translate(6 44)"/>
</clipPath>
<clipPath id="clip2_26_390">
<rect width="6" height="4" fill="white" transform="translate(6 49)"/>
</clipPath>
<clipPath id="clip3_26_390">
<rect width="6" height="4" fill="white" transform="matrix(1 0 0 -1 6 9)"/>
</clipPath>
<clipPath id="clip4_26_390">
<rect width="6" height="4" fill="white" transform="matrix(1 0 0 -1 6 4)"/>
</clipPath>
</defs>
</svg>
